<svg xmlns="http://www.w3.org/2000/svg" x="0px" y="0px" width="64" height="64" viewBox="0 0 171 171" style=" fill:#000000;">
    <g fill="none" fill-rule="nonzero" stroke="none" stroke-width="1" stroke-linecap="butt" stroke-linejoin="miter" stroke-miterlimit="10" stroke-dasharray="" stroke-dashoffset="0" font-family="none" font-weight="none" font-size="none" text-anchor="none" style="mix-blend-mode: normal">
        <path d="M0,171.99728v-171.99728h171.99728v171.99728z" fill="none"></path>
        <g>
            <path d="M162.45,164.5875c-8.9775,-0.855 -19.2375,-3.42 -29.07,-8.1225l-0.855,-0.4275l-0.855,0.4275c-7.2675,2.565 -14.9625,4.275 -22.6575,4.275c-30.78,0 -55.575,-20.9475 -55.575,-47.025c0,-26.0775 24.795,-47.025 55.575,-47.025c30.78,0 55.575,20.9475 55.575,47.025c0,10.6875 -4.275,21.375 -12.3975,29.925l-0.855,1.2825l0.855,1.2825c2.9925,6.4125 6.4125,12.825 10.26,18.3825z" fill="#38b6ff"></path>
            <path d="M109.0125,68.4c29.4975,0 53.4375,20.0925 53.4375,44.8875c0,10.26 -4.275,20.0925 -11.97,28.215l-2.1375,2.1375l1.2825,2.565c2.565,5.5575 5.5575,10.6875 8.55,15.39c-7.695,-1.2825 -15.8175,-3.8475 -23.94,-7.695l-1.71,-0.4275l-1.71,0.855c-6.84,2.565 -14.1075,3.8475 -21.8025,3.8475c-29.4975,0 -53.4375,-20.0925 -53.4375,-44.8875c0,-24.795 23.94,-44.8875 53.4375,-44.8875M109.0125,64.125c-32.0625,0 -57.7125,21.8025 -57.7125,49.1625c0,27.36 25.65,49.1625 57.7125,49.1625c8.55,0 16.245,-1.71 23.5125,-4.275c10.6875,5.13 23.085,8.55 34.2,8.55c-5.13,-6.4125 -9.405,-14.535 -13.2525,-22.23c8.1225,-8.55 13.2525,-19.2375 13.2525,-31.2075c0,-27.36 -25.65,-49.1625 -57.7125,-49.1625z" fill="#071a2d"></path>
            <path d="M8.55,104.7375c3.8475,-5.13 7.2675,-11.5425 10.6875,-18.81l0.855,-1.2825l-0.855,-1.2825c-8.1225,-8.55 -12.3975,-18.81 -12.3975,-29.925c0,-26.0775 24.795,-47.025 55.575,-47.025c30.78,0 55.575,20.9475 55.575,47.025c0,26.0775 -24.795,47.025 -55.575,47.025c-7.695,0 -15.39,-1.2825 -22.6575,-4.275h-1.2825l-0.855,0.4275c-9.8325,4.275 -20.0925,7.2675 -29.07,8.1225z" fill="#e6f0fc"></path>
            <path d="M61.9875,8.55c29.4975,0 53.4375,20.0925 53.4375,44.8875c0,24.795 -23.94,44.8875 -53.4375,44.8875c-7.695,0 -14.9625,-1.2825 -21.8025,-3.8475l-1.71,-0.855l-1.71,0.855c-8.1225,3.8475 -16.245,6.4125 -23.94,7.2675c2.9925,-4.7025 5.5575,-9.8325 8.55,-15.39l1.2825,-2.565l-2.1375,-2.1375c-7.695,-8.1225 -11.97,-17.955 -11.97,-28.215c0,-24.795 23.94,-44.8875 53.4375,-44.8875M61.9875,4.275c-32.0625,0 -57.7125,21.8025 -57.7125,49.1625c0,11.97 5.13,22.6575 13.2525,31.2075c-3.8475,7.695 -8.1225,15.8175 -13.2525,22.23c11.115,0 23.5125,-3.42 34.2,-8.55c7.2675,2.565 14.9625,4.275 23.5125,4.275c32.0625,0 57.7125,-21.8025 57.7125,-49.1625c0,-27.36 -25.65,-49.1625 -57.7125,-49.1625z" fill="#071a2d"></path>
            <path d="M91.9125,42.75h-59.85c-1.2825,0 -2.1375,-0.855 -2.1375,-2.1375v0c0,-1.2825 0.855,-2.1375 2.1375,-2.1375h59.85c1.2825,0 2.1375,0.855 2.1375,2.1375v0c0,1.2825 -0.855,2.1375 -2.1375,2.1375zM91.9125,68.4h-59.85c-1.2825,0 -2.1375,-0.855 -2.1375,-2.1375v0c0,-1.2825 0.855,-2.1375 2.1375,-2.1375h59.85c1.2825,0 2.1375,0.855 2.1375,2.1375v0c0,1.2825 -0.855,2.1375 -2.1375,2.1375zM138.9375,102.6h-59.85c-1.2825,0 -2.1375,-0.855 -2.1375,-2.1375v0c0,-1.2825 0.855,-2.1375 2.1375,-2.1375h59.85c1.2825,0 2.1375,0.855 2.1375,2.1375v0c0,1.2825 -0.855,2.1375 -2.1375,2.1375zM138.9375,128.25h-59.85c-1.2825,0 -2.1375,-0.855 -2.1375,-2.1375v0c0,-1.2825 0.855,-2.1375 2.1375,-2.1375h59.85c1.2825,0 2.1375,0.855 2.1375,2.1375v0c0,1.2825 -0.855,2.1375 -2.1375,2.1375z" fill="#071a2d"></path>
        </g>
    </g>
</svg>