<svg xmlns="http://www.w3.org/2000/svg" x="0px" y="0px" width="64" height="64" viewBox="0 0 171 171" style=" fill:#000000;">
    <g fill="none" fill-rule="nonzero" stroke="none" stroke-width="1" stroke-linecap="butt" stroke-linejoin="miter" stroke-miterlimit="10" stroke-dasharray="" stroke-dashoffset="0" font-family="none" font-weight="none" font-size="none" text-anchor="none" style="mix-blend-mode: normal">
        <path d="M0,171.99728v-171.99728h171.99728v171.99728z" fill="none"></path>
        <g>
            <path d="M160.3125,158.89641v4.08797h-42.75v-4.08797c0.00954,-4.04611 2.29204,-7.74356 5.90484,-9.56531l10.12641,-5.04984v-1.44281c3.30284,1.92358 7.38466,1.92358 10.6875,0v1.44281l10.12641,5.04984c3.6128,1.82175 5.89531,5.5192 5.90484,9.56531z" fill="#e6f0fc"></path>
            <path d="M149.625,130.92188v2.67188c0,5.90254 -4.78496,10.6875 -10.6875,10.6875c-5.90254,0 -10.6875,-4.78496 -10.6875,-10.6875v-8.01562c0,-5.90254 4.78496,-10.6875 10.6875,-10.6875c5.90254,0 10.6875,4.78496 10.6875,10.6875z" fill="#e6f0fc"></path>
            <path d="M96.1875,130.92188v2.67188c0,5.90254 -4.78496,10.6875 -10.6875,10.6875c-5.90254,0 -10.6875,-4.78496 -10.6875,-10.6875v-8.01562c0,-5.90254 4.78496,-10.6875 10.6875,-10.6875c5.90254,0 10.6875,4.78496 10.6875,10.6875z" fill="#e6f0fc"></path>
            <path d="M106.875,158.89641v4.08797h-42.75v-4.08797c0.00954,-4.04611 2.29204,-7.74356 5.90484,-9.56531l10.12641,-5.04984v-1.44281c3.30284,1.92358 7.38466,1.92358 10.6875,0v1.44281l10.12641,5.04984c3.6128,1.82175 5.89531,5.5192 5.90484,9.56531z" fill="#e6f0fc"></path>
            <path d="M42.75,130.92188v2.67188c0,5.90254 -4.78496,10.6875 -10.6875,10.6875c-5.90254,0 -10.6875,-4.78496 -10.6875,-10.6875v-8.01562c0,-5.90254 4.78496,-10.6875 10.6875,-10.6875c5.90254,0 10.6875,4.78496 10.6875,10.6875z" fill="#e6f0fc"></path>
            <path d="M53.4375,158.89641v4.08797h-42.75v-4.08797c0.00954,-4.04611 2.29204,-7.74356 5.90484,-9.56531l10.12641,-5.04984v-1.44281c3.30284,1.92358 7.38466,1.92358 10.6875,0v1.44281l10.12641,5.04984c3.6128,1.82175 5.89531,5.5192 5.90484,9.56531z" fill="#e6f0fc"></path>
            <path d="M63.24328,98.85938l-1.79016,-10.6875h-5.34375l-1.79016,10.6875l-0.88172,5.34375h5.34375h5.34375z" fill="#e6f0fc"></path>
            <path d="M96.32109,88.17188c-2.55951,-4.83171 -6.88612,-8.48827 -12.07687,-10.20656l-8.55,-2.85891l-6.22547,10.39359l-3.74062,-3.74062l-4.275,6.4125l1.79016,10.6875l0.88172,5.34375h34.73438v-5.95828c0.00307,-3.51629 -0.86925,-6.97803 -2.53828,-10.07297z" fill="#e6f0fc"></path>
            <path d="M51.83437,81.75938l-3.74062,3.74062l-6.22547,-10.39359l-8.55,2.85891c-8.71577,2.92723 -14.59521,11.08535 -14.61516,20.27953v5.95828h34.73438l0.88172,-5.34375l1.79016,-10.6875z" fill="#e6f0fc"></path>
            <path d="M75.69422,75.10641l-6.22547,10.39359l-3.74062,-3.74062l-6.94688,-6.94688h2.67188l5.34375,-2.67187z" fill="#e6f0fc"></path>
            <path d="M58.78125,74.8125l-6.94688,6.94688l-3.74062,3.74062l-6.22547,-10.39359l8.89734,-2.96578l5.34375,2.67188z" fill="#e6f0fc"></path>
            <path d="M65.72813,81.75938l-4.275,6.4125h-5.34375l-4.275,-6.4125l6.94688,-6.94688z" fill="#e6f0fc"></path>
            <path d="M13.35938,8.01563h34.73438c-5.90254,0 -10.6875,4.78496 -10.6875,10.6875h-16.03125c-1.47564,0 -2.67187,1.19624 -2.67187,2.67188v64.125c0.0076,1.42124 1.1193,2.59145 2.53828,2.67188c-1.66903,3.09494 -2.54135,6.55668 -2.53828,10.07297v0.61453h-5.34375c-2.94762,-0.0088 -5.33495,-2.39613 -5.34375,-5.34375v-80.15625c0.0088,-2.94762 2.39613,-5.33495 5.34375,-5.34375z" fill="#e6f0fc"></path>
            <path d="M162.98438,13.35938v80.15625c-0.0088,2.94762 -2.39613,5.33495 -5.34375,5.34375h-58.78125v-0.61453c0.00307,-3.51629 -0.86925,-6.97803 -2.53828,-10.07297h53.30391c1.47564,0 2.67188,-1.19624 2.67188,-2.67187v-64.125c0,-1.47564 -1.19624,-2.67187 -2.67187,-2.67187h-69.46875v-10.6875h77.48438c2.94762,0.0088 5.33495,2.39613 5.34375,5.34375z" fill="#e6f0fc"></path>
            <path d="M48.09375,8.01563c-5.90254,0 -10.6875,4.78496 -10.6875,10.6875v13.35938h8.01563v-10.6875c8.89734,0 7.13391,2.67188 16.03125,2.67188c7.93547,0 11.64937,-1.57641 18.70313,-2.48484v-13.54641z" fill="#e6f0fc"></path>
            <path d="M157.64063,5.34375h-144.28125c-4.42143,0.0132 -8.00242,3.5942 -8.01562,8.01563v80.15625c0.0132,4.42143 3.5942,8.00242 8.01563,8.01563h2.67188v2.67188c0,1.47564 1.19624,2.67188 2.67188,2.67188h80.15625c1.47564,0 2.67188,-1.19624 2.67188,-2.67187v-2.67187h56.10938c4.42143,-0.0132 8.00242,-3.5942 8.01563,-8.01562v-80.15625c-0.0132,-4.42143 -3.5942,-8.00242 -8.01562,-8.01562zM40.07813,18.70313c0.0132,-4.42143 3.5942,-8.00242 8.01563,-8.01562h29.39063v8.57672c-1.57641,0.24047 -3.01922,0.53438 -4.40859,0.80156c-3.8166,0.84874 -7.71289,1.28763 -11.62266,1.30922c-2.41792,0.13404 -4.83561,-0.26739 -7.08047,-1.17563c-2.84677,-1.1169 -5.89553,-1.62654 -8.95078,-1.49625c-1.47564,0 -2.67187,1.19624 -2.67187,2.67188v8.01563h-2.67187zM17.74125,89.37422c-0.86793,2.18095 -1.41686,4.47565 -1.62984,6.81328h-2.75203c-1.47564,0 -2.67187,-1.19624 -2.67187,-2.67187v-80.15625c0,-1.47564 1.19624,-2.67187 2.67188,-2.67187h24.12703c-1.22852,1.56626 -2.07888,3.395 -2.48484,5.34375h-13.62656c-2.94762,0.0088 -5.33495,2.39613 -5.34375,5.34375v64.125c0.00539,1.47324 0.62517,2.87742 1.71,3.87422zM26.71875,37.40625c0.0132,4.42143 3.5942,8.00242 8.01563,8.01563h0.16031c0.91685,8.11238 5.88705,15.20548 13.19906,18.83672v5.95828l-15.63047,5.21016c-4.35665,1.4642 -8.2039,4.14337 -11.08828,7.72172v-61.77375h13.35938v8.01563c-4.42143,0.0132 -8.00242,3.5942 -8.01562,8.01563zM34.73438,34.73438v5.34375c-1.47564,0 -2.67187,-1.19624 -2.67187,-2.67187c0,-1.47564 1.19624,-2.67187 2.67188,-2.67187zM51.16641,101.53125h-13.76016v-8.01562h-5.34375v8.01563h-10.6875v-3.28641c-0.01605,-8.05808 5.14655,-15.21459 12.79828,-17.74125l6.51938,-2.19094l5.10328,8.55c0.42474,0.71077 1.15501,1.18446 1.97719,1.2825c0.10536,0.02214 0.21306,0.03111 0.32063,0.02672c0.70979,0.00206 1.39165,-0.27645 1.89703,-0.77484l1.41609,-1.44281l1.89703,2.83219zM48.62813,81.19828l-2.75203,-4.59562l4.67578,-1.57641l2.83219,1.41609zM40.07813,42.75v-8.01562h5.34375c1.47564,0 2.67188,-1.19624 2.67188,-2.67187v-7.90875c1.51799,0.11338 3.0072,0.4744 4.40859,1.06875c2.84677,1.1169 5.89553,1.62654 8.95078,1.49625c4.25107,-0.02058 8.48777,-0.49531 12.63797,-1.41609c1.09547,-0.21375 2.21766,-0.4275 3.39328,-0.64125v18.08859c0,10.32945 -8.37367,18.70313 -18.70312,18.70313c-10.32945,0 -18.70312,-8.37367 -18.70312,-18.70312zM56.59031,101.53125l1.79016,-10.6875h0.80156l1.79016,10.6875zM60.01031,85.5h-2.45813l-2.27109,-3.39328l3.50016,-3.52688l3.50016,3.52688zM64.125,70.48406l-3.31312,1.65656h-4.06125l-3.31312,-1.65656v-4.30172c3.51539,0.81934 7.17211,0.81934 10.6875,0zM67.01062,75.02625l4.67578,1.57641l-2.75203,4.59563l-4.75594,-4.75594zM96.1875,101.53125h-10.6875v-8.01562h-5.34375v8.01563h-13.76016l-2.1375,-12.74484l1.89703,-2.83219l1.41609,1.44281c0.50538,0.4984 1.18724,0.7769 1.89703,0.77484c0.10757,0.00439 0.21527,-0.00458 0.32063,-0.02672c0.82218,-0.09804 1.55245,-0.57173 1.97719,-1.2825l5.10328,-8.55l6.51937,2.19094c7.65173,2.52666 12.81433,9.68317 12.79828,17.74125zM97.87078,85.5c-2.95922,-4.73805 -7.47441,-8.2992 -12.77156,-10.07297l-15.63047,-5.21016v-5.95828c8.1692,-4.05865 13.34193,-12.38675 13.35938,-21.50859v-21.375h66.79688v64.125zM160.3125,93.51563c0,1.47564 -1.19624,2.67188 -2.67187,2.67188h-56.18953c-0.15847,-1.81745 -0.52606,-3.61055 -1.09547,-5.34375h49.26938c2.94762,-0.0088 5.33495,-2.39613 5.34375,-5.34375v-64.125c-0.0088,-2.94762 -2.39613,-5.33495 -5.34375,-5.34375h-66.79687v-5.34375h74.8125c1.47564,0 2.67188,1.19624 2.67188,2.67188z" fill="#071a2d"></path>
            <path d="M48.735,146.95313l-7.45453,-3.74062c2.64063,-2.503 4.13783,-5.98036 4.14141,-9.61875v-8.01562c0,-7.37818 -5.9812,-13.35937 -13.35937,-13.35937c-7.37818,0 -13.35937,5.9812 -13.35937,13.35938v8.01563c0.00358,3.63839 1.50078,7.11575 4.14141,9.61875l-7.45453,3.74062c-4.50352,2.28298 -7.35073,6.89421 -7.37437,11.94328v4.08797c0,1.47564 1.19624,2.67188 2.67188,2.67188h42.75c1.47564,0 2.67188,-1.19624 2.67188,-2.67187v-4.08797c-0.02365,-5.04907 -2.87086,-9.66031 -7.37438,-11.94328zM24.04688,125.57813c0,-4.42691 3.58872,-8.01562 8.01563,-8.01562c4.42691,0 8.01563,3.58872 8.01563,8.01563v8.01563c0,4.42691 -3.58872,8.01563 -8.01562,8.01563c-4.42691,0 -8.01562,-3.58872 -8.01562,-8.01562zM50.76563,160.3125h-37.40625v-1.41609c0.01468,-3.0309 1.72826,-5.79739 4.43531,-7.16062l10.12641,-5.04984c0.16031,-0.10688 0.29391,-0.21375 0.4275,-0.32062c1.20394,0.37057 2.45437,0.56848 3.71391,0.58781c1.25954,-0.01933 2.50996,-0.21724 3.71391,-0.58781c0.13359,0.10687 0.26719,0.21375 0.4275,0.32062l10.12641,5.02313c2.70398,1.38023 4.41415,4.15154 4.43531,7.18734z" fill="#071a2d"></path>
            <path d="M102.1725,146.95313l-7.45453,-3.74062c2.64063,-2.503 4.13783,-5.98036 4.14141,-9.61875v-8.01562c0,-7.37818 -5.9812,-13.35937 -13.35937,-13.35937c-7.37818,0 -13.35937,5.9812 -13.35937,13.35938v8.01563c0.00358,3.63839 1.50078,7.11575 4.14141,9.61875l-7.45453,3.74062c-4.50352,2.28298 -7.35073,6.89421 -7.37437,11.94328v4.08797c0,1.47564 1.19624,2.67188 2.67188,2.67188h42.75c1.47564,0 2.67188,-1.19624 2.67188,-2.67187v-4.08797c-0.02365,-5.04907 -2.87086,-9.66031 -7.37437,-11.94328zM77.48438,125.57813c0,-4.42691 3.58872,-8.01562 8.01563,-8.01562c4.42691,0 8.01563,3.58872 8.01563,8.01563v8.01563c0,4.42691 -3.58872,8.01563 -8.01562,8.01563c-4.42691,0 -8.01562,-3.58872 -8.01562,-8.01562zM104.20313,160.3125h-37.40625v-1.41609c0.01468,-3.0309 1.72826,-5.79739 4.43531,-7.16062l10.12641,-5.04984c0.16031,-0.10688 0.29391,-0.21375 0.4275,-0.32062c2.41388,0.78396 5.01393,0.78396 7.42781,0c0.13359,0.10687 0.26719,0.21375 0.4275,0.32062l10.12641,5.02313c2.70398,1.38023 4.41415,4.15154 4.43531,7.18734z" fill="#071a2d"></path>
            <path d="M155.61,146.95313l-7.45453,-3.74062c2.64063,-2.503 4.13783,-5.98036 4.14141,-9.61875v-8.01562c0,-7.37818 -5.9812,-13.35937 -13.35937,-13.35937c-7.37818,0 -13.35937,5.9812 -13.35937,13.35938v8.01563c0.00358,3.63839 1.50078,7.11575 4.14141,9.61875l-7.45453,3.74062c-4.50352,2.28298 -7.35073,6.89421 -7.37437,11.94328v4.08797c0,1.47564 1.19624,2.67188 2.67188,2.67188h42.75c1.47564,0 2.67188,-1.19624 2.67188,-2.67187v-4.08797c-0.02365,-5.04907 -2.87086,-9.66031 -7.37437,-11.94328zM130.92188,125.57813c0,-4.42691 3.58872,-8.01562 8.01563,-8.01562c4.42691,0 8.01563,3.58872 8.01563,8.01563v8.01563c0,4.42691 -3.58872,8.01563 -8.01562,8.01563c-4.42691,0 -8.01562,-3.58872 -8.01562,-8.01562zM157.64063,160.3125h-37.40625v-1.41609c0.01468,-3.0309 1.72826,-5.79739 4.43531,-7.16062l10.12641,-5.04984c0.16031,-0.10688 0.29391,-0.21375 0.4275,-0.32062c2.41388,0.78396 5.01393,0.78396 7.42781,0c0.13359,0.10687 0.26719,0.21375 0.4275,0.32062l10.12641,5.02313c2.70398,1.38023 4.41415,4.15154 4.43531,7.18734z" fill="#071a2d"></path>
            <rect x="19" y="12" transform="scale(2.67188,2.67188)" width="2" height="2" fill="#071a2d"></rect>
            <rect x="25" y="12" transform="scale(2.67188,2.67188)" width="2" height="2" fill="#071a2d"></rect>
            <path d="M66.79688,45.42188c0,2.95127 -2.39248,5.34375 -5.34375,5.34375c-2.95127,0 -5.34375,-2.39248 -5.34375,-5.34375h-5.34375c0,5.90254 4.78496,10.6875 10.6875,10.6875c5.90254,0 10.6875,-4.78496 10.6875,-10.6875z" fill="#071a2d"></path>
            <path d="M138.9375,32.0625h-5.34375v34.73438h-5.34375v-18.70312h-5.34375v18.70313h-5.34375v-26.71875h-5.34375v26.71875h-5.34375v-18.70312h-5.34375v18.70313h-5.34375v5.34375h48.09375v-5.34375h-5.34375z" fill="#071a2d"></path>
        </g>
    </g>
</svg>