<svg xmlns="http://www.w3.org/2000/svg" x="0px" y="0px" width="64" height="64" viewBox="0 0 171 171" style=" fill:#000000;">
    <g fill="none" fill-rule="nonzero" stroke="none" stroke-width="1" stroke-linecap="butt" stroke-linejoin="miter" stroke-miterlimit="10" stroke-dasharray="" stroke-dashoffset="0" font-family="none" font-weight="none" font-size="none" text-anchor="none" style="mix-blend-mode: normal">
        <path d="M0,171.99728v-171.99728h171.99728v171.99728z" fill="none"></path>
        <g>
            <path d="M41.24707,23.71289c0,9.62476 0,124.32702 0,130.25391c5.02646,0 88.49584,0 93.51563,0c0,-9.62476 0,-124.32702 0,-130.25391c-3.27973,0 -90.20283,0 -93.51562,0z" fill="#e6f0fc"></path>
            <path d="M98.02441,128.91797c0,-17.52416 14.20436,-31.72852 31.72852,-31.72852c17.53552,0 31.72852,14.21604 31.72852,31.72852c0,17.52416 -14.20436,31.72852 -31.72852,31.72852c-17.47707,0 -31.72852,-14.16027 -31.72852,-31.72852z" fill="#ffffff"></path>
            <path d="M153.13184,22.04297c4.61232,0 8.34961,3.73729 8.34961,8.34961c0,4.61232 -3.73729,8.34961 -8.34961,8.34961c-4.61232,0 -8.34961,-3.73729 -8.34961,-8.34961c0,-4.61232 3.73729,-8.34961 8.34961,-8.34961z" fill="#ffffff"></path>
            <path d="M16.19824,130.58789c3.69053,0 6.67969,2.98916 6.67969,6.67969c0,3.69053 -2.98916,6.67969 -6.67969,6.67969c-3.69053,0 -6.67969,-2.98916 -6.67969,-6.67969c0,-3.69053 2.98916,-6.67969 6.67969,-6.67969z" fill="#ffffff"></path>
            <path d="M132.73207,125.48461c1.77012,1.77379 1.77012,4.64238 0,6.4125c-1.77012,1.77012 -4.63904,1.77012 -6.4125,0c-1.77012,-1.77012 -1.77012,-4.63904 0,-6.4125c1.77346,-1.77012 4.64238,-1.77012 6.4125,0z" fill="#e6f0fc"></path>
            <rect x="168.5" y="116" transform="scale(0.33398,0.33398)" width="40" height="40" fill="#ffffff"></rect>
            <path d="M124.74316,12.02344v11.68945h-83.49609v120.23438h-11.68945v-131.92383z" fill="#ffffff"></path>
            <circle cx="466" cy="263.5" transform="scale(0.33398,0.33398)" r="7.5" fill="#071a2d"></circle>
            <circle cx="441" cy="153.5" transform="scale(0.33398,0.33398)" r="7.5" fill="#071a2d"></circle>
            <circle cx="406" cy="33.5" transform="scale(0.33398,0.33398)" r="7.5" fill="#071a2d"></circle>
            <circle cx="76" cy="468.5" transform="scale(0.33398,0.33398)" r="7.5" fill="#071a2d"></circle>
            <circle cx="61" cy="248.5" transform="scale(0.33398,0.33398)" r="7.5" fill="#071a2d"></circle>
            <circle cx="36" cy="98.5" transform="scale(0.33398,0.33398)" r="7.5" fill="#071a2d"></circle>
            <path d="M137.9606,117.89481l-5.39218,5.39218c-2.35893,-1.3326 -5.40253,-1.00596 -7.43082,1.01798c-2.00624,2.01092 -2.34056,5.0632 -1.01297,7.42581l-1.89803,1.89803c-0.65227,0.65194 -0.65227,1.70933 0,2.36127c0.6516,0.65227 1.70967,0.65227 2.36127,0l1.89603,-1.89603c2.36728,1.33694 5.41155,1.00162 7.42881,-1.01631c2.00791,-2.00758 2.3419,-5.06053 1.01364,-7.42614l5.39552,-5.39518c0.65227,-0.65194 0.65227,-1.70933 0,-2.36127c-0.6516,-0.65261 -1.70967,-0.65261 -2.36127,-0.00033zM131.55144,130.71647c-1.12386,1.12319 -2.93505,1.1135 -4.05123,0c-1.11551,-1.11584 -1.11517,-2.93372 -0.001,-4.04989c1.12252,-1.12052 2.93405,-1.11918 4.0509,-0.00234c1.11651,1.11851 1.11684,2.93639 0.00134,4.05223z" fill="#071a2d"></path>
            <path d="M69.63574,37.07227h-13.35937c-0.92213,0 -1.66992,0.74779 -1.66992,1.66992v13.35938c0,0.92213 0.74779,1.66992 1.66992,1.66992h13.35938c0.92213,0 1.66992,-0.74779 1.66992,-1.66992v-13.35937c0,-0.92213 -0.74779,-1.66992 -1.66992,-1.66992zM67.96582,50.43164h-10.01953v-10.01953h10.01953z" fill="#071a2d"></path>
            <path d="M79.65527,52.10156h38.4082c0.92246,0 1.66992,-0.74779 1.66992,-1.66992c0,-0.92213 -0.74746,-1.66992 -1.66992,-1.66992h-38.4082c-0.92213,0 -1.66992,0.74779 -1.66992,1.66992c0,0.92213 0.74779,1.66992 1.66992,1.66992z" fill="#071a2d"></path>
            <path d="M79.65527,43.75195h20.03906c0.92246,0 1.66992,-0.74779 1.66992,-1.66992c0,-0.92213 -0.74746,-1.66992 -1.66992,-1.66992h-20.03906c-0.92213,0 -1.66992,0.74779 -1.66992,1.66992c0,0.92213 0.74779,1.66992 1.66992,1.66992z" fill="#071a2d"></path>
            <path d="M79.65527,75.48047h38.4082c0.92246,0 1.66992,-0.74779 1.66992,-1.66992c0,-0.92213 -0.74746,-1.66992 -1.66992,-1.66992h-38.4082c-0.92213,0 -1.66992,0.74779 -1.66992,1.66992c0,0.92213 0.74779,1.66992 1.66992,1.66992z" fill="#071a2d"></path>
            <path d="M79.65527,67.13086h20.03906c0.92246,0 1.66992,-0.74779 1.66992,-1.66992c0,-0.92213 -0.74746,-1.66992 -1.66992,-1.66992h-20.03906c-0.92213,0 -1.66992,0.74779 -1.66992,1.66992c0,0.92213 0.74779,1.66992 1.66992,1.66992z" fill="#071a2d"></path>
            <path d="M66.8453,66.03339l-7.08514,7.08548l-2.36294,-2.36294c-0.65227,-0.65194 -1.70933,-0.65194 -2.3616,0c-0.65227,0.65227 -0.65227,1.70967 0,2.3616l3.54357,3.54357c0.65261,0.65227 1.70933,0.65194 2.3616,0l8.26611,-8.26611c0.65227,-0.65227 0.65227,-1.70967 0,-2.3616c-0.65227,-0.65194 -1.70933,-0.65194 -2.3616,0z" fill="#071a2d"></path>
            <path d="M108.04395,95.51953c0,-0.92246 -0.74746,-1.66992 -1.66992,-1.66992h-26.71875c-0.92213,0 -1.66992,0.74746 -1.66992,1.66992c0,0.92246 0.74779,1.66992 1.66992,1.66992h26.71875c0.92246,0 1.66992,-0.74746 1.66992,-1.66992z" fill="#071a2d"></path>
            <path d="M79.65527,88.83984h16.69922c0.92246,0 1.66992,-0.74746 1.66992,-1.66992c0,-0.92246 -0.74746,-1.66992 -1.66992,-1.66992h-16.69922c-0.92213,0 -1.66992,0.74746 -1.66992,1.66992c0,0.92246 0.74779,1.66992 1.66992,1.66992z" fill="#071a2d"></path>
            <path d="M66.8453,87.74271l-7.08514,7.08514l-2.36294,-2.36261c-0.65227,-0.65227 -1.70933,-0.65227 -2.3616,0c-0.65227,0.65194 -0.65227,1.70933 0,2.36127l3.54357,3.54357c0.65227,0.65227 1.70933,0.65227 2.3616,0l8.26611,-8.26611c0.65227,-0.65194 0.65227,-1.70933 0,-2.36127c-0.65227,-0.65227 -1.70933,-0.65227 -2.3616,0z" fill="#071a2d"></path>
            <path d="M16.19824,128.91797c-4.60397,0 -8.34961,3.74563 -8.34961,8.34961c0,4.60397 3.74563,8.34961 8.34961,8.34961c4.60397,0 8.34961,-3.74563 8.34961,-8.34961c0,-4.60397 -3.74563,-8.34961 -8.34961,-8.34961zM16.19824,142.27734c-2.76238,0 -5.00977,-2.24738 -5.00977,-5.00977c0,-2.76238 2.24738,-5.00977 5.00977,-5.00977c2.76238,0 5.00977,2.24738 5.00977,5.00977c0,2.76238 -2.24738,5.00977 -5.00977,5.00977z" fill="#071a2d"></path>
            <path d="M160.59405,116.108c-0.00234,-0.00635 -0.00301,-0.01236 -0.00568,-0.0187c-0.002,-0.00434 -0.00468,-0.00768 -0.00668,-0.01202c-4.36284,-10.47943 -13.62923,-17.74826 -24.14941,-19.88743v-72.47695c0,-0.92213 -0.74746,-1.66992 -1.66992,-1.66992h-8.34961v-10.01953c0,-0.92213 -0.74746,-1.66992 -1.66992,-1.66992h-95.18555c-0.92213,0 -1.66992,0.74779 -1.66992,1.66992v131.92383c0,0.92246 0.74779,1.66992 1.66992,1.66992h10.01953v8.34961c0,0.92246 0.74779,1.66992 1.66992,1.66992h68.47748c5.81066,4.36785 12.7208,6.67969 20.02837,6.67969c4.54085,0 8.87196,-0.91211 12.82233,-2.56099c0.00234,-0.001 0.00434,-0.001 0.00668,-0.002c0.002,-0.00067 0.00334,-0.002 0.00534,-0.00301c4.01015,-1.67527 7.62587,-4.11068 10.66679,-7.12556c0.03741,-0.03139 0.07815,-0.05745 0.11355,-0.09251c0.0354,-0.03507 0.06145,-0.07581 0.09251,-0.11322c3.05496,-3.08167 5.45931,-6.68002 7.17064,-10.76766c0.00468,-0.01136 0.00601,-0.02304 0.01002,-0.0344c1.61648,-3.9173 2.51089,-8.20533 2.51089,-12.69909c0,-4.43164 -0.88472,-8.78112 -2.55732,-12.80997zM156.85643,115.83346l-2.11178,0.87871c-0.85166,0.35436 -1.25445,1.3316 -0.90009,2.18326c0.35736,0.85867 1.33961,1.25177 2.18326,0.90009l2.09675,-0.87237c0.91645,2.63079 1.48055,5.42457 1.63686,8.32489h-4.22824c-0.92246,0 -1.66992,0.74746 -1.66992,1.66992c0,0.92246 0.74746,1.66992 1.66992,1.66992h4.23091c-0.15764,2.86726 -0.71974,5.6283 -1.62918,8.22804l-2.07905,-0.85734c-0.85266,-0.35269 -1.8289,0.05411 -2.18025,0.9071c-0.35169,0.85266 0.05444,1.8289 0.9071,2.18025l2.07671,0.85634c-1.23708,2.57235 -2.83085,4.94163 -4.71486,7.04607l-2.98215,-2.98215c-0.6516,-0.65227 -1.70967,-0.65227 -2.36127,0c-0.65227,0.65194 -0.65227,1.70933 0,2.36127l2.98215,2.98215c-2.08106,1.8633 -4.42162,3.44304 -6.96157,4.67411l-0.86302,-2.07404c-0.35469,-0.85199 -1.33226,-1.25511 -2.18326,-0.90009c-0.85166,0.35436 -1.25445,1.3316 -0.90009,2.18326l0.86402,2.07638c-2.62545,0.92714 -5.41656,1.50059 -8.31621,1.66024v-4.23125c0,-0.92246 -0.74746,-1.66992 -1.66992,-1.66992c-0.92246,0 -1.66992,0.74746 -1.66992,1.66992v4.22757c-2.8402,-0.1533 -5.60225,-0.69469 -8.23372,-1.61181l0.86335,-2.09308c0.35169,-0.85266 -0.05444,-1.8289 -0.9071,-2.18025c-0.85233,-0.35269 -1.8289,0.05411 -2.18025,0.9071l-0.86168,2.08941c-2.62311,-1.26279 -4.95399,-2.84755 -7.05041,-4.71786l2.99183,-2.99183c0.65227,-0.65194 0.65227,-1.70933 0,-2.36127c-0.6516,-0.65227 -1.70967,-0.65227 -2.36127,0l-2.99684,2.99684c-1.89369,-2.10677 -3.46475,-4.45068 -4.68012,-6.96758l2.09442,-0.87137c0.85166,-0.35436 1.25445,-1.3316 0.90009,-2.18326c-0.35469,-0.85199 -1.3326,-1.25545 -2.18326,-0.90009l-2.09241,0.87036c-0.92914,-2.65017 -1.4889,-5.44662 -1.64521,-8.32289h4.23192c0.92246,0 1.66992,-0.74746 1.66992,-1.66992c0,-0.92246 -0.74746,-1.66992 -1.66992,-1.66992h-4.23091c0.15764,-2.86726 0.71974,-5.6283 1.62918,-8.22804l2.07905,0.85734c0.84565,0.35002 1.82656,-0.0491 2.18025,-0.9071c0.35169,-0.85266 -0.05444,-1.8289 -0.9071,-2.18025l-2.07671,-0.85634c1.23708,-2.57235 2.83085,-4.94163 4.71486,-7.04607l2.98215,2.98215c0.6516,0.65227 1.70967,0.65227 2.36127,0c0.65227,-0.65194 0.65227,-1.70933 0,-2.36127l-2.98215,-2.98215c2.08106,-1.8633 4.42162,-3.44304 6.96157,-4.67411l0.86302,2.07404c0.35736,0.85867 1.33961,1.25177 2.18326,0.90009c0.85166,-0.35436 1.25445,-1.3316 0.90009,-2.18326l-0.86402,-2.07638c2.62545,-0.92714 5.41656,-1.50059 8.31621,-1.66024v4.23091c0,0.92246 0.74746,1.66992 1.66992,1.66992c0.92246,0 1.66992,-0.74746 1.66992,-1.66992v-4.22691c2.79912,0.1533 5.51575,0.67298 8.23438,1.60914l-0.86402,2.09475c-0.35169,0.85266 0.05444,1.8289 0.9071,2.18025c0.84565,0.35002 1.82656,-0.0491 2.18025,-0.9071l0.86769,-2.1031c2.5984,1.23307 4.97837,2.81749 7.0808,4.69549l-3.0279,3.0279c-0.65227,0.65194 -0.65227,1.70933 0,2.36127c0.6516,0.65227 1.70967,0.65227 2.36127,0l3.02556,-3.02556c1.86964,2.09041 3.44638,4.43932 4.66877,6.98963zM31.22754,142.27734v-128.58398h91.8457v8.34961h-81.82617c-0.92213,0 -1.66992,0.74779 -1.66992,1.66992v118.56445zM42.91699,25.38281h90.17578v70.30839c-10.35251,-1.02633 -20.00433,2.74201 -26.84065,9.51989c-0.03741,0.03139 -0.07815,0.05745 -0.11355,0.09251c-0.0354,0.03507 -0.06145,0.07581 -0.09251,0.11322c-3.03258,3.05896 -5.47801,6.69973 -7.15461,10.7376c-0.00468,0.01069 -0.01136,0.01937 -0.01603,0.03006c-0.00468,0.01136 -0.00601,0.02304 -0.01002,0.0344c-4.90055,11.87582 -2.6692,26.22178 7.03304,36.07799h-62.98144z" fill="#071a2d"></path>
            <path d="M153.13184,40.41211c5.52477,0 10.01953,-4.49476 10.01953,-10.01953c0,-5.52477 -4.49476,-10.01953 -10.01953,-10.01953c-5.52477,0 -10.01953,4.49476 -10.01953,10.01953c0,5.52477 4.49476,10.01953 10.01953,10.01953zM153.13184,23.71289c3.68318,0 6.67969,2.99651 6.67969,6.67969c0,3.68318 -2.99651,6.67969 -6.67969,6.67969c-3.68318,0 -6.67969,-2.99651 -6.67969,-6.67969c0,-3.68318 2.99651,-6.67969 6.67969,-6.67969z" fill="#071a2d"></path>
        </g>
    </g>
</svg>