<svg width="62" height="57" viewBox="0 0 62 57" fill="none"
    xmlns="http://www.w3.org/2000/svg">
    <path d="M50.8912 41.2599V54.1502C50.8912 55.1999 49.9664 56.0502 48.8246 56.0502H13.1746C12.0327 56.0502 11.1079 55.1999 11.1079 54.1502V41.2599C11.1079 40.4168 11.7111 39.6734 12.5907 39.4371C16.5638 38.3672 20.8891 38.3985 24.5813 40.0926C26.2589 38.4968 26.0912 36.7756 26.0912 35.8116C21.4645 34.0422 18.2121 29.8468 18.2121 24.9531C18.2121 24.9531 18.2121 24.7738 18.2121 24.4627C16.4283 24.4627 14.9829 23.1339 14.9829 21.4939V10.0939C14.9829 8.32493 16.5432 6.8877 18.4704 6.8877C20.0307 3.30145 23.8089 0.950195 28.0094 0.950195H36.8715C42.5458 0.950195 47.1454 5.17888 47.1454 10.3956V21.4939C47.1454 23.1992 45.6419 24.5814 43.7871 24.5814C43.7871 30.0927 40.4076 34.0908 35.9079 35.8116C35.9079 36.7654 35.7369 38.4936 37.4179 40.0926C41.1446 38.3827 45.4812 38.3795 49.4136 39.4382C50.2906 39.6746 50.8912 40.4191 50.8912 41.2599L50.8912 41.2599Z" fill="#ECF0F1"/>
    <path d="M50.8912 41.2594V54.1497C50.8912 55.1991 49.966 56.0497 48.8246 56.0497H13.1746C12.0331 56.0497 11.1079 55.1991 11.1079 54.1497V41.2594C11.1079 40.4163 11.7111 39.6729 12.5907 39.4366C19.3146 37.6265 25.6194 39.0411 29.9779 44.3837C30.4535 44.986 31.4581 45.0707 32.0329 44.3683C36.2107 39.0727 42.7554 37.645 49.4132 39.4377C50.2911 39.6741 50.8912 40.4183 50.8912 41.2594V41.2594Z" fill="#ECF0F1"/>
    <path d="M47.1454 21.4939C47.1454 23.1992 45.6419 24.5814 43.7871 24.5814V18.8904C43.7871 17.9038 42.9666 17.0807 41.8972 16.9976C36.1382 16.5501 30.6127 14.8872 25.6951 12.1224C24.7648 11.5995 23.5507 11.8275 22.9272 12.6499C22.0079 13.8626 20.7877 14.8287 19.3498 15.479C18.649 15.796 18.2121 16.4581 18.2121 17.1761V24.4627C16.4283 24.4627 14.9829 23.1339 14.9829 21.4939C14.9829 20.3984 14.9829 11.2058 14.9829 10.0939C14.9829 8.32493 16.5432 6.8877 18.4704 6.8877C20.0307 3.30145 23.8089 0.950195 28.0094 0.950195H36.8715C42.5457 0.950195 47.1454 5.179 47.1454 10.3956C47.1454 11.6683 47.1454 19.76 47.1454 21.4939H47.1454Z" fill="#B9DCFF"/>
    <path d="M37.422 0.963231C42.2085 1.19551 42.0028 7.77806 37.2098 7.81748C36.047 7.82698 34.7163 7.83743 33.176 7.83743C29.7841 7.83743 26.6673 9.37049 24.7724 11.8488C24.0685 11.7977 23.3568 12.0827 22.9267 12.6492C21.9814 13.9006 20.7341 14.8537 19.35 15.479C18.6487 15.7961 18.2121 16.4575 18.2121 17.1759V24.4624C16.4283 24.4624 14.9829 23.1336 14.9829 21.4937V10.0937C14.9829 8.32466 16.5432 6.88743 18.4704 6.88743C20.0307 3.30118 23.8089 0.949929 28.0094 0.949929C37.686 0.949929 37.038 0.944583 37.422 0.963228L37.422 0.963231Z" fill="#ECF0F1"/>
    <path d="M36.1603 38.1663C32.8966 39.5051 29.0598 39.4872 25.8398 38.1663C26.1367 37.3154 26.0917 36.7255 26.0917 35.8115C29.1479 36.9811 32.707 37.0366 35.9084 35.8115C35.9084 36.7119 35.8616 37.3104 36.1603 38.1663Z" fill="#B9DCFF"/>
    <path d="M26.3822 35.9063C21.8826 34.2861 18.52 30.4747 18.2331 25.6368C18.2044 25.1819 18.2125 25.6354 18.2125 17.1766C18.2125 16.4601 18.6471 15.7964 19.3468 15.4805C20.3871 15.011 21.4416 15.6962 21.4416 16.6293V23.2902C21.4416 27.7006 24.025 31.3842 27.7088 33.3994C29.3079 34.2747 28.1157 36.5286 26.3822 35.9063Z" fill="#E8F3FF"/>
    <path d="M23.9136 42.7498C18.6295 44.4065 15.9422 49.2321 16.6787 54.3026C16.8131 55.2279 16.0307 56.0501 15.0153 56.0501H13.1746C12.0331 56.0501 11.1079 55.1995 11.1079 54.1501V41.2598C11.1079 40.4167 11.7111 39.6733 12.5907 39.437C16.3304 38.4302 20.4671 38.3774 24.099 39.8815C25.4896 40.4574 25.3572 42.2972 23.9136 42.7498V42.7498Z" fill="#E8F3FF"/>
    <path d="M14.7247 49.6078V53.8235C14.7247 55.0537 13.641 56.05 12.3028 56.05C10.1444 56.05 8.39551 54.4422 8.39551 52.4578V50.9735C8.39551 47.9307 12.2744 46.4325 14.0155 48.0332C14.4534 48.4358 14.7247 48.9927 14.7247 49.6078V49.6078Z" fill="#ECF0F1"/>
    <path d="M53.6041 50.9732V52.4576C53.6041 54.4419 51.8551 56.0498 49.6968 56.0498C48.3586 56.0498 47.2749 55.0535 47.2749 53.8232V49.6076C47.2749 48.2498 48.6561 46.8904 50.8916 47.552C52.4648 48.0164 53.6041 49.3725 53.6041 50.9732Z" fill="#ECF0F1"/>
    <path d="M49.2912 41.3981C42.1352 42.5341 36.9678 47.9891 37.319 55.0012C37.3476 55.5736 36.8452 56.0501 36.222 56.0501H32.0332V44.3687C36.1849 39.106 42.8797 37.5896 49.4397 39.4453C50.5286 39.7533 50.4139 41.2199 49.2912 41.3981H49.2912Z" fill="#B9DCFF"/>
    <path d="M13.6463 49.9412C12.1421 50.4035 10.9799 51.7033 10.979 53.395C10.9784 54.5927 9.17717 54.925 8.68452 53.8162C8.32828 53.0144 8.39571 52.5227 8.39571 50.9735C8.39571 47.9307 12.2747 46.4325 14.0157 48.0332C14.8577 48.8072 14.3814 49.7153 13.6463 49.9412H13.6463Z" fill="#E8F3FF"/>
    <path d="M50.9972 49.4006C49.9873 49.7109 49.3416 50.5559 49.3416 51.5078C49.3416 52.5118 49.3411 53.2827 49.3408 53.8767C49.34 55.0922 47.2749 55.217 47.2749 53.8235V49.6078C47.2749 48.2132 48.6992 46.9034 50.8916 47.5523C52.0941 47.9068 51.8921 49.1258 50.9972 49.4006V49.4006Z" fill="#E8F3FF"/>
    <path d="M12.3029 46.4312C9.57867 46.4312 7.3623 48.4689 7.3623 50.9734V52.4578C7.3623 54.9623 9.57867 57 12.3029 57C14.2081 57 15.7581 55.575 15.7581 53.8234V49.6078C15.7581 47.8562 14.2081 46.4312 12.3029 46.4312V46.4312ZM13.6915 53.8234C13.6915 54.5274 13.0686 55.1 12.3029 55.1C10.7182 55.1 9.42897 53.9147 9.42897 52.4578V50.9734C9.42897 49.5165 10.7182 48.3312 12.3029 48.3312C13.0686 48.3312 13.6915 48.9038 13.6915 49.6078V53.8234ZM51.9248 46.9213V41.2596C51.9248 40.0024 51.0113 38.8784 49.7035 38.5264C42.4843 36.5838 35.4142 38.2452 30.9998 44.0666C29.5881 42.205 27.932 40.8063 26.1411 39.8C26.6907 39.0026 27.021 38.0952 27.103 37.1436C35.9576 39.5398 44.8206 33.3968 44.8206 24.9523C44.8206 16.6698 44.8231 17.0932 44.8161 17.0179C44.7714 16.5391 44.3422 16.167 43.8222 16.1505C36.8673 15.9346 30.1886 13.9018 24.4848 10.2632C24.2297 10.1004 23.9086 10.0517 23.6101 10.1307C22.7795 10.3504 23.0734 10.9717 21.7749 12.4844C21.4213 12.8962 21.4978 13.4937 21.9459 13.8187C22.3937 14.1437 23.0437 14.0734 23.3972 13.6615C23.7294 13.2745 24.03 12.8642 24.2963 12.4345C29.8115 15.7233 36.1337 17.6421 42.7541 18.005V24.9521C42.7541 30.9107 37.4813 35.7583 30.9999 35.7583C24.5186 35.7583 19.2458 30.9107 19.2458 24.9521V15.9125C19.2458 15.3879 18.7831 14.9625 18.2124 14.9625C17.6418 14.9625 17.1791 15.3879 17.1791 15.9125V23.274C16.4881 22.9337 16.0166 22.2636 16.0166 21.4937V10.0937C16.0166 8.8496 17.1175 7.83749 18.4708 7.83749C18.8933 7.83749 19.2733 7.60095 19.4302 7.2403C20.8415 3.99617 24.2093 1.9 28.0099 1.9H36.8717C41.967 1.9 46.1123 5.71104 46.1123 10.3955V21.4937C46.1123 22.0184 46.575 22.4437 47.1457 22.4437C47.7163 22.4437 48.179 22.0184 48.179 21.4937V10.3955C48.179 4.66343 43.1065 0 36.8716 0H28.0097C23.5766 0 19.6246 2.33106 17.7688 5.98749C15.6082 6.2985 13.9498 8.02144 13.9498 10.0937V21.4937C13.9498 23.3287 15.3289 24.8724 17.1841 25.2965C17.3267 30.2023 20.5088 34.4231 25.0582 36.423C25.0582 37.2768 24.9458 38.0582 24.2963 38.9199C19.6578 37.0755 14.9629 37.8088 12.296 38.5264C10.9883 38.8784 10.0748 40.0022 10.0748 41.2596V43.3437C10.0748 43.8684 10.5375 44.2937 11.1081 44.2937C11.6788 44.2937 12.1415 43.8684 12.1415 43.3437V41.2596C12.1415 40.8405 12.4439 40.4664 12.8767 40.3499C19.7612 38.4974 26.205 40.2932 29.9665 46.0952V56.05C29.9665 56.5746 30.4292 57 30.9998 57C31.5705 57 32.0332 56.5746 32.0332 56.05V46.0952C35.7924 40.2965 42.2355 38.4964 49.1229 40.3499C49.5558 40.4664 49.8582 40.8405 49.8582 41.2596V46.435C47.7685 46.373 46.2415 47.8824 46.2415 49.6078V53.8234C46.2415 55.575 47.7915 57 49.6967 57C52.421 57 54.6373 54.9623 54.6373 52.4578V50.9734C54.6373 49.2056 53.5324 47.6716 51.9248 46.9213H51.9248ZM52.5706 52.4578C52.5706 53.9147 51.2814 55.1 49.6967 55.1C48.931 55.1 48.3081 54.5274 48.3081 53.8234V49.6078C48.3081 48.9038 48.931 48.3312 49.6967 48.3312C51.2814 48.3312 52.5706 49.5165 52.5706 50.9734V52.4578Z" fill="#071A2D"/>
</svg>
