<svg width="50" height="50" viewBox="0 0 50 50" fill="none"
    xmlns="http://www.w3.org/2000/svg">
    <path d="M49.1668 5.93734V38.0207C49.1668 38.4811 48.7939 38.854 48.3335 38.854H3.85433C3.39391 38.854 3.021 38.4811 3.021 38.0207V5.93734C3.021 5.47692 3.39391 5.104 3.85433 5.104H48.3335C48.7939 5.104 49.1668 5.47692 49.1668 5.93734V5.93734Z" fill="#E6F0FC"/>
    <path d="M49.1668 5.93734V38.0207C49.1668 38.4809 48.7937 38.854 48.3335 38.854H3.85433C3.39412 38.854 3.021 38.4809 3.021 38.0207V34.687C3.021 33.5565 4.12464 32.7481 5.19871 33.1009C22.322 38.7264 41.1554 28.7696 38.6231 6.96942C38.5078 5.97702 39.2781 5.104 40.2772 5.104H48.3335C48.7937 5.104 49.1668 5.47713 49.1668 5.93734V5.93734Z" fill="#D1E7FF"/>
    <path d="M49.1667 33.8538V38.0205C49.1667 38.4807 48.7935 38.8538 48.3333 38.8538H39.2708C38.8106 38.8538 38.4375 38.4807 38.4375 38.0205V35.5205C38.4375 34.1398 39.5568 33.0205 40.9375 33.0205H48.3333C48.7935 33.0205 49.1667 33.3936 49.1667 33.8538V33.8538Z" fill="#E6F0FC"/>
    <path d="M29.4028 28.5342C28.7806 29.0851 17.9812 38.6482 17.3955 39.1665V43.9582C17.3955 44.4184 17.0224 44.7915 16.5622 44.7915H1.66634C1.20613 44.7915 0.833008 44.4184 0.833008 43.9582V35.4165C0.833008 33.1076 2.70759 31.2498 4.99967 31.2498H17.3955L26.6538 24.9894C27.6086 24.3451 28.8957 24.5248 29.6351 25.4071C30.4174 26.3394 30.3153 27.7259 29.4028 28.5342V28.5342Z" fill="#E6F0FC"/>
    <path d="M11.5621 28.2283C14.0359 28.2283 16.0413 26.2229 16.0413 23.7491C16.0413 21.2754 14.0359 19.27 11.5621 19.27C9.08838 19.27 7.08301 21.2754 7.08301 23.7491C7.08301 26.2229 9.08838 28.2283 11.5621 28.2283Z" fill="#D1E7FF"/>
    <path d="M13.4234 21.8061C11.4861 22.0911 9.90104 23.6682 9.61625 25.6086C9.47229 26.5901 8.17937 26.8484 7.6826 25.9899C7.26844 25.2741 7.04656 24.4332 7.08791 23.5379C7.24021 20.2334 10.8871 18.1798 13.8058 19.8722C14.6644 20.3701 14.4054 21.6616 13.4234 21.8061H13.4234Z" fill="#E6F0FC"/>
    <path d="M28.5993 24.7126C29.5547 25.0219 29.6912 26.3004 28.8545 26.8556C28.8425 26.8636 19.5949 33.1168 19.583 33.1248H7.18718C4.89655 33.1248 3.02051 34.9812 3.02051 37.2915V43.9581C3.02051 44.4184 2.64739 44.7915 2.18718 44.7915H1.66634C1.20613 44.7915 0.833008 44.4184 0.833008 43.9581V35.4165C0.833008 33.1076 2.70759 31.2498 4.99967 31.2498H17.3955L26.6538 24.9894C27.2673 24.5755 27.9782 24.5117 28.5993 24.7126H28.5993Z" fill="#D1E7FF"/>
    <path d="M49.1667 33.8538V34.2705C49.1667 34.7307 48.7935 35.1038 48.3333 35.1038H43.0208C41.6401 35.1038 40.5208 36.2231 40.5208 37.6038V38.0205C40.5208 38.4807 40.1477 38.8538 39.6875 38.8538H39.2708C38.8106 38.8538 38.4375 38.4807 38.4375 38.0205V35.5205C38.4375 34.1398 39.5568 33.0205 40.9375 33.0205H48.3333C48.7935 33.0205 49.1667 33.3936 49.1667 33.8538V33.8538Z" fill="#D1E7FF"/>
    <path d="M50 5.10385V38.8538C50 39.3141 49.6269 39.6872 49.1667 39.6872H25C24.5398 39.6872 24.1667 39.3141 24.1667 38.8538C24.1667 38.3936 24.5398 38.0205 25 38.0205H37.6042V35.5205C37.6042 33.6825 39.0995 32.1872 40.9375 32.1872H43.8021C44.2623 32.1872 44.6354 32.5603 44.6354 33.0205C44.6354 33.4807 44.2623 33.8538 43.8021 33.8538H40.9375C40.0185 33.8538 39.2708 34.6016 39.2708 35.5205V38.0205H48.3333V5.93718H3.85417V25.6247C3.85417 26.0849 3.48104 26.458 3.02083 26.458C2.56062 26.458 2.1875 26.0849 2.1875 25.6247V5.10384C2.1875 4.64363 2.56062 4.27051 3.02083 4.27051H49.1667C49.6269 4.27051 50 4.64363 50 5.10384L50 5.10385ZM30.2742 24.8711C29.2565 23.6577 27.4998 23.4117 26.1878 24.2987L17.1405 30.4164H5C2.24302 30.4164 0 32.6593 0 35.4164V44.7914C0 45.2516 0.373125 45.6247 0.833334 45.6247C1.29354 45.6247 1.66667 45.2516 1.66667 44.7914V35.4164C1.66667 33.5783 3.16198 32.083 5 32.083H17.3958C17.7604 32.083 17.0484 32.4905 27.1214 25.6793C27.7236 25.272 28.53 25.385 28.9971 25.942C29.4932 26.5335 29.4291 27.3978 28.851 27.9096L16.8433 38.5425C16.6648 38.7006 16.5625 38.9278 16.5625 39.1664V44.7914C16.5625 45.2516 16.9356 45.6247 17.3958 45.6247C17.856 45.6247 18.2292 45.2516 18.2292 44.7914V39.5416L29.9559 29.1574C31.2152 28.0425 31.3549 26.1597 30.2742 24.8711L30.2742 24.8711ZM11.5625 18.4372C14.4919 18.4372 16.875 20.8204 16.875 23.7497C16.875 26.679 14.4919 29.0622 11.5625 29.0622C8.63312 29.0622 6.25 26.679 6.25 23.7497C6.25 20.8204 8.63312 18.4372 11.5625 18.4372V18.4372ZM11.5625 20.1038C9.55219 20.1038 7.91666 21.7394 7.91666 23.7497C7.91666 25.76 9.55219 27.3955 11.5625 27.3955C13.5728 27.3955 15.2083 25.76 15.2083 23.7497C15.2083 21.7394 13.5728 20.1038 11.5625 20.1038V20.1038ZM5.72916 38.333C5.26896 38.333 4.89583 38.7061 4.89583 39.1664V44.8955C4.89583 45.3557 5.26896 45.7289 5.72916 45.7289C6.18937 45.7289 6.5625 45.3557 6.5625 44.8955V39.1664C6.5625 38.7061 6.18937 38.333 5.72916 38.333ZM40.2083 14.2705H15.2083C14.7481 14.2705 14.375 14.6436 14.375 15.1038C14.375 15.5641 14.7481 15.9372 15.2083 15.9372H40.2083C40.6685 15.9372 41.0417 15.5641 41.0417 15.1038C41.0417 14.6436 40.6685 14.2705 40.2083 14.2705ZM40.2083 21.8747H34.2708C33.8106 21.8747 33.4375 22.2478 33.4375 22.708C33.4375 23.1682 33.8106 23.5414 34.2708 23.5414H40.2083C40.6685 23.5414 41.0417 23.1682 41.0417 22.708C41.0417 22.2478 40.6685 21.8747 40.2083 21.8747Z" fill="#071A2D"/>
</svg>
