<svg width="500" height="373" viewBox="0 0 500 373" fill="none"
    xmlns="http://www.w3.org/2000/svg">
    <path d="M500 327.4H0V327.65H500V327.4Z" fill="#EBEBEB"/>
    <path d="M449.9 343.49H416.78V343.74H449.9V343.49Z" fill="#EBEBEB"/>
    <path d="M331.22 346.21H322.53V346.46H331.22V346.21Z" fill="#EBEBEB"/>
    <path d="M415.78 334.21H396.59V334.46H415.78V334.21Z" fill="#EBEBEB"/>
    <path d="M95.65 335.89H52.46V336.14H95.65V335.89Z" fill="#EBEBEB"/>
    <path d="M110.89 335.89H104.56V336.14H110.89V335.89Z" fill="#EBEBEB"/>
    <path d="M225.15 340.11H131.47V340.36H225.15V340.11Z" fill="#EBEBEB"/>
    <path d="M237 282.8H43.91C42.3973 282.797 40.9475 282.195 39.8788 281.124C38.8102 280.054 38.21 278.603 38.21 277.09V5.66C38.2231 4.15603 38.8292 2.71798 39.8964 1.65822C40.9637 0.598458 42.4059 0.00257639 43.91 0H237C238.514 0 239.967 0.601588 241.038 1.67242C242.108 2.74325 242.71 4.19561 242.71 5.71V277.09C242.71 278.604 242.108 280.057 241.038 281.128C239.967 282.198 238.514 282.8 237 282.8V282.8ZM43.91 0.200001C42.4636 0.20265 41.0774 0.779065 40.0556 1.80273C39.0338 2.82639 38.46 4.21365 38.46 5.66V277.09C38.46 278.536 39.0338 279.924 40.0556 280.947C41.0774 281.971 42.4636 282.547 43.91 282.55H237C238.447 282.547 239.834 281.971 240.858 280.948C241.881 279.924 242.457 278.537 242.46 277.09V5.66C242.457 4.21273 241.881 2.82549 240.858 1.80212C239.834 0.77874 238.447 0.202644 237 0.200001H43.91Z" fill="#EBEBEB"/>
    <path d="M453.31 282.8H260.21C258.696 282.797 257.246 282.195 256.175 281.125C255.105 280.054 254.503 278.604 254.5 277.09V5.66C254.516 4.15511 255.124 2.71708 256.193 1.65759C257.262 0.598109 258.705 0.00254829 260.21 0H453.31C454.812 0.0052045 456.252 0.602249 457.317 1.66173C458.382 2.72121 458.987 4.15775 459 5.66V277.09C459 278.601 458.401 280.05 457.335 281.121C456.268 282.191 454.821 282.795 453.31 282.8V282.8ZM260.21 0.200001C258.763 0.202644 257.375 0.77874 256.352 1.80212C255.329 2.82549 254.753 4.21273 254.75 5.66V277.09C254.753 278.537 255.329 279.924 256.352 280.948C257.375 281.971 258.763 282.547 260.21 282.55H453.31C454.757 282.547 456.145 281.971 457.168 280.948C458.191 279.924 458.767 278.537 458.77 277.09V5.66C458.767 4.21273 458.191 2.82549 457.168 1.80212C456.145 0.77874 454.757 0.202644 453.31 0.200001H260.21Z" fill="#EBEBEB"/>
    <path d="M99.27 51.3202L136.06 29.9102H164.41L201.82 50.3002V189.03H99.27V51.3202Z" fill="#E0E0E0"/>
    <path d="M202.87 189H99.27V51.3199L100.33 50.3199C113.955 37.1933 132.151 29.8811 151.07 29.9299V29.9299C169.992 29.8827 188.191 37.1945 201.82 50.3199L202.87 51.3199V189ZM106.15 182.12H196V54.2699C183.743 43.0206 167.712 36.7791 151.075 36.7791C134.438 36.7791 118.407 43.0206 106.15 54.2699V182.12Z" fill="#FAFAFA"/>
    <path d="M148.5 182.98H153.65V136.94H197.3V131.79H153.65V84.7001H197.3V79.5501H153.65V35.8901H148.5V79.5501H104.84V84.7001H148.5V131.79H104.84V136.94H148.5V182.98Z" fill="#F0F0F0"/>
    <path d="M206.31 192.46H95.8401V49.9102L96.8401 48.9102C111.234 34.5488 130.737 26.4834 151.07 26.4834C171.403 26.4834 190.906 34.5488 205.3 48.9102L206.3 49.9102L206.31 192.46ZM102.71 185.59H199.43V52.7802C186.419 40.3095 169.093 33.3473 151.07 33.3473C133.047 33.3473 115.722 40.3095 102.71 52.7802V185.59Z" fill="#F0F0F0"/>
    <path d="M383.51 74.9201C383.51 74.9201 384.51 68.3201 379.7 64.0901C374.89 59.8601 375.31 57.3401 376.7 57.0201C378.09 56.7001 379.34 60.9201 381.46 62.0801C381.46 62.0801 381.52 56.0801 379.38 53.8301C377.24 51.5801 376.1 45.8901 378.14 45.8301C380.18 45.7701 380.4 49.2301 380.82 51.7101C381.24 54.1901 383.52 57.7101 383.52 57.7101C383.52 57.7101 383.97 52.3201 385.36 50.0901C386.75 47.8601 383.04 42.8001 384.47 40.5701C385.9 38.3401 388.47 42.5701 388.23 47.3401C387.99 52.1101 384.84 57.1801 385.58 62.1501C385.58 62.1501 386.98 58.6601 388.24 58.3401C389.5 58.0201 390.77 55.7201 391.61 54.8601C392.45 54.0001 393.52 56.9701 391.61 59.7201C389.7 62.4701 384.84 69.8301 385.61 75.7201L383.51 74.9201Z" fill="#E6E6E6"/>
    <path d="M380.64 71.9199L379.06 81.8099C378.94 82.5317 378.98 83.2711 379.177 83.9759C379.374 84.6806 379.723 85.3336 380.2 85.8886C380.676 86.4437 381.269 86.8873 381.936 87.1882C382.603 87.489 383.328 87.6398 384.06 87.6299H385.74C386.472 87.6398 387.197 87.489 387.864 87.1882C388.531 86.8873 389.123 86.4437 389.6 85.8886C390.077 85.3336 390.426 84.6806 390.623 83.9759C390.82 83.2711 390.86 82.5317 390.74 81.8099L389.17 71.9199H380.64Z" fill="#E6E6E6"/>
    <path d="M404.47 83.98H293.07V89.7H404.47V83.98Z" fill="#E0E0E0"/>
    <path d="M303.11 62.8799H298.2V83.9799H303.11V62.8799Z" fill="#EBEBEB"/>
    <path d="M326.84 62.8799H321.93V83.9799H326.84V62.8799Z" fill="#EBEBEB"/>
    <path d="M353.781 62.3447L348.943 63.1787L352.527 83.9721L357.366 83.138L353.781 62.3447Z" fill="#EBEBEB"/>
    <path d="M309.19 65.6602H304.28V83.9801H309.19V65.6602Z" fill="#EBEBEB"/>
    <path d="M320.47 65.6602H315.56V83.9801H320.47V65.6602Z" fill="#EBEBEB"/>
    <path d="M348.95 65.6602H344.04V83.9801H348.95V65.6602Z" fill="#EBEBEB"/>
    <path d="M333.283 65.0134L328.49 66.0786L332.465 83.9623L337.258 82.8971L333.283 65.0134Z" fill="#EBEBEB"/>
    <path d="M313.43 61.8301H310.98V83.9801H313.43V61.8301Z" fill="#EBEBEB"/>
    <path d="M342.62 61.8301H340.17V83.9801H342.62V61.8301Z" fill="#EBEBEB"/>
    <path d="M293.08 132.44H404.48V126.72L293.08 126.72V132.44Z" fill="#E0E0E0"/>
    <path d="M394.44 126.71H399.35V105.61H394.44V126.71Z" fill="#EBEBEB"/>
    <path d="M370.7 126.71H375.61V105.61H370.7V126.71Z" fill="#EBEBEB"/>
    <path d="M340.179 125.873L345.017 126.707L348.601 105.913L343.763 105.079L340.179 125.873Z" fill="#EBEBEB"/>
    <path d="M388.35 126.71H393.26V108.39H388.35V126.71Z" fill="#EBEBEB"/>
    <path d="M377.07 126.71H381.98V108.39H377.07V126.71Z" fill="#EBEBEB"/>
    <path d="M348.6 126.71H353.51V108.39H348.6V126.71Z" fill="#EBEBEB"/>
    <path d="M360.294 125.625L365.087 126.69L369.062 108.807L364.269 107.742L360.294 125.625Z" fill="#EBEBEB"/>
    <path d="M384.12 126.72H386.57V104.57H384.12V126.72Z" fill="#EBEBEB"/>
    <path d="M354.93 126.72H357.38V104.57H354.93V126.72Z" fill="#EBEBEB"/>
    <path d="M303.77 126.52H327.68V110.01H303.77V126.52Z" fill="#EBEBEB"/>
    <path d="M250 372.56C357.083 372.56 443.89 367.492 443.89 361.24C443.89 354.988 357.083 349.92 250 349.92C142.918 349.92 56.1101 354.988 56.1101 361.24C56.1101 367.492 142.918 372.56 250 372.56Z" fill="#F5F5F5"/>
    <path d="M98.49 315.79C98.49 315.79 106.25 306.56 111.21 310.86C116.17 315.16 113.66 324.3 107.94 324.59C104.548 324.771 101.201 323.747 98.49 321.7V315.79Z" fill="#38B6FF"/>
    <path opacity="0.1" d="M98.49 315.79C98.49 315.79 106.25 306.56 111.21 310.86C116.17 315.16 113.66 324.3 107.94 324.59C104.548 324.771 101.201 323.747 98.49 321.7V315.79Z" fill="white"/>
    <path d="M66.8601 292.38C66.8601 292.38 60.3501 285.56 56.3201 286.72C52.2901 287.88 52.7101 304.17 65.2101 297.58L66.8601 292.38Z" fill="#38B6FF"/>
    <path opacity="0.2" d="M66.8601 292.38C66.8601 292.38 60.3501 285.56 56.3201 286.72C52.2901 287.88 52.7101 304.17 65.2101 297.58L66.8601 292.38Z" fill="white"/>
    <path d="M90.1201 343.28C90.1201 343.28 111.52 314 94.1201 308.07C76.7201 302.14 73.6501 331.62 78.6201 339.83C83.5901 348.04 90.1201 343.28 90.1201 343.28Z" fill="#38B6FF"/>
    <path d="M80.2 283.34C80.2 283.34 66.92 252.52 86.59 251.59C106.26 250.66 108.39 282.15 85.76 286.72L80.2 283.34Z" fill="#38B6FF"/>
    <path opacity="0.2" d="M90.1201 343.28C90.1201 343.28 111.52 314 94.1201 308.07C76.7201 302.14 73.6501 331.62 78.6201 339.83C83.5901 348.04 90.1201 343.28 90.1201 343.28Z" fill="white"/>
    <path opacity="0.2" d="M80.2 283.34C80.2 283.34 66.92 252.52 86.59 251.59C106.26 250.66 108.39 282.15 85.76 286.72L80.2 283.34Z" fill="white"/>
    <path d="M84.91 308.58C84.91 308.58 91.36 281.36 78.91 279.19C66.46 277.02 54.31 301.61 80 314C80 314 84.37 311.24 84.91 308.58Z" fill="#38B6FF"/>
    <path opacity="0.1" d="M84.91 308.58C84.91 308.58 91.36 281.36 78.91 279.19C66.46 277.02 54.31 301.61 80 314C80 314 84.37 311.24 84.91 308.58Z" fill="white"/>
    <path d="M105.52 339.13H69.6001L72.6001 362.11H102.52L105.52 339.13Z" fill="#38B6FF"/>
    <path d="M86.8401 281.14C87.648 280.317 88.4124 279.453 89.1301 278.55C89.8681 277.676 90.5559 276.762 91.1901 275.81C92.4703 273.93 93.5464 271.918 94.4001 269.81C95.2267 267.707 95.7128 265.486 95.8401 263.23V261.53C95.8401 260.97 95.7001 260.4 95.6501 259.84C95.6501 259.55 95.6501 259.26 95.5601 258.98L95.3601 258.15C95.2201 257.59 95.0901 257.03 94.9701 256.46C95.9822 258.58 96.5278 260.892 96.5701 263.24C96.5977 265.611 96.1629 267.965 95.2901 270.17C94.4121 272.354 93.2268 274.401 91.7701 276.25C90.3598 278.099 88.7008 279.745 86.8401 281.14Z" fill="#38B6FF"/>
    <path d="M91.5502 254.69C89.4964 255.491 87.6274 256.702 86.0576 258.249C84.4878 259.796 83.2501 261.648 82.4202 263.69L81.8502 265.23C81.6802 265.75 81.5902 266.3 81.4502 266.82C81.198 267.894 81.011 268.983 80.8902 270.08C80.7802 271.18 80.7802 272.3 80.7302 273.41C80.6802 274.52 80.8202 275.65 80.8202 276.78C80.5902 275.68 80.4302 274.56 80.2402 273.44C80.0502 272.32 80.1102 271.17 80.1302 270.03C80.1914 267.727 80.6551 265.453 81.5002 263.31C82.8215 260.075 85.2396 257.41 88.3302 255.78C89.349 255.272 90.4323 254.905 91.5502 254.69Z" fill="#38B6FF"/>
    <path d="M76.5101 281.14C75.1708 281.83 73.9786 282.774 73.0001 283.92C72.014 285.033 71.2351 286.313 70.7001 287.7C70.1574 289.073 69.8205 290.519 69.7001 291.99C69.6701 292.356 69.6701 292.724 69.7001 293.09C69.7001 293.45 69.7001 293.81 69.7001 294.17C69.7935 294.892 69.9474 295.604 70.1601 296.3C71.0896 299.134 72.5188 301.779 74.3801 304.11C75.2796 305.322 76.2444 306.483 77.2701 307.59C78.2701 308.73 79.3401 309.8 80.4301 310.86C77.9692 309.045 75.7364 306.94 73.7801 304.59C72.7842 303.412 71.8815 302.158 71.0801 300.84C70.2861 299.5 69.655 298.07 69.2001 296.58C68.9774 295.825 68.8201 295.052 68.7301 294.27C68.7101 293.874 68.7101 293.477 68.7301 293.08C68.7146 292.686 68.7347 292.291 68.7901 291.9C68.9466 290.344 69.3553 288.825 70.0001 287.4C70.6139 285.976 71.5059 284.689 72.6238 283.614C73.7417 282.539 75.0629 281.698 76.5101 281.14Z" fill="#38B6FF"/>
    <path d="M80.2001 283.34C80.0401 284.39 79.8701 285.43 79.7901 286.48C79.6591 287.518 79.5923 288.563 79.5901 289.61C79.5674 290.64 79.631 291.67 79.7801 292.69C79.8854 293.676 80.2027 294.628 80.7101 295.48C81.0094 295.943 81.2735 296.427 81.5001 296.93C81.7097 297.439 81.8769 297.964 82.0001 298.5C82.247 299.559 82.381 300.642 82.4001 301.73C82.4532 303.864 82.2211 305.997 81.7101 308.07C81.7101 307.01 81.8001 305.96 81.7801 304.91C81.7905 303.864 81.7404 302.819 81.6301 301.78C81.543 299.734 80.9337 297.744 79.8601 296C79.299 295.022 78.9577 293.933 78.8601 292.81C78.7452 291.73 78.7452 290.64 78.8601 289.56C79.034 287.437 79.4844 285.346 80.2001 283.34V283.34Z" fill="#38B6FF"/>
    <path d="M88.93 310.86C88.464 311.139 88.0754 311.531 87.8 312C87.5202 312.469 87.2794 312.961 87.08 313.47C86.6471 314.49 86.2862 315.539 86 316.61C85.42 318.74 84.91 320.88 84.47 323.05C84.03 325.22 83.62 327.39 83.2 329.56C82.99 330.65 82.8 331.74 82.62 332.84C82.44 333.94 82.25 335.02 82.09 336.13C82.0365 333.898 82.1535 331.664 82.44 329.45C82.68 327.23 83.05 325.03 83.49 322.85C83.9329 320.655 84.5277 318.493 85.27 316.38C85.6473 315.316 86.0984 314.281 86.62 313.28C86.9131 312.786 87.2476 312.317 87.62 311.88C87.9492 311.421 88.4041 311.066 88.93 310.86V310.86Z" fill="#38B6FF"/>
    <path d="M95.0001 311.81C95.9284 313.695 96.5303 315.724 96.7801 317.81C97.0452 319.912 96.9642 322.044 96.5401 324.12C96.4503 324.643 96.3199 325.158 96.1501 325.66C95.9901 326.17 95.8601 326.66 95.6601 327.17C94.8538 329.128 93.7397 330.944 92.3601 332.55C92.0242 332.949 91.6563 333.321 91.2601 333.66C90.8801 334.03 90.5001 334.38 90.1101 334.72C91.4319 333.147 92.5818 331.437 93.5401 329.62C94.4902 327.832 95.1645 325.91 95.5401 323.92C95.9488 321.948 96.0968 319.931 95.9801 317.92C95.8802 315.853 95.5515 313.804 95.0001 311.81V311.81Z" fill="#38B6FF"/>
    <path d="M61.8101 295.71C61.2358 295.94 60.6175 296.039 60.0001 296C59.3822 295.975 58.7733 295.843 58.2001 295.61C57.6232 295.361 57.1078 294.989 56.6901 294.52C56.2728 294.058 55.9984 293.485 55.9001 292.87C56.3113 293.257 56.749 293.614 57.2101 293.94C57.6502 294.231 58.1154 294.482 58.6001 294.69C59.6485 295.095 60.7204 295.436 61.8101 295.71V295.71Z" fill="#38B6FF"/>
    <path d="M63.1401 291.21L61.5501 290.47C61.0509 290.236 60.5323 290.045 60.0001 289.9C59.507 289.752 58.9948 289.678 58.4801 289.68C57.9193 289.729 57.3677 289.854 56.8401 290.05C57.1888 289.506 57.721 289.105 58.3401 288.92C58.9742 288.74 59.646 288.74 60.2801 288.92C60.8844 289.1 61.4482 289.396 61.9401 289.79C62.4386 290.171 62.8482 290.655 63.1401 291.21V291.21Z" fill="#38B6FF"/>
    <path d="M102 317.16C102.366 316.391 102.852 315.686 103.44 315.07C104.019 314.43 104.694 313.883 105.44 313.45C106.213 312.969 107.111 312.729 108.02 312.76C108.468 312.778 108.906 312.896 109.302 313.105C109.699 313.314 110.043 313.61 110.31 313.97C109.612 313.606 108.822 313.457 108.04 313.54C107.29 313.651 106.572 313.917 105.93 314.32C104.559 315.179 103.246 316.128 102 317.16Z" fill="#38B6FF"/>
    <path d="M102 321.7C103.924 321.671 105.844 321.527 107.75 321.27C108.661 321.143 109.543 320.862 110.36 320.44C111.184 320.007 111.831 319.299 112.19 318.44C112.183 318.964 112.053 319.479 111.809 319.942C111.566 320.406 111.217 320.806 110.79 321.11C109.944 321.727 108.958 322.126 107.92 322.27C106.928 322.427 105.92 322.461 104.92 322.37C103.92 322.284 102.937 322.058 102 321.7V321.7Z" fill="#38B6FF"/>
    <g opacity="0.4">
        <path opacity="0.4" d="M105.52 339.13H69.6001L72.6001 362.11H102.52L105.52 339.13Z" fill="black"/>
    </g>
    <path d="M263.08 55.8201V332.29C263.08 332.865 262.966 333.434 262.744 333.965C262.522 334.495 262.197 334.977 261.788 335.38C261.378 335.784 260.893 336.103 260.359 336.317C259.826 336.532 259.255 336.638 258.68 336.63H120.68C120.169 336.636 119.661 336.54 119.187 336.348C118.713 336.155 118.283 335.871 117.92 335.51C117.736 335.332 117.571 335.134 117.43 334.92C116.979 334.249 116.742 333.458 116.75 332.65V55.4601C116.715 54.5333 117.049 53.6305 117.679 52.9499C118.309 52.2692 119.183 51.8665 120.11 51.8301H159.3C159.707 51.8314 160.107 51.9272 160.47 52.1101C160.596 52.1627 160.714 52.2335 160.82 52.3201C161.04 52.4766 161.239 52.6615 161.41 52.8701C161.581 53.0888 161.719 53.3314 161.82 53.5901L163.45 57.5901V57.6801C163.549 57.9001 163.674 58.1081 163.82 58.3001C164.076 58.6119 164.398 58.8632 164.763 59.0361C165.128 59.2089 165.526 59.2991 165.93 59.3001H214C214.544 59.2968 215.074 59.1314 215.523 58.825C215.972 58.5185 216.319 58.0851 216.52 57.5801L218.15 53.5801C218.347 53.068 218.691 52.6262 219.14 52.3109C219.589 51.9957 220.122 51.8213 220.67 51.8101H259.29C260.316 51.864 261.282 52.3105 261.987 53.057C262.693 53.8035 263.084 54.7929 263.08 55.8201V55.8201Z" fill="#38B6FF"/>
    <path d="M263.08 55.8201V71.1501H116.78V55.4601C116.745 54.5333 117.079 53.6305 117.709 52.9499C118.339 52.2692 119.213 51.8665 120.14 51.8301H159.33C159.737 51.8314 160.137 51.9272 160.5 52.1101C160.626 52.1627 160.744 52.2335 160.85 52.3201C161.07 52.4766 161.269 52.6615 161.44 52.8701C161.611 53.0888 161.749 53.3314 161.85 53.5901L163.48 57.5901V57.6801C163.579 57.9001 163.704 58.1081 163.85 58.3001C164.106 58.6119 164.429 58.8632 164.793 59.0361C165.158 59.2089 165.556 59.2991 165.96 59.3001H214C214.544 59.2968 215.074 59.1314 215.523 58.825C215.972 58.5185 216.319 58.0851 216.52 57.5801L218.15 53.5801C218.347 53.068 218.691 52.6262 219.14 52.3109C219.589 51.9957 220.122 51.8213 220.67 51.8101H259.29C260.316 51.864 261.282 52.3105 261.987 53.057C262.693 53.8035 263.084 54.7929 263.08 55.8201V55.8201Z" fill="#263238"/>
    <path d="M116.78 323.5H263.08V332.29C263.08 332.865 262.966 333.434 262.744 333.965C262.522 334.495 262.197 334.976 261.788 335.38C261.378 335.784 260.893 336.102 260.359 336.317C259.826 336.532 259.255 336.638 258.68 336.63H120.68C120.169 336.636 119.661 336.54 119.187 336.348C118.714 336.155 118.283 335.871 117.92 335.51C117.736 335.332 117.571 335.134 117.43 334.92C116.979 334.249 116.742 333.458 116.75 332.65L116.78 323.5Z" fill="#263238"/>
    <path opacity="0.3" d="M263.08 71.1499H116.78V323.5H263.08V71.1499Z" fill="white"/>
    <path d="M125.75 186H126.75V191.59H125.75V186Z" fill="white"/>
    <path d="M132.41 189.12V191.56H131.41V189.25C131.41 188.49 131.03 188.12 130.41 188.12C130.242 188.11 130.074 188.136 129.918 188.199C129.762 188.262 129.622 188.358 129.508 188.482C129.394 188.605 129.309 188.753 129.259 188.913C129.209 189.074 129.196 189.244 129.22 189.41V191.56H128.22V187.29H129.17V187.85C129.356 187.649 129.584 187.49 129.838 187.386C130.092 187.283 130.366 187.236 130.64 187.25C130.886 187.232 131.133 187.268 131.363 187.357C131.593 187.446 131.8 187.585 131.969 187.764C132.139 187.944 132.266 188.158 132.343 188.393C132.419 188.627 132.442 188.876 132.41 189.12V189.12Z" fill="white"/>
    <path d="M136.26 191.33C135.969 191.536 135.617 191.638 135.26 191.62C135.064 191.645 134.864 191.626 134.676 191.563C134.488 191.5 134.317 191.395 134.176 191.257C134.034 191.118 133.926 190.949 133.859 190.763C133.792 190.576 133.769 190.377 133.79 190.18V188.13H133.08V187.33H133.79V186.33H134.79V187.33H136V188.13H134.85V190.13C134.838 190.214 134.844 190.299 134.87 190.379C134.895 190.46 134.938 190.533 134.996 190.595C135.053 190.657 135.124 190.704 135.203 190.735C135.281 190.765 135.366 190.777 135.45 190.77C135.651 190.772 135.847 190.708 136.01 190.59L136.26 191.33Z" fill="white"/>
    <path d="M139.55 187.25V188.2H139.32C139.147 188.188 138.974 188.215 138.812 188.278C138.651 188.342 138.506 188.44 138.387 188.566C138.269 188.693 138.18 188.844 138.126 189.009C138.073 189.174 138.057 189.348 138.08 189.52V191.59H137.08V187.32H138V187.95C138.173 187.706 138.407 187.513 138.68 187.39C138.952 187.267 139.253 187.218 139.55 187.25V187.25Z" fill="white"/>
    <path d="M140 189.43C139.982 188.975 140.101 188.526 140.34 188.139C140.58 187.752 140.93 187.446 141.346 187.26C141.761 187.073 142.222 187.016 142.671 187.094C143.119 187.172 143.534 187.383 143.861 187.699C144.189 188.015 144.414 188.422 144.509 188.867C144.603 189.312 144.562 189.776 144.391 190.197C144.22 190.619 143.926 190.98 143.548 191.234C143.17 191.487 142.725 191.622 142.27 191.62C141.974 191.637 141.678 191.592 141.401 191.489C141.123 191.386 140.87 191.226 140.657 191.021C140.444 190.815 140.275 190.568 140.162 190.294C140.049 190.02 139.994 189.726 140 189.43V189.43ZM143.54 189.43C143.526 189.182 143.44 188.944 143.293 188.745C143.145 188.545 142.942 188.393 142.71 188.308C142.477 188.222 142.224 188.207 141.982 188.264C141.741 188.32 141.521 188.446 141.35 188.626C141.18 188.807 141.065 189.033 141.022 189.277C140.978 189.521 141.007 189.773 141.105 190.001C141.203 190.229 141.365 190.423 141.572 190.56C141.779 190.697 142.022 190.77 142.27 190.77C142.445 190.776 142.619 190.745 142.781 190.679C142.944 190.613 143.09 190.514 143.211 190.387C143.332 190.261 143.424 190.11 143.483 189.945C143.541 189.78 143.564 189.605 143.55 189.43H143.54Z" fill="white"/>
    <path d="M149.7 185.63V191.56H148.7V191C148.527 191.203 148.311 191.363 148.066 191.469C147.822 191.575 147.556 191.623 147.29 191.61C146.736 191.573 146.217 191.326 145.838 190.92C145.459 190.515 145.248 189.98 145.248 189.425C145.248 188.87 145.459 188.335 145.838 187.93C146.217 187.524 146.736 187.278 147.29 187.24C147.546 187.228 147.802 187.272 148.039 187.371C148.276 187.469 148.488 187.619 148.66 187.81V185.62L149.7 185.63ZM148.7 189.43C148.686 189.182 148.601 188.944 148.453 188.745C148.305 188.545 148.103 188.393 147.87 188.308C147.637 188.222 147.384 188.207 147.142 188.264C146.901 188.32 146.681 188.446 146.51 188.626C146.34 188.807 146.225 189.033 146.182 189.277C146.138 189.521 146.167 189.773 146.265 190.001C146.363 190.229 146.525 190.423 146.732 190.56C146.939 190.697 147.182 190.77 147.43 190.77C147.605 190.776 147.78 190.745 147.943 190.679C148.105 190.614 148.252 190.514 148.374 190.388C148.496 190.261 148.589 190.111 148.649 189.946C148.709 189.781 148.733 189.605 148.72 189.43H148.7Z" fill="white"/>
    <path d="M155.15 187.29V191.56H154.15V191C153.979 191.196 153.766 191.352 153.528 191.456C153.289 191.56 153.03 191.609 152.77 191.6C152.519 191.623 152.266 191.589 152.029 191.501C151.792 191.413 151.579 191.274 151.403 191.093C151.228 190.911 151.095 190.693 151.015 190.454C150.935 190.215 150.909 189.96 150.94 189.71V187.27H151.94V189.58C151.94 190.35 152.31 190.72 152.94 190.72C153.57 190.72 154.11 190.29 154.11 189.43V187.27L155.15 187.29Z" fill="white"/>
    <path d="M156.11 189.43C156.107 189.131 156.165 188.836 156.282 188.561C156.398 188.286 156.57 188.039 156.787 187.834C157.005 187.629 157.262 187.471 157.543 187.371C157.824 187.27 158.122 187.229 158.42 187.25C158.789 187.223 159.158 187.302 159.483 187.48C159.807 187.657 160.074 187.925 160.25 188.25L159.48 188.7C159.372 188.516 159.216 188.363 159.03 188.258C158.844 188.153 158.634 188.098 158.42 188.1C158.065 188.1 157.724 188.241 157.473 188.492C157.221 188.744 157.08 189.084 157.08 189.44C157.08 189.795 157.221 190.136 157.473 190.387C157.724 190.639 158.065 190.78 158.42 190.78C158.634 190.782 158.844 190.727 159.03 190.622C159.216 190.516 159.372 190.364 159.48 190.18L160.25 190.63C160.067 190.949 159.799 191.211 159.476 191.387C159.153 191.564 158.788 191.648 158.42 191.63C158.121 191.649 157.821 191.606 157.54 191.504C157.258 191.402 157 191.242 156.783 191.036C156.566 190.829 156.394 190.58 156.279 190.303C156.163 190.027 156.105 189.73 156.11 189.43V189.43Z" fill="white"/>
    <path d="M163.74 191.33C163.449 191.536 163.097 191.638 162.74 191.62C162.544 191.645 162.344 191.626 162.156 191.563C161.968 191.5 161.797 191.395 161.656 191.257C161.514 191.118 161.406 190.949 161.339 190.763C161.272 190.576 161.249 190.377 161.27 190.18V188.13H160.56V187.33H161.27V186.33H162.27V187.33H163.42V188.13H162.3V190.13C162.288 190.214 162.294 190.299 162.32 190.379C162.345 190.46 162.388 190.533 162.445 190.595C162.503 190.657 162.574 190.704 162.653 190.735C162.731 190.765 162.816 190.777 162.9 190.77C163.101 190.772 163.297 190.708 163.46 190.59L163.74 191.33Z" fill="white"/>
    <path d="M164.43 186C164.431 185.919 164.449 185.839 164.481 185.765C164.514 185.691 164.561 185.624 164.619 185.568C164.678 185.512 164.747 185.469 164.823 185.44C164.899 185.411 164.979 185.398 165.06 185.4C165.141 185.395 165.221 185.406 165.297 185.432C165.374 185.459 165.444 185.5 165.503 185.554C165.563 185.608 165.611 185.674 165.645 185.747C165.679 185.82 165.698 185.9 165.7 185.98C165.702 186.064 165.686 186.147 165.654 186.224C165.622 186.301 165.575 186.371 165.515 186.429C165.455 186.487 165.383 186.532 165.305 186.562C165.227 186.591 165.144 186.604 165.06 186.6C164.979 186.604 164.898 186.592 164.821 186.564C164.745 186.535 164.675 186.492 164.616 186.436C164.557 186.379 164.511 186.312 164.479 186.237C164.447 186.162 164.43 186.082 164.43 186V186ZM164.56 187.3H165.56V191.57H164.56V187.3Z" fill="white"/>
    <path d="M166.52 189.43C166.502 188.975 166.621 188.526 166.86 188.139C167.1 187.752 167.45 187.446 167.866 187.26C168.281 187.073 168.743 187.016 169.191 187.094C169.639 187.172 170.054 187.383 170.381 187.699C170.709 188.015 170.934 188.422 171.029 188.867C171.123 189.312 171.082 189.776 170.911 190.197C170.74 190.619 170.446 190.98 170.068 191.234C169.69 191.487 169.245 191.622 168.79 191.62C168.494 191.637 168.199 191.592 167.921 191.489C167.643 191.386 167.39 191.226 167.177 191.021C166.964 190.815 166.795 190.568 166.682 190.294C166.569 190.02 166.514 189.726 166.52 189.43V189.43ZM170.06 189.43C170.046 189.182 169.96 188.944 169.813 188.745C169.665 188.545 169.462 188.393 169.23 188.308C168.997 188.222 168.744 188.207 168.502 188.264C168.261 188.32 168.041 188.446 167.87 188.626C167.7 188.807 167.585 189.033 167.542 189.277C167.498 189.521 167.527 189.773 167.625 190.001C167.723 190.229 167.885 190.423 168.092 190.56C168.299 190.697 168.542 190.77 168.79 190.77C168.964 190.775 169.137 190.743 169.298 190.676C169.459 190.61 169.604 190.51 169.724 190.384C169.844 190.257 169.936 190.107 169.994 189.943C170.052 189.778 170.074 189.604 170.06 189.43Z" fill="white"/>
    <path d="M176.24 189.12V191.56H175.24V189.25C175.24 188.49 174.86 188.12 174.24 188.12C174.072 188.11 173.904 188.136 173.748 188.199C173.592 188.262 173.452 188.358 173.338 188.482C173.224 188.605 173.139 188.753 173.089 188.913C173.039 189.074 173.026 189.244 173.05 189.41V191.56H172.05V187.29H173V187.85C173.188 187.648 173.417 187.489 173.673 187.385C173.929 187.282 174.204 187.235 174.48 187.25C174.725 187.235 174.97 187.274 175.197 187.364C175.425 187.455 175.631 187.594 175.799 187.773C175.967 187.951 176.093 188.164 176.169 188.397C176.246 188.63 176.27 188.877 176.24 189.12V189.12Z" fill="white"/>
    <path opacity="0.7" d="M255.03 97.4199H125V179.8H255.03V97.4199Z" fill="white"/>
    <path opacity="0.5" d="M255.03 177.14H125V179.8H255.03V177.14Z" fill="black"/>
    <path opacity="0.6" d="M170.05 177.14H125V179.8H170.05V177.14Z" fill="white"/>
    <path d="M173.51 178.56C173.51 179.185 173.325 179.797 172.977 180.317C172.629 180.836 172.135 181.241 171.557 181.48C170.979 181.719 170.343 181.781 169.73 181.658C169.117 181.536 168.554 181.234 168.112 180.791C167.671 180.348 167.37 179.784 167.25 179.17C167.129 178.557 167.193 177.921 167.434 177.344C167.674 176.766 168.081 176.274 168.602 175.928C169.123 175.582 169.735 175.398 170.36 175.4C170.775 175.4 171.185 175.482 171.568 175.641C171.951 175.8 172.298 176.033 172.591 176.326C172.884 176.62 173.116 176.968 173.273 177.351C173.431 177.735 173.511 178.145 173.51 178.56Z" fill="white"/>
    <path opacity="0.4" d="M242.23 186.65L247.42 191.84L252.6 186.65H242.23Z" fill="white"/>
    <path opacity="0.4" d="M255.03 203.08H125V249.59H255.03V203.08Z" fill="white"/>
    <path opacity="0.3" d="M176.83 208.41H131.14V244.27H176.83V208.41Z" fill="black"/>
    <path d="M182.84 213.11C182.861 212.666 183.012 212.238 183.274 211.879C183.536 211.52 183.897 211.246 184.314 211.09C184.73 210.935 185.183 210.905 185.616 211.004C186.049 211.104 186.443 211.328 186.75 211.65L186.25 212.12C186.109 211.963 185.937 211.838 185.743 211.753C185.55 211.668 185.341 211.626 185.13 211.63C184.882 211.63 184.639 211.693 184.421 211.812C184.204 211.931 184.02 212.102 183.886 212.311C183.753 212.519 183.674 212.758 183.656 213.005C183.638 213.252 183.683 213.5 183.786 213.725C183.889 213.951 184.047 214.146 184.245 214.295C184.444 214.443 184.676 214.54 184.921 214.575C185.167 214.61 185.417 214.583 185.649 214.497C185.881 214.41 186.088 214.267 186.25 214.08L186.75 214.57C186.443 214.891 186.049 215.116 185.616 215.215C185.183 215.315 184.73 215.285 184.314 215.13C183.897 214.974 183.536 214.7 183.274 214.341C183.012 213.982 182.861 213.554 182.84 213.11V213.11Z" fill="white"/>
    <path d="M190.59 213.37V215.21H189.84V213.47C189.84 212.9 189.56 212.62 189.08 212.62C188.951 212.612 188.822 212.634 188.702 212.683C188.583 212.732 188.476 212.807 188.389 212.903C188.303 212.999 188.239 213.114 188.203 213.238C188.167 213.362 188.159 213.493 188.18 213.62V215.24H187.43V210.79H188.18V212.41C188.32 212.271 188.488 212.163 188.672 212.092C188.856 212.022 189.053 211.99 189.25 212C189.432 211.986 189.615 212.012 189.786 212.076C189.957 212.141 190.112 212.242 190.24 212.372C190.368 212.503 190.465 212.66 190.526 212.832C190.586 213.005 190.608 213.188 190.59 213.37Z" fill="white"/>
    <path d="M194.22 213.33V215.21H193.52V214.82C193.402 214.969 193.249 215.086 193.074 215.161C192.9 215.236 192.709 215.267 192.52 215.25C191.79 215.25 191.33 214.85 191.33 214.25C191.33 213.65 191.69 213.25 192.66 213.25H193.48C193.48 212.81 193.22 212.55 192.69 212.55C192.33 212.539 191.977 212.652 191.69 212.87L191.39 212.32C191.791 212.049 192.267 211.913 192.75 211.93C193.69 212 194.22 212.41 194.22 213.33ZM193.47 214.21V213.83H192.7C192.19 213.83 192.05 214.03 192.05 214.26C192.05 214.49 192.28 214.7 192.66 214.7C192.83 214.715 193 214.676 193.145 214.588C193.291 214.5 193.405 214.367 193.47 214.21V214.21Z" fill="white"/>
    <path d="M198.59 213.61C198.601 213.828 198.567 214.045 198.489 214.249C198.412 214.452 198.292 214.637 198.139 214.791C197.985 214.946 197.801 215.067 197.598 215.146C197.395 215.225 197.178 215.26 196.96 215.25C196.772 215.252 196.587 215.215 196.414 215.141C196.242 215.067 196.087 214.958 195.96 214.82V216.37H195.22V212H195.93V212.42C196.066 212.275 196.232 212.161 196.417 212.089C196.602 212.016 196.802 211.986 197 212C197.212 211.996 197.422 212.035 197.618 212.115C197.814 212.194 197.992 212.313 198.141 212.464C198.289 212.614 198.406 212.794 198.483 212.991C198.56 213.188 198.597 213.399 198.59 213.61ZM197.82 213.61C197.83 213.481 197.813 213.352 197.77 213.23C197.727 213.109 197.659 212.997 197.57 212.903C197.482 212.809 197.375 212.734 197.256 212.684C197.137 212.633 197.009 212.608 196.88 212.61C196.615 212.61 196.36 212.715 196.173 212.903C195.985 213.091 195.88 213.345 195.88 213.61C195.88 213.875 195.985 214.13 196.173 214.317C196.36 214.505 196.615 214.61 196.88 214.61C197.009 214.612 197.137 214.587 197.256 214.536C197.375 214.486 197.482 214.411 197.57 214.317C197.659 214.223 197.727 214.112 197.77 213.99C197.813 213.868 197.83 213.739 197.82 213.61V213.61Z" fill="white"/>
    <path d="M201.23 215C201.022 215.153 200.768 215.23 200.51 215.22C200.363 215.237 200.214 215.221 200.073 215.173C199.933 215.125 199.805 215.047 199.699 214.943C199.593 214.84 199.511 214.714 199.459 214.575C199.407 214.436 199.387 214.288 199.4 214.14V212.6H198.88V212H199.4V211.27H200.15V212H201V212.6H200.14V214.12C200.131 214.183 200.136 214.246 200.155 214.307C200.174 214.367 200.206 214.423 200.249 214.469C200.292 214.515 200.346 214.551 200.405 214.573C200.464 214.596 200.527 214.605 200.59 214.6C200.74 214.603 200.888 214.557 201.01 214.47L201.23 215Z" fill="white"/>
    <path d="M204.74 213.85H202.22C202.275 214.072 202.404 214.268 202.586 214.407C202.768 214.545 202.992 214.617 203.22 214.61C203.381 214.617 203.541 214.59 203.691 214.531C203.84 214.473 203.976 214.384 204.09 214.27L204.49 214.73C204.247 214.971 203.941 215.137 203.607 215.21C203.273 215.283 202.925 215.259 202.604 215.142C202.283 215.024 202.002 214.818 201.794 214.547C201.587 214.275 201.46 213.95 201.43 213.61C201.424 213.391 201.464 213.174 201.545 212.971C201.627 212.768 201.749 212.584 201.905 212.431C202.061 212.277 202.246 212.157 202.45 212.078C202.654 211.998 202.871 211.962 203.09 211.97C203.308 211.961 203.525 211.998 203.727 212.078C203.93 212.159 204.113 212.28 204.266 212.436C204.418 212.591 204.537 212.777 204.613 212.981C204.69 213.185 204.723 213.403 204.71 213.62C204.75 213.68 204.74 213.77 204.74 213.85ZM202.22 213.35H204C203.961 213.138 203.849 212.947 203.684 212.809C203.519 212.671 203.31 212.595 203.095 212.595C202.88 212.595 202.671 212.671 202.506 212.809C202.34 212.947 202.229 213.138 202.19 213.35H202.22Z" fill="white"/>
    <path d="M207.32 212V212.71H207.15C207.019 212.701 206.889 212.722 206.767 212.77C206.645 212.818 206.536 212.893 206.447 212.989C206.358 213.085 206.291 213.199 206.252 213.324C206.213 213.449 206.202 213.581 206.22 213.71V215.27H205.47V212H206.18V212.47C206.315 212.302 206.49 212.171 206.69 212.089C206.889 212.007 207.106 211.976 207.32 212V212Z" fill="white"/>
    <path d="M209.42 213.11C209.42 211.73 210.17 210.95 211.17 210.95C212.17 210.95 212.93 211.73 212.93 213.11C212.93 214.49 212.17 215.27 211.17 215.27C210.17 215.27 209.42 214.49 209.42 213.11ZM212.14 213.11C212.14 212.11 211.74 211.63 211.14 211.63C210.54 211.63 210.14 212.09 210.14 213.11C210.14 214.13 210.54 214.59 211.14 214.59C211.74 214.59 212.14 214.12 212.14 213.11Z" fill="white"/>
    <path d="M214.88 211V215.2H214.1V211.65H213.21V211H214.88Z" fill="white"/>
    <path opacity="0.5" d="M243.34 219.41H183.68C183.073 219.41 182.58 219.903 182.58 220.51V220.57C182.58 221.178 183.073 221.67 183.68 221.67H243.34C243.948 221.67 244.44 221.178 244.44 220.57V220.51C244.44 219.903 243.948 219.41 243.34 219.41Z" fill="white"/>
    <path opacity="0.5" d="M232.34 224.41H183.68C183.073 224.41 182.58 224.903 182.58 225.51V225.57C182.58 226.178 183.073 226.67 183.68 226.67H232.34C232.948 226.67 233.44 226.178 233.44 225.57V225.51C233.44 224.903 232.948 224.41 232.34 224.41Z" fill="white"/>
    <path opacity="0.6" d="M146.42 219.79V232.88L159.51 226.34L146.42 219.79Z" fill="white"/>
    <path d="M253.87 91.6199L249.24 87.6299L244.62 91.6199V80.6499H253.87V91.6199Z" fill="#38B6FF"/>
    <path d="M237.18 80.6499H230.18C229.721 80.6499 229.281 80.8322 228.957 81.1566C228.632 81.4811 228.45 81.9211 228.45 82.3799V87.1399C228.453 87.5979 228.636 88.0364 228.96 88.3603C229.284 88.6842 229.722 88.8673 230.18 88.8699H232.54V91.6199L234.34 88.8699H237.14C237.599 88.8699 238.039 88.6876 238.363 88.3632C238.688 88.0388 238.87 87.5987 238.87 87.1399V82.3799C238.873 81.9272 238.697 81.4916 238.381 81.1677C238.064 80.8439 237.633 80.6578 237.18 80.6499V80.6499Z" fill="#38B6FF"/>
    <path d="M223.22 82.0002C221.94 79.8902 219.46 80.6802 218.17 82.3102C216.9 80.6702 214.42 79.8502 213.11 81.9402C210.91 85.4802 215.39 88.8002 217.52 90.1002L218.12 90.4702L218.73 90.1102C220.86 88.7902 225.39 85.5302 223.22 82.0002Z" fill="#38B6FF"/>
    <path d="M171.59 88.3799H127.42C126.083 88.3799 125 89.4634 125 90.7999V90.9499C125 92.2864 126.083 93.3699 127.42 93.3699H171.59C172.927 93.3699 174.01 92.2864 174.01 90.9499V90.7999C174.01 89.4634 172.927 88.3799 171.59 88.3799Z" fill="#38B6FF"/>
    <path d="M186.01 80.6499H127.42C126.083 80.6499 125 81.7334 125 83.0699V83.2199C125 84.5564 126.083 85.6399 127.42 85.6399H186.01C187.347 85.6399 188.43 84.5564 188.43 83.2199V83.0699C188.43 81.7334 187.347 80.6499 186.01 80.6499Z" fill="#38B6FF"/>
    <path opacity="0.4" d="M255.03 255.09H125V301.6H255.03V255.09Z" fill="white"/>
    <path opacity="0.3" d="M176.83 260.41H131.14V296.27H176.83V260.41Z" fill="black"/>
    <path d="M182.84 265.11C182.861 264.666 183.012 264.238 183.274 263.879C183.536 263.52 183.897 263.246 184.314 263.09C184.73 262.935 185.183 262.905 185.616 263.004C186.049 263.104 186.443 263.328 186.75 263.65L186.25 264.13C186.109 263.973 185.937 263.848 185.743 263.763C185.55 263.678 185.341 263.636 185.13 263.64C184.926 263.623 184.721 263.649 184.528 263.715C184.334 263.782 184.156 263.888 184.006 264.026C183.855 264.165 183.735 264.333 183.653 264.521C183.571 264.708 183.529 264.91 183.529 265.115C183.529 265.32 183.571 265.522 183.653 265.709C183.735 265.897 183.855 266.065 184.006 266.204C184.156 266.342 184.334 266.448 184.528 266.515C184.721 266.581 184.926 266.607 185.13 266.59C185.342 266.591 185.551 266.548 185.744 266.461C185.938 266.375 186.11 266.248 186.25 266.09L186.75 266.57C186.443 266.891 186.049 267.116 185.616 267.215C185.183 267.315 184.73 267.285 184.314 267.13C183.897 266.974 183.536 266.7 183.274 266.341C183.012 265.982 182.861 265.554 182.84 265.11V265.11Z" fill="white"/>
    <path d="M190.59 265.38V267.21H189.84V265.47C189.84 264.9 189.56 264.63 189.08 264.63C188.951 264.62 188.821 264.64 188.7 264.689C188.579 264.737 188.472 264.812 188.385 264.909C188.298 265.005 188.234 265.121 188.199 265.246C188.163 265.371 188.157 265.502 188.18 265.63V267.25H187.43V262.8H188.18V264.42C188.322 264.283 188.489 264.176 188.673 264.105C188.857 264.035 189.053 264.002 189.25 264.01C189.432 263.998 189.614 264.025 189.784 264.09C189.955 264.155 190.109 264.256 190.236 264.386C190.363 264.516 190.461 264.672 190.522 264.844C190.583 265.016 190.606 265.198 190.59 265.38V265.38Z" fill="white"/>
    <path d="M194.22 265.33V267.21H193.52V266.82C193.403 266.97 193.25 267.088 193.075 267.163C192.9 267.239 192.709 267.268 192.52 267.25C191.79 267.25 191.33 266.85 191.33 266.25C191.33 265.65 191.69 265.25 192.66 265.25H193.48C193.48 264.81 193.22 264.56 192.69 264.56C192.332 264.551 191.98 264.66 191.69 264.87L191.39 264.33C191.787 264.051 192.265 263.91 192.75 263.93C193.69 264 194.22 264.41 194.22 265.33ZM193.47 266.21V265.84H192.7C192.19 265.84 192.05 266.03 192.05 266.26C192.05 266.49 192.28 266.71 192.66 266.71C192.831 266.723 193.001 266.681 193.146 266.592C193.292 266.502 193.405 266.368 193.47 266.21V266.21Z" fill="white"/>
    <path d="M198.59 265.61C198.601 265.828 198.567 266.045 198.489 266.249C198.412 266.452 198.292 266.637 198.139 266.792C197.985 266.946 197.801 267.067 197.598 267.146C197.395 267.225 197.178 267.26 196.96 267.25C196.772 267.252 196.587 267.215 196.414 267.141C196.242 267.067 196.087 266.958 195.96 266.82V268.37H195.22V264H195.93V264.42C196.064 264.273 196.23 264.158 196.416 264.086C196.602 264.013 196.801 263.983 197 264C197.212 263.996 197.422 264.035 197.618 264.115C197.814 264.194 197.992 264.313 198.141 264.464C198.289 264.614 198.406 264.794 198.483 264.991C198.56 265.188 198.597 265.399 198.59 265.61V265.61ZM197.82 265.61C197.83 265.481 197.813 265.352 197.77 265.23C197.727 265.109 197.659 264.997 197.57 264.903C197.482 264.809 197.375 264.734 197.256 264.684C197.137 264.634 197.009 264.608 196.88 264.61C196.615 264.61 196.36 264.716 196.173 264.903C195.985 265.091 195.88 265.345 195.88 265.61C195.88 265.875 195.985 266.13 196.173 266.317C196.36 266.505 196.615 266.61 196.88 266.61C197.009 266.612 197.137 266.587 197.256 266.536C197.375 266.486 197.482 266.411 197.57 266.317C197.659 266.223 197.727 266.112 197.77 265.99C197.813 265.868 197.83 265.739 197.82 265.61Z" fill="white"/>
    <path d="M201.23 267C201.019 267.145 200.766 267.219 200.51 267.21C200.363 267.227 200.214 267.211 200.073 267.163C199.933 267.115 199.805 267.037 199.699 266.933C199.593 266.83 199.511 266.704 199.459 266.565C199.407 266.426 199.387 266.278 199.4 266.13V264.59H198.88V264H199.4V263.27H200.15V264H201V264.6H200.14V266.13C200.131 266.192 200.135 266.256 200.154 266.316C200.173 266.376 200.206 266.431 200.249 266.476C200.293 266.521 200.346 266.556 200.405 266.578C200.464 266.599 200.528 266.607 200.59 266.6C200.74 266.603 200.888 266.557 201.01 266.47L201.23 267Z" fill="white"/>
    <path d="M204.74 265.85H202.22C202.273 266.074 202.401 266.272 202.583 266.413C202.765 266.553 202.99 266.626 203.22 266.62C203.381 266.625 203.542 266.596 203.692 266.536C203.841 266.476 203.977 266.385 204.09 266.27L204.49 266.73C204.247 266.97 203.941 267.137 203.607 267.21C203.273 267.283 202.925 267.259 202.604 267.142C202.283 267.024 202.002 266.818 201.794 266.546C201.587 266.275 201.46 265.95 201.43 265.61C201.424 265.391 201.464 265.174 201.545 264.971C201.627 264.768 201.749 264.584 201.905 264.431C202.061 264.277 202.246 264.157 202.45 264.077C202.654 263.998 202.871 263.962 203.09 263.97C203.308 263.963 203.525 264.001 203.728 264.082C203.93 264.164 204.114 264.286 204.266 264.442C204.419 264.599 204.537 264.785 204.613 264.989C204.69 265.194 204.723 265.412 204.71 265.63C204.75 265.69 204.74 265.78 204.74 265.85ZM202.22 265.35H204C203.961 265.138 203.849 264.947 203.684 264.809C203.519 264.671 203.31 264.595 203.095 264.595C202.88 264.595 202.671 264.671 202.506 264.809C202.34 264.947 202.229 265.138 202.19 265.35H202.22Z" fill="white"/>
    <path d="M207.32 264V264.72C207.264 264.711 207.206 264.711 207.15 264.72C207.019 264.71 206.887 264.729 206.765 264.776C206.642 264.824 206.532 264.899 206.443 264.995C206.353 265.091 206.287 265.206 206.248 265.332C206.21 265.458 206.2 265.59 206.22 265.72V267.27H205.47V264H206.18V264.47C206.314 264.301 206.489 264.169 206.689 264.086C206.888 264.004 207.106 263.974 207.32 264V264Z" fill="white"/>
    <path d="M209.42 265.11C209.42 263.73 210.17 262.95 211.17 262.95C212.17 262.95 212.93 263.73 212.93 265.11C212.93 266.49 212.17 267.27 211.17 267.27C210.17 267.27 209.42 266.49 209.42 265.11ZM212.14 265.11C212.14 264.11 211.74 263.63 211.14 263.63C210.54 263.63 210.14 264.1 210.14 265.11C210.14 266.12 210.54 266.59 211.14 266.59C211.74 266.59 212.14 266.12 212.14 265.11Z" fill="white"/>
    <path d="M216.47 266.55V267.21H213.37V266.69L215.04 265.11C215.45 264.72 215.52 264.47 215.52 264.24C215.52 263.85 215.25 263.63 214.74 263.63C214.551 263.619 214.361 263.653 214.187 263.73C214.013 263.806 213.86 263.923 213.74 264.07L213.2 263.65C213.392 263.417 213.635 263.232 213.911 263.11C214.188 262.988 214.489 262.934 214.79 262.95C215.71 262.95 216.29 263.41 216.29 264.16C216.286 264.419 216.221 264.673 216.102 264.902C215.982 265.131 215.81 265.329 215.6 265.48L214.48 266.55H216.47Z" fill="white"/>
    <path opacity="0.5" d="M243.34 271.41H183.68C183.073 271.41 182.58 271.903 182.58 272.51V272.57C182.58 273.178 183.073 273.67 183.68 273.67H243.34C243.948 273.67 244.44 273.178 244.44 272.57V272.51C244.44 271.903 243.948 271.41 243.34 271.41Z" fill="white"/>
    <path opacity="0.5" d="M232.34 276.41H183.68C183.073 276.41 182.58 276.903 182.58 277.51V277.57C182.58 278.178 183.073 278.67 183.68 278.67H232.34C232.948 278.67 233.44 278.178 233.44 277.57V277.51C233.44 276.903 232.948 276.41 232.34 276.41Z" fill="white"/>
    <path opacity="0.6" d="M146.42 271.8V284.89L159.51 278.34L146.42 271.8Z" fill="white"/>
    <path d="M139.15 105.93V113.27H137.79V110.12H134V113.27H132.63V105.93H134V108.93H137.79V105.93H139.15Z" fill="#38B6FF"/>
    <path d="M140.54 110.47C140.514 109.872 140.668 109.279 140.981 108.769C141.295 108.259 141.754 107.854 142.299 107.607C142.845 107.36 143.451 107.282 144.042 107.383C144.632 107.483 145.179 107.758 145.611 108.172C146.044 108.586 146.343 109.12 146.469 109.705C146.596 110.29 146.545 110.9 146.322 111.456C146.099 112.012 145.715 112.488 145.22 112.824C144.724 113.16 144.139 113.339 143.54 113.34C143.151 113.365 142.76 113.309 142.394 113.175C142.027 113.041 141.692 112.833 141.41 112.563C141.128 112.294 140.905 111.968 140.756 111.608C140.606 111.248 140.532 110.86 140.54 110.47V110.47ZM145.18 110.47C145.163 110.146 145.05 109.834 144.858 109.573C144.665 109.313 144.4 109.114 144.096 109.002C143.791 108.89 143.461 108.87 143.145 108.943C142.829 109.017 142.542 109.182 142.318 109.417C142.095 109.653 141.946 109.948 141.889 110.268C141.831 110.587 141.869 110.916 141.997 111.214C142.125 111.512 142.337 111.766 142.608 111.945C142.879 112.124 143.196 112.219 143.52 112.22C143.747 112.225 143.973 112.182 144.182 112.094C144.392 112.007 144.581 111.877 144.737 111.712C144.894 111.547 145.014 111.352 145.09 111.138C145.166 110.924 145.197 110.696 145.18 110.47Z" fill="#38B6FF"/>
    <path d="M156.34 107.67L154.27 113.27H153L151.55 109.41L150.08 113.27H148.82L146.77 107.67H148L149.47 111.8L151.02 107.67H152.12L153.63 111.82L155.15 107.67H156.34Z" fill="#38B6FF"/>
    <path d="M163.5 113C163.138 113.263 162.698 113.397 162.25 113.38C161.993 113.413 161.732 113.387 161.486 113.305C161.241 113.223 161.017 113.087 160.831 112.906C160.646 112.725 160.503 112.505 160.415 112.262C160.326 112.018 160.294 111.758 160.32 111.5V108.8H159.39V107.8H160.32V106.52H161.63V107.8H163.13V108.8H161.63V111.46C161.63 112.01 161.9 112.3 162.4 112.3C162.666 112.31 162.927 112.229 163.14 112.07L163.5 113Z" fill="#38B6FF"/>
    <path d="M163.94 110.47C163.914 109.872 164.068 109.279 164.381 108.769C164.695 108.259 165.154 107.854 165.699 107.607C166.244 107.36 166.851 107.282 167.442 107.383C168.032 107.483 168.578 107.758 169.011 108.172C169.444 108.586 169.743 109.12 169.869 109.705C169.996 110.29 169.945 110.9 169.722 111.456C169.499 112.012 169.115 112.488 168.62 112.824C168.124 113.16 167.539 113.339 166.94 113.34C166.55 113.366 166.159 113.311 165.792 113.178C165.425 113.045 165.089 112.837 164.807 112.567C164.524 112.297 164.302 111.971 164.152 111.61C164.003 111.249 163.931 110.86 163.94 110.47V110.47ZM168.58 110.47C168.563 110.146 168.451 109.835 168.258 109.574C168.066 109.314 167.802 109.115 167.498 109.003C167.194 108.89 166.864 108.87 166.548 108.943C166.233 109.016 165.945 109.18 165.722 109.414C165.498 109.648 165.348 109.943 165.29 110.262C165.231 110.58 165.268 110.909 165.394 111.207C165.52 111.506 165.731 111.76 166.001 111.94C166.27 112.12 166.586 112.217 166.91 112.22C167.138 112.226 167.365 112.184 167.575 112.098C167.786 112.011 167.976 111.881 168.134 111.716C168.291 111.551 168.412 111.355 168.489 111.14C168.566 110.926 168.597 110.697 168.58 110.47Z" fill="#38B6FF"/>
    <path d="M132.63 114.93H134V122.27H132.63V114.93Z" fill="#38B6FF"/>
    <path d="M141.37 119.06V122.27H140.06V119.27C140.06 118.27 139.56 117.79 138.72 117.79C138.501 117.778 138.281 117.814 138.077 117.896C137.874 117.979 137.691 118.105 137.541 118.267C137.392 118.429 137.281 118.621 137.215 118.831C137.149 119.041 137.13 119.262 137.16 119.48V122.31H135.85V116.71H137.1V117.43C137.344 117.166 137.644 116.959 137.978 116.824C138.311 116.689 138.671 116.63 139.03 116.65C139.35 116.626 139.67 116.673 139.97 116.787C140.269 116.901 140.54 117.079 140.763 117.308C140.986 117.538 141.156 117.814 141.261 118.117C141.366 118.419 141.403 118.741 141.37 119.06V119.06Z" fill="#38B6FF"/>
    <path d="M142.63 119.47C142.625 119.081 142.701 118.695 142.851 118.337C143.002 117.978 143.226 117.655 143.507 117.387C143.789 117.118 144.122 116.911 144.488 116.777C144.853 116.644 145.242 116.587 145.63 116.61C146.111 116.575 146.592 116.679 147.016 116.91C147.439 117.14 147.788 117.487 148.02 117.91L147.02 118.5C146.878 118.259 146.675 118.059 146.431 117.922C146.186 117.785 145.91 117.715 145.63 117.72C145.166 117.72 144.721 117.904 144.393 118.233C144.064 118.561 143.88 119.006 143.88 119.47C143.88 119.934 144.064 120.379 144.393 120.707C144.721 121.036 145.166 121.22 145.63 121.22C145.91 121.225 146.186 121.155 146.431 121.018C146.675 120.881 146.878 120.682 147.02 120.44L148.02 121.03C147.787 121.453 147.439 121.801 147.016 122.033C146.592 122.265 146.112 122.371 145.63 122.34C145.241 122.364 144.851 122.306 144.485 122.172C144.119 122.038 143.785 121.83 143.503 121.56C143.222 121.291 142.999 120.966 142.848 120.606C142.698 120.247 142.624 119.86 142.63 119.47Z" fill="#38B6FF"/>
    <path d="M152.42 116.61V117.86C152.32 117.852 152.22 117.852 152.12 117.86C151.893 117.843 151.665 117.877 151.453 117.96C151.24 118.042 151.049 118.171 150.893 118.337C150.737 118.503 150.62 118.701 150.55 118.918C150.48 119.135 150.46 119.364 150.49 119.59V122.31H149.18V116.71H150.43V117.53C150.652 117.216 150.953 116.966 151.302 116.805C151.652 116.643 152.037 116.576 152.42 116.61V116.61Z" fill="#38B6FF"/>
    <path d="M158.72 119.89H154.33C154.414 120.297 154.646 120.658 154.979 120.905C155.313 121.152 155.727 121.268 156.14 121.23C156.422 121.241 156.703 121.193 156.965 121.088C157.227 120.982 157.464 120.823 157.66 120.62L158.36 121.43C158.052 121.833 157.647 122.152 157.182 122.356C156.718 122.56 156.209 122.643 155.703 122.597C155.198 122.551 154.713 122.377 154.292 122.092C153.872 121.808 153.531 121.421 153.301 120.969C153.072 120.516 152.96 120.013 152.978 119.506C152.995 118.998 153.141 118.504 153.402 118.069C153.662 117.633 154.029 117.271 154.468 117.016C154.907 116.761 155.403 116.621 155.91 116.61C156.291 116.594 156.672 116.658 157.026 116.798C157.381 116.938 157.702 117.152 157.969 117.424C158.236 117.697 158.442 118.023 158.575 118.38C158.708 118.738 158.764 119.119 158.74 119.5C158.74 119.61 158.73 119.76 158.72 119.89ZM154.32 119.02H157.49C157.452 118.634 157.267 118.277 156.973 118.023C156.678 117.77 156.298 117.64 155.91 117.66C155.526 117.644 155.149 117.773 154.855 118.021C154.561 118.269 154.37 118.618 154.32 119V119.02Z" fill="#38B6FF"/>
    <path d="M164.53 119V122.28H163.29V121.6C163.083 121.862 162.813 122.068 162.506 122.199C162.198 122.33 161.863 122.382 161.53 122.35C160.25 122.35 159.45 121.65 159.45 120.67C159.45 119.69 160.08 119.01 161.77 119.01H163.22V118.92C163.22 118.16 162.76 117.71 161.83 117.71C161.219 117.704 160.622 117.897 160.13 118.26L159.61 117.31C160.308 116.836 161.137 116.594 161.98 116.62C163.6 116.61 164.53 117.37 164.53 119ZM163.22 120.53V119.88H161.87C160.98 119.88 160.74 120.21 160.74 120.62C160.74 121.03 161.13 121.4 161.81 121.4C162.108 121.419 162.403 121.344 162.656 121.186C162.909 121.028 163.106 120.795 163.22 120.52V120.53Z" fill="#38B6FF"/>
    <path d="M165.57 121.71L166.07 120.71C166.674 121.074 167.366 121.264 168.07 121.26C168.9 121.26 169.25 121.03 169.25 120.64C169.25 119.58 165.79 120.58 165.79 118.35C165.79 117.29 166.74 116.6 168.25 116.6C168.979 116.588 169.699 116.752 170.35 117.08L169.85 118.08C169.364 117.791 168.806 117.646 168.24 117.66C167.45 117.66 167.07 117.92 167.07 118.29C167.07 119.42 170.53 118.41 170.53 120.6C170.53 121.6 169.53 122.33 167.99 122.33C167.141 122.361 166.3 122.145 165.57 121.71Z" fill="#38B6FF"/>
    <path d="M176.85 119.89H172.46C172.544 120.297 172.776 120.658 173.109 120.905C173.443 121.152 173.857 121.268 174.27 121.23C174.552 121.241 174.833 121.193 175.095 121.088C175.357 120.982 175.594 120.823 175.79 120.62L176.5 121.43C176.073 121.851 175.534 122.141 174.947 122.266C174.36 122.391 173.75 122.345 173.188 122.135C172.626 121.925 172.135 121.559 171.774 121.08C171.413 120.6 171.197 120.028 171.15 119.43C171.139 119.049 171.206 118.669 171.348 118.315C171.489 117.961 171.702 117.64 171.973 117.372C172.245 117.103 172.568 116.894 172.923 116.756C173.279 116.618 173.659 116.555 174.04 116.57C174.421 116.554 174.802 116.618 175.156 116.758C175.511 116.898 175.832 117.112 176.099 117.384C176.366 117.657 176.572 117.982 176.705 118.34C176.838 118.698 176.894 119.079 176.87 119.46C176.87 119.61 176.86 119.76 176.85 119.89ZM172.45 119.02H175.63C175.57 118.641 175.377 118.297 175.085 118.048C174.794 117.799 174.423 117.663 174.04 117.663C173.657 117.663 173.286 117.799 172.995 118.048C172.704 118.297 172.51 118.641 172.45 119.02V119.02Z" fill="#38B6FF"/>
    <path d="M137.75 125.67L135.13 131.72C135.012 132.201 134.734 132.627 134.341 132.929C133.949 133.231 133.465 133.39 132.97 133.38C132.424 133.391 131.892 133.207 131.47 132.86L131.99 131.86C132.26 132.115 132.619 132.255 132.99 132.25C133.45 132.25 133.72 132.03 133.99 131.47L134.09 131.25L131.64 125.63H133L134.76 129.77L136.53 125.63L137.75 125.67Z" fill="#38B6FF"/>
    <path d="M138 128.47C137.974 127.872 138.128 127.279 138.441 126.769C138.755 126.259 139.214 125.854 139.759 125.607C140.305 125.36 140.911 125.282 141.502 125.383C142.092 125.483 142.638 125.758 143.071 126.172C143.504 126.586 143.803 127.12 143.929 127.705C144.056 128.29 144.005 128.9 143.782 129.456C143.559 130.012 143.175 130.488 142.68 130.824C142.184 131.16 141.599 131.339 141 131.34C140.611 131.365 140.22 131.309 139.854 131.175C139.487 131.041 139.152 130.833 138.87 130.563C138.588 130.294 138.365 129.968 138.216 129.608C138.066 129.248 137.992 128.86 138 128.47V128.47ZM142.64 128.47C142.623 128.146 142.51 127.834 142.318 127.573C142.125 127.313 141.86 127.114 141.556 127.002C141.251 126.89 140.92 126.87 140.605 126.943C140.289 127.017 140.001 127.182 139.778 127.417C139.555 127.653 139.406 127.948 139.348 128.268C139.291 128.587 139.329 128.916 139.457 129.214C139.585 129.512 139.797 129.766 140.068 129.945C140.339 130.124 140.656 130.219 140.98 130.22C141.203 130.218 141.423 130.17 141.627 130.079C141.83 129.989 142.013 129.858 142.164 129.694C142.315 129.53 142.431 129.336 142.504 129.126C142.577 128.915 142.607 128.692 142.59 128.47H142.64Z" fill="#38B6FF"/>
    <path d="M150.59 125.67V131.27H149.35V130.56C149.125 130.816 148.846 131.019 148.533 131.154C148.22 131.289 147.881 131.352 147.54 131.34C147.21 131.372 146.878 131.33 146.566 131.217C146.255 131.103 145.973 130.921 145.742 130.684C145.51 130.447 145.335 130.161 145.229 129.847C145.123 129.533 145.09 129.199 145.13 128.87V125.67H146.44V128.67C146.44 129.67 146.93 130.17 147.75 130.17C148.57 130.17 149.28 129.6 149.28 128.48V125.65L150.59 125.67Z" fill="#38B6FF"/>
    <path d="M155.56 125.61V126.86C155.457 126.852 155.353 126.852 155.25 126.86C155.024 126.845 154.797 126.88 154.586 126.963C154.375 127.046 154.185 127.175 154.03 127.341C153.875 127.506 153.758 127.704 153.689 127.92C153.62 128.136 153.6 128.365 153.63 128.59V131.31H152.32V125.71H153.56V126.53C153.784 126.215 154.086 125.965 154.437 125.803C154.788 125.642 155.175 125.575 155.56 125.61Z" fill="#38B6FF"/>
    <path d="M131.57 143.62L132.12 142.39C132.938 142.999 133.93 143.329 134.95 143.33C136.28 143.33 136.84 142.85 136.84 142.22C136.84 140.37 131.75 141.58 131.75 138.4C131.75 137.02 132.85 135.84 135.2 135.84C136.205 135.825 137.195 136.088 138.06 136.6L137.55 137.84C136.838 137.407 136.023 137.173 135.19 137.16C133.87 137.16 133.33 137.68 133.33 138.33C133.33 140.15 138.41 138.96 138.41 142.11C138.41 143.48 137.3 144.65 134.95 144.65C133.74 144.691 132.551 144.328 131.57 143.62Z" fill="#263238"/>
    <path d="M142.93 140.94L141.58 142.34V144.53H140V136H141.6V140.4L145.83 136H147.62L144.02 139.83L147.84 144.57H146L142.93 140.94Z" fill="#263238"/>
    <path d="M148.9 136H150.49V144.57H148.9V136Z" fill="#263238"/>
    <path d="M152.8 136H154.39V143.22H158.87V144.57H152.8V136Z" fill="#263238"/>
    <path d="M160.13 136H161.72V143.22H166.2V144.57H160.13V136Z" fill="#263238"/>
    <path d="M166.67 143.62L167.22 142.39C168.039 142.997 169.031 143.326 170.05 143.33C171.38 143.33 171.95 142.85 171.95 142.22C171.95 140.37 166.85 141.58 166.85 138.4C166.85 137.02 167.96 135.84 170.31 135.84C171.312 135.826 172.298 136.089 173.16 136.6L172.66 137.84C171.944 137.408 171.126 137.174 170.29 137.16C168.97 137.16 168.43 137.68 168.43 138.33C168.43 140.15 173.51 138.96 173.51 142.11C173.51 143.48 172.4 144.65 170.05 144.65C168.84 144.691 167.652 144.328 166.67 143.62V143.62Z" fill="#263238"/>
    <path d="M181.13 147.81L176.48 145.53C176.48 145.53 175.1 142.47 175 142.53C174.9 142.59 166.1 140.72 166.1 140.72C166.1 140.72 166 145.91 166.99 147.02C167.98 148.13 173.99 148.63 174.3 148.82C174.61 149.01 175.3 148.39 175.3 148.39L180.3 151.64L181.13 147.81Z" fill="#EBB376"/>
    <path d="M231.93 108.69C231.93 108.69 230 104.24 223.77 104.24C217.54 104.24 212.35 107.95 212.65 112.7C212.95 117.45 209.38 117 208.79 121.6C208.2 126.2 210.42 127.38 210.57 129.31C210.72 131.24 208.2 130.65 206.57 133.91C204.94 137.17 202.86 141.77 209.84 147.91C216.82 154.05 236.54 152.91 240.84 149.24C245.14 145.57 245 138.41 240.84 136.48C236.68 134.55 240.55 134.85 240.99 130.55C241.43 126.25 237.58 124.62 237.87 121.2C238.16 117.78 239.2 109 231.93 108.69Z" fill="#263238"/>
    <path d="M207.72 137.56V149.79C207.72 149.79 206.67 151.1 205.1 152.79C203.446 154.597 201.632 156.25 199.68 157.73C197.8 159.09 195.91 160.02 194.38 159.83C189.54 159.2 176.48 151.7 176.48 151.7L178.66 145.93C178.66 145.93 193.49 153.56 194.38 152.77C195.27 151.98 205 138.25 207.72 137.56Z" fill="#38B6FF"/>
    <path opacity="0.2" d="M205.1 152.78C203.446 154.587 201.632 156.24 199.68 157.72C198.97 152.26 205.23 145.53 205.23 145.53C205.23 145.53 205.32 149 205.1 152.78Z" fill="black"/>
    <path d="M232 177.14H217.31H216.88H206.39C206.44 176.68 206.48 176.27 206.52 175.94C206.56 175.61 206.59 175.22 206.61 175C206.63 174.78 206.61 174.81 206.61 174.72C206.605 174.69 206.605 174.66 206.61 174.63H207.61H208.84L212 174.75L217.43 174.95L222.78 175.15L224.01 175.2L228.67 175.37L231.23 175.47C231.54 176.07 231.77 176.6 232 177.14Z" fill="#38B6FF"/>
    <path opacity="0.4" d="M232 177.14H217.31H216.88H206.39C206.44 176.68 206.48 176.27 206.52 175.94C206.56 175.61 206.59 175.22 206.61 175C206.63 174.78 206.61 174.81 206.61 174.72C206.605 174.69 206.605 174.66 206.61 174.63H207.61H208.84L212 174.75L217.43 174.96L222.78 175.16H224.01L228.67 175.33L231.23 175.43C231.54 176.07 231.77 176.6 232 177.14Z" fill="white"/>
    <path d="M231.29 177.14H222.98L222.75 177.13L217.34 176.81L211.91 176.5L208.81 176.32L207.59 176.25L206.53 176.19H206.52V175.94L206.44 171.91H206.46L206.88 171.95L207.73 172.02L208.95 172.12L222.88 173.3L224.1 173.4L228.55 173.77L231.23 174L231.26 175.55V175.56L231.29 177.14Z" fill="#263238"/>
    <path d="M217.6 173.06V173.1L217.46 175.03V175.04L217.34 176.81L217.31 177.14V177.17L216.88 177.14L211.89 176.79L211.91 176.5L212.03 174.83L212.18 172.74V172.68L217.6 173.06Z" fill="white"/>
    <path d="M224.12 172.67L224.1 173.4L224.09 173.53L224.04 175.28V175.29L223.98 177.14H222.75V177.13L222.81 175.24V175.23L222.87 173.45L222.88 173.3L222.9 172.63L224.1 172.67H224.12Z" fill="#38B6FF"/>
    <path opacity="0.4" d="M224.12 172.67L224.1 173.4L224.09 173.53L224.04 175.28V175.29L223.98 177.14H222.75V177.13L222.81 175.24V175.23L222.87 173.45L222.88 173.3L222.9 172.63L224.1 172.67H224.12Z" fill="white"/>
    <path d="M208.98 171.3L208.95 172.12L208.94 172.52L208.87 174.71L208.81 176.32L208.78 177.14H207.56L207.59 176.25L207.64 174.67L207.71 172.44L207.73 172.02L207.75 171.26L208.98 171.3Z" fill="#38B6FF"/>
    <path opacity="0.4" d="M208.98 171.3L208.95 172.12L208.94 172.52L208.87 174.71L208.81 176.32L208.78 177.14H207.56L207.59 176.25L207.64 174.67L207.71 172.44L207.73 172.02L207.75 171.26L208.98 171.3Z" fill="white"/>
    <path d="M206.49 172.37L231.23 174C231.62 167.85 232.07 166 233.92 158.62C234.51 156.25 235.25 153.62 236.21 150.55C236.72 148.91 237.28 147.16 237.91 145.27C238.38 143.84 238.91 142.27 239.45 140.71C236.092 139.635 232.659 138.806 229.18 138.23C225.51 137.571 221.797 137.18 218.07 137.06C213.25 137.06 207.72 137.56 207.72 137.56C207.72 137.56 206.93 137.75 206.43 142.85C206 147.65 205.5 154.93 206.49 172.37Z" fill="#263238"/>
    <path opacity="0.4" d="M206.49 172.37L231.23 174C231.62 167.85 232.07 166 233.92 158.62C234.51 156.25 235.25 153.62 236.21 150.55C236.72 148.91 237.28 147.16 237.91 145.27C238.38 143.84 238.91 142.27 239.45 140.71C236.092 139.635 232.659 138.806 229.18 138.23C225.51 137.571 221.797 137.18 218.07 137.06C213.25 137.06 207.72 137.56 207.72 137.56C207.72 137.56 206.93 137.75 206.43 142.85C206 147.65 205.5 154.93 206.49 172.37Z" fill="white"/>
    <path d="M220.11 142.52C226.21 141.74 228.04 139.13 228.04 139.13C224.17 135.48 227.39 129.13 227.39 129.13L220 130.53C220.175 131.551 220.272 132.584 220.29 133.62C220.35 138.07 218.29 138.12 218.29 138.12C217.08 140.53 220.11 142.52 220.11 142.52Z" fill="#EBB376"/>
    <path opacity="0.2" d="M220 130.53C220.175 131.551 220.272 132.584 220.29 133.62C221.76 133.578 223.191 133.141 224.434 132.354C225.676 131.568 226.684 130.461 227.35 129.15L220 130.53Z" fill="black"/>
    <path d="M224.1 110C217.72 109.65 215.48 113 214.65 119.51C213.65 127.7 215.12 133.64 223.2 132.32C234.17 130.52 234.7 110.57 224.1 110Z" fill="#EBB376"/>
    <path d="M218.8 119.37C218.239 120.295 217.567 121.148 216.8 121.91C216.973 122.185 217.219 122.407 217.51 122.552C217.801 122.696 218.126 122.758 218.45 122.73L218.8 119.37Z" fill="#D58745"/>
    <path d="M222.73 119.06C222.73 119.58 222.94 120.06 223.29 120.06C223.64 120.06 223.96 119.68 224 119.16C224.04 118.64 223.79 118.16 223.44 118.16C223.09 118.16 222.77 118.54 222.73 119.06Z" fill="#263238"/>
    <path d="M223.58 118.2L222.48 117.66C222.48 117.66 223 118.67 223.58 118.2Z" fill="#263238"/>
    <path d="M216.23 118.44C216.23 118.97 216.44 119.44 216.79 119.44C217.14 119.44 217.45 119.07 217.49 118.54C217.53 118.01 217.29 117.54 216.94 117.54C216.59 117.54 216.27 117.92 216.23 118.44Z" fill="#263238"/>
    <path d="M217.08 117.58L216 117C216 117 216.47 118.05 217.08 117.58Z" fill="#263238"/>
    <path d="M225.75 116.14C225.694 116.138 225.638 116.124 225.588 116.098C225.538 116.072 225.494 116.035 225.46 115.99C225.161 115.654 224.79 115.39 224.374 115.217C223.959 115.044 223.51 114.966 223.06 114.99C222.965 114.997 222.871 114.965 222.798 114.902C222.726 114.84 222.682 114.751 222.675 114.655C222.669 114.56 222.7 114.466 222.763 114.393C222.826 114.321 222.915 114.277 223.01 114.27C223.574 114.234 224.138 114.329 224.658 114.547C225.179 114.766 225.642 115.103 226.01 115.53C226.064 115.61 226.085 115.706 226.07 115.801C226.055 115.895 226.005 115.981 225.93 116.04C225.879 116.087 225.817 116.122 225.75 116.14V116.14Z" fill="#2E353A"/>
    <path d="M215.84 114.88C215.777 114.88 215.715 114.863 215.661 114.831C215.607 114.8 215.561 114.754 215.53 114.7C215.505 114.66 215.489 114.614 215.482 114.568C215.475 114.521 215.478 114.473 215.49 114.427C215.502 114.381 215.523 114.338 215.553 114.301C215.582 114.264 215.618 114.233 215.66 114.21C216.08 113.926 216.56 113.741 217.063 113.67C217.565 113.599 218.077 113.643 218.56 113.8C218.646 113.841 218.714 113.914 218.749 114.003C218.784 114.092 218.785 114.191 218.75 114.28C218.709 114.366 218.636 114.434 218.547 114.469C218.458 114.504 218.359 114.505 218.27 114.47C217.892 114.357 217.493 114.33 217.104 114.393C216.714 114.455 216.344 114.604 216.02 114.83C215.965 114.862 215.903 114.879 215.84 114.88Z" fill="#2E353A"/>
    <path d="M219.23 125.29C219.493 126.026 219.701 126.782 219.85 127.55H220.27C222.14 127.47 222.97 126.81 223.34 126.11C223.504 125.76 223.586 125.377 223.58 124.99C223.582 124.771 223.555 124.552 223.5 124.34C222.372 124.909 221.133 125.227 219.87 125.27C219.48 125.29 219.23 125.29 219.23 125.29Z" fill="#263238"/>
    <path d="M219.87 125.25L220.07 125.91C221.83 125.83 223.07 125.53 223.58 124.97C223.582 124.751 223.555 124.533 223.5 124.32C222.372 124.89 221.133 125.207 219.87 125.25V125.25Z" fill="white"/>
    <path d="M220.27 127.53C222.14 127.45 222.97 126.79 223.34 126.09C222.629 126.135 221.932 126.304 221.28 126.59C220.854 126.791 220.501 127.119 220.27 127.53Z" fill="#DE5753"/>
    <path d="M230.49 121.13C230.49 121.13 227.79 115.72 228.49 111.7C228.49 111.7 216.12 105.84 214.79 118.7C214.79 118.7 214.18 107.23 225.17 107.57C236.16 107.91 235.23 123.97 229.3 128.44C229.28 128.39 232.16 124.51 230.49 121.13Z" fill="#263238"/>
    <path d="M231.14 109.38C231.14 109.38 226.14 104.93 221.6 105.77C217.06 106.61 217.84 112.6 223.82 114.87C229.8 117.14 231.04 120.07 231.04 120.07L236.23 115.42L231.14 109.38Z" fill="#263238"/>
    <path d="M232.23 120.41L231.74 120.3C231.74 120.3 231.93 118.81 227.99 117.43C223.83 115.98 219.11 114.33 218.48 111C218.345 110.526 218.311 110.029 218.382 109.541C218.453 109.053 218.626 108.586 218.89 108.17C219.052 107.958 219.255 107.781 219.487 107.648C219.719 107.516 219.975 107.432 220.24 107.4V107.9C220.043 107.925 219.853 107.989 219.681 108.088C219.509 108.188 219.359 108.321 219.24 108.48C219.02 108.84 218.879 109.243 218.826 109.662C218.772 110.081 218.808 110.506 218.93 110.91C219.5 113.96 224.08 115.55 228.12 116.96C232.56 118.5 232.24 120.33 232.23 120.41Z" fill="#263238"/>
    <path d="M229.37 122.42C229.477 121.686 229.868 121.024 230.46 120.577C231.051 120.129 231.795 119.933 232.53 120.03C234.53 120.35 235.22 124.47 230.24 125.17C229.53 125.27 229.17 124.56 229.37 122.42Z" fill="#EBB376"/>
    <path d="M233.7 139.81C233.7 139.81 226.54 145.62 219.87 145.53C213.2 145.44 210.87 137.94 210.87 137.94C218.491 136.2 226.464 136.853 233.7 139.81V139.81Z" fill="#EBB376"/>
    <path d="M239.45 140.71L238.82 148.25L238.64 150.41L238.29 154.65L236.65 174.34L236.41 177.14H228.88C228.813 176.6 228.753 176.04 228.7 175.46C228.64 174.93 228.6 174.39 228.56 173.83V173.32C228.24 168.83 228.2 163.62 228.29 158.6C228.29 156.42 228.39 154.27 228.46 152.24C228.46 151.34 228.53 150.46 228.57 149.61C228.61 148.76 228.63 148.18 228.66 147.51C228.66 147.46 228.66 147.41 228.66 147.36C228.66 147.23 228.66 147.11 228.66 146.98C228.66 146.1 228.75 145.26 228.79 144.48C228.79 144.01 228.85 143.56 228.87 143.14C228.865 143.097 228.865 143.053 228.87 143.01C228.87 142.7 228.87 142.4 228.87 142.12C228.99 140.12 229.09 138.79 229.12 138.41C229.122 138.374 229.122 138.337 229.12 138.3C231.723 138.677 234.293 139.249 236.81 140.01L238.3 140.45L238.97 140.66L239.2 140.73H239.34L239.45 140.71Z" fill="#38B6FF"/>
    <path opacity="0.4" d="M230.28 147.91L232.15 150.78L228.25 158.53C228.43 147.93 229.18 138.22 229.18 138.22L235.13 143.76L230.28 147.91Z" fill="white"/>
    <path opacity="0.4" d="M215.83 137C215.67 137.29 212.23 143.54 209.49 155.53L208.26 147.81L210.85 145.53L208.26 140.59L215.83 137Z" fill="white"/>
    <path d="M249.47 164C249.354 164.334 249.162 164.636 248.91 164.883C248.658 165.131 248.352 165.317 248.017 165.427C247.681 165.537 247.325 165.569 246.975 165.519C246.625 165.469 246.292 165.34 246 165.14C244.766 164.45 243.716 163.472 242.94 162.29C242.32 161.4 241.49 160.06 240.63 158.64C238.8 155.57 236.9 152.17 236.9 152.17L239.46 140.68C243.14 142.47 250.85 161.06 249.47 164Z" fill="#38B6FF"/>
    <path opacity="0.2" d="M246 165.17C244.766 164.48 243.716 163.503 242.94 162.32C242.32 161.43 241.49 160.09 240.63 158.67C241.283 157.477 242.007 156.325 242.8 155.22L244.66 160.45C244.66 160.45 247.92 161.19 248.44 162.89C248.64 163.54 247.53 164.45 246 165.17Z" fill="black"/>
    <path d="M245.89 150.23L239.73 173.71C239.652 173.984 239.479 174.221 239.243 174.38C239.007 174.539 238.723 174.61 238.44 174.58L222.09 172.4C221.96 172.386 221.834 172.344 221.722 172.277C221.61 172.209 221.515 172.117 221.442 172.009C221.37 171.9 221.322 171.776 221.303 171.647C221.283 171.517 221.293 171.385 221.33 171.26L227.49 147.78C227.57 147.508 227.743 147.273 227.979 147.116C228.215 146.959 228.498 146.89 228.78 146.92L245.13 149.09C245.26 149.104 245.386 149.146 245.498 149.213C245.61 149.281 245.705 149.373 245.778 149.482C245.85 149.59 245.898 149.714 245.917 149.843C245.937 149.973 245.927 150.105 245.89 150.23V150.23Z" fill="#263238"/>
    <path opacity="0.1" d="M245.89 150.23L239.73 173.71C239.652 173.983 239.479 174.221 239.244 174.38C239.008 174.539 238.723 174.61 238.44 174.58L222.84 172.5C222.71 172.486 222.584 172.444 222.472 172.376C222.36 172.309 222.264 172.217 222.19 172.109C222.117 172 222.068 171.877 222.047 171.748C222.027 171.618 222.034 171.486 222.07 171.36L228.24 147.88C228.317 147.608 228.487 147.372 228.722 147.214C228.957 147.057 229.239 146.988 229.52 147.02L245.13 149.09C245.26 149.103 245.386 149.146 245.498 149.213C245.61 149.281 245.705 149.372 245.778 149.481C245.851 149.59 245.898 149.714 245.918 149.843C245.937 149.972 245.928 150.104 245.89 150.23V150.23Z" fill="white"/>
    <path opacity="0.3" d="M234.54 159.19C234.137 159.144 233.731 159.242 233.394 159.467C233.057 159.692 232.811 160.03 232.7 160.42C232.648 160.599 232.636 160.788 232.664 160.973C232.693 161.157 232.761 161.334 232.865 161.489C232.969 161.644 233.106 161.775 233.265 161.872C233.425 161.969 233.604 162.03 233.79 162.05C234.195 162.096 234.604 161.997 234.943 161.77C235.282 161.543 235.529 161.202 235.64 160.81C235.454 160.792 235.274 160.734 235.113 160.639C234.952 160.543 234.814 160.414 234.709 160.259C234.604 160.104 234.534 159.928 234.505 159.743C234.476 159.558 234.488 159.37 234.54 159.19Z" fill="white"/>
    <path d="M247.22 169.57C246.12 170.15 243.63 169.27 242.88 168.97L242.64 168.88C242.64 168.88 241.29 164.45 244.82 162.06L244.9 162.01C246.03 161.41 249.51 162.19 249.62 163.36C250 168.09 248.53 168.88 247.22 169.57Z" fill="#38B6FF"/>
    <path opacity="0.2" d="M245.07 165.79C244.731 167.072 243.957 168.196 242.88 168.97L242.64 168.88C242.64 168.88 241.29 164.45 244.82 162.06L244.9 162.01C245.21 162.41 245.69 163.46 245.07 165.79Z" fill="black"/>
    <path d="M240 160.18C240 160.18 242.27 160.08 243.31 160.18C244.35 160.28 244.03 163.63 244.03 163.63L244.93 164.11C244.93 164.11 245.65 166.11 244.1 167.11L243.29 166.84C243.143 167.321 242.841 167.74 242.43 168.03C241.78 168.42 238.62 167.53 238.62 167.53L240 160.18Z" fill="#EBB376"/>
    <path opacity="0.6" d="M134.97 63.77H137.01V61.05H134.97V63.77Z" fill="white"/>
    <path opacity="0.6" d="M131.64 63.77H133.68V60.15H131.64V63.77Z" fill="white"/>
    <path opacity="0.6" d="M128.33 63.77H130.37V59.24H128.33V63.77Z" fill="white"/>
    <path opacity="0.6" d="M125 63.77H127.04V58.33H125V63.77Z" fill="white"/>
    <path opacity="0.6" d="M244.41 60.0601H243.2V62.7801H244.41V60.0601Z" fill="white"/>
    <path opacity="0.6" d="M245.24 63.77H254.87V59.07H245.24V63.77Z" fill="white"/>
    <g opacity="0.1">
        <path opacity="0.1" d="M182.6 59.3301L140.48 217.09L140.01 218.87L139.25 221.71L138.77 223.48L116.77 305.86V206.16L158 51.8301H159.34C159.888 51.8392 160.42 52.0116 160.869 52.3251C161.318 52.6387 161.663 53.0791 161.86 53.5901L163.49 57.5901C163.689 58.098 164.035 58.535 164.484 58.845C164.933 59.155 165.464 59.3239 166.01 59.3301H182.6Z" fill="white"/>
        <path opacity="0.1" d="M263.08 139.9V239.6L237.18 336.63H210.56L213.73 324.76L214.43 322.15L215.82 316.94L216.52 314.33L217.91 309.11L218.6 306.51L240.5 224.49V224.48L241.51 220.69V220.68L263.08 139.9Z" fill="white"/>
        <path opacity="0.1" d="M197 59.3301L155.16 216.11L154.91 217.05L152.62 225.64L152.37 226.57L123 336.63H120.72C120.209 336.636 119.701 336.54 119.227 336.348C118.753 336.155 118.323 335.871 117.96 335.51C117.775 335.332 117.611 335.134 117.47 334.92L146.4 226.57L146.65 225.64L148.94 217.05L149.19 216.11L191 59.3301H197Z" fill="white"/>
    </g>
    <path d="M424.24 222.24H314.39C312.184 222.286 310.066 223.116 308.416 224.582C306.767 226.048 305.694 228.054 305.39 230.24L292.64 334.39H418.45L431.24 230.22C431.397 229.219 431.332 228.197 431.05 227.224C430.768 226.251 430.276 225.352 429.608 224.591C428.94 223.83 428.113 223.225 427.186 222.818C426.258 222.412 425.252 222.215 424.24 222.24Z" fill="#263238"/>
    <path opacity="0.6" d="M424.24 222.24H314.39C312.184 222.286 310.066 223.116 308.416 224.582C306.767 226.048 305.694 228.054 305.39 230.24L292.64 334.39H418.45L431.24 230.22C431.397 229.219 431.332 228.197 431.05 227.224C430.768 226.251 430.276 225.352 429.608 224.591C428.94 223.83 428.113 223.225 427.186 222.818C426.258 222.412 425.252 222.215 424.24 222.24Z" fill="white"/>
    <path opacity="0.2" d="M394.12 334.39H418.45L431.24 230.22C431.4 229.218 431.338 228.193 431.058 227.218C430.777 226.243 430.285 225.341 429.617 224.578C428.949 223.814 428.121 223.207 427.191 222.799C426.262 222.392 425.254 222.194 424.24 222.22H415.88C413.674 222.268 411.557 223.099 409.908 224.564C408.259 226.03 407.186 228.035 406.88 230.22L394.12 334.39Z" fill="black"/>
    <path d="M411.4 362.11H402.87L399.39 335.5H414.01L411.4 362.11Z" fill="#263238"/>
    <path d="M373.97 362.11H365.45L361.97 335.5H376.58L373.97 362.11Z" fill="#263238"/>
    <path d="M310.44 362.11H301.92L298.44 335.5H313.05L310.44 362.11Z" fill="#263238"/>
    <path d="M273.02 362.11H264.49L261.01 335.5H275.63L273.02 362.11Z" fill="#263238"/>
    <path opacity="0.2" d="M373.97 362.11H365.45L361.97 335.5H376.58L373.97 362.11Z" fill="white"/>
    <path opacity="0.2" d="M273.02 362.11H264.49L261.01 335.5H275.63L273.02 362.11Z" fill="white"/>
    <path d="M417.66 333.81L416.89 343.61C416.862 343.954 416.706 344.275 416.452 344.508C416.198 344.742 415.865 344.871 415.52 344.87H260.16C259.815 344.871 259.482 344.742 259.228 344.508C258.974 344.275 258.818 343.954 258.79 343.61L258.02 333.81H417.66Z" fill="#263238"/>
    <path opacity="0.2" d="M380.66 333.81L379.89 343.61C379.862 343.954 379.706 344.275 379.452 344.508C379.198 344.742 378.865 344.871 378.52 344.87H260.16C259.815 344.871 259.482 344.742 259.228 344.508C258.974 344.275 258.818 343.954 258.79 343.61L258.02 333.81H380.66Z" fill="white"/>
    <path d="M360.16 311.21H312.16L308.67 271.27C308.34 267.45 306.589 263.893 303.764 261.301C300.938 258.709 297.244 257.271 293.41 257.27H242.29C241.397 257.271 240.515 257.457 239.698 257.817C238.882 258.177 238.149 258.703 237.546 259.361C236.943 260.019 236.484 260.795 236.197 261.64C235.91 262.485 235.802 263.381 235.88 264.27L236.68 273.46C236.809 274.925 237.435 276.301 238.453 277.361C239.472 278.421 240.822 279.102 242.28 279.29L244.09 279.52C245.177 279.657 246.185 280.163 246.946 280.952C247.706 281.742 248.173 282.768 248.27 283.86L252.68 334.24C252.835 336.011 253.648 337.66 254.958 338.861C256.269 340.063 257.982 340.729 259.76 340.73H360.16V311.21Z" fill="#263238"/>
    <path opacity="0.6" d="M360.16 311.21H312.16L308.67 271.27C308.34 267.45 306.589 263.893 303.764 261.301C300.938 258.709 297.244 257.271 293.41 257.27H242.29C241.397 257.271 240.515 257.457 239.698 257.817C238.882 258.177 238.149 258.703 237.546 259.361C236.943 260.019 236.484 260.795 236.197 261.64C235.91 262.485 235.802 263.381 235.88 264.27L236.68 273.46C236.809 274.925 237.435 276.301 238.453 277.361C239.472 278.421 240.822 279.102 242.28 279.29L244.09 279.52C245.177 279.657 246.185 280.163 246.946 280.952C247.706 281.742 248.173 282.768 248.27 283.86L252.68 334.24C252.835 336.011 253.648 337.66 254.958 338.861C256.269 340.063 257.982 340.729 259.76 340.73H360.16V311.21Z" fill="white"/>
    <path opacity="0.2" d="M273.27 271.27C272.942 267.451 271.194 263.894 268.37 261.302C265.546 258.71 261.853 257.271 258.02 257.27H293.41C297.244 257.271 300.939 258.709 303.764 261.301C306.589 263.893 308.34 267.45 308.67 271.27L312.16 311.21H276.77L273.27 271.27Z" fill="black"/>
    <path opacity="0.1" d="M360.16 311.21H276.77L273.27 271.27C272.942 267.451 271.193 263.894 268.37 261.302C265.546 258.71 261.853 257.271 258.02 257.27H242.29C241.397 257.271 240.515 257.457 239.698 257.817C238.882 258.177 238.149 258.703 237.546 259.361C236.943 260.019 236.484 260.795 236.197 261.64C235.91 262.485 235.802 263.381 235.88 264.27L236.68 273.46C236.809 274.925 237.435 276.301 238.453 277.361C239.472 278.421 240.822 279.102 242.28 279.29L244.09 279.52C245.177 279.657 246.185 280.163 246.946 280.952C247.706 281.742 248.173 282.768 248.27 283.86L252.68 334.24C252.835 336.011 253.648 337.66 254.958 338.861C256.269 340.063 257.982 340.729 259.76 340.73H360.16V311.21Z" fill="white"/>
    <path d="M351.88 231.5C348.232 230.409 344.733 228.875 341.46 226.93C340.516 226.344 339.661 225.627 338.92 224.8C338.735 224.591 338.568 224.367 338.42 224.13C341.99 211.67 345.6 206.21 353.16 205.64C358.93 213.06 351.88 231.5 351.88 231.5Z" fill="#263238"/>
    <path opacity="0.2" d="M341.46 226.93C340.516 226.345 339.661 225.628 338.92 224.8C339.546 223.492 340.322 222.261 341.23 221.13C342.06 222.96 342.143 225.041 341.46 226.93V226.93Z" fill="black"/>
    <path d="M212.62 357.31L207.19 350.33L223.69 337.88L229.12 344.85L212.62 357.31Z" fill="#FFC3BD"/>
    <path opacity="0.2" d="M229.12 344.85L223.68 337.88L215.18 344.3L220.62 351.28L229.12 344.85Z" fill="black"/>
    <path d="M210.35 347.64L218.6 353.26C218.743 353.355 218.847 353.499 218.891 353.665C218.936 353.831 218.917 354.007 218.84 354.16L215.33 361.32C215.236 361.498 215.105 361.654 214.946 361.778C214.787 361.901 214.604 361.99 214.409 362.038C214.214 362.086 214.01 362.093 213.812 362.057C213.614 362.021 213.426 361.944 213.26 361.83C210.42 359.83 209.15 358.7 205.53 356.23C203.3 354.71 198.14 351.67 195.06 349.57C191.98 347.47 193.89 344.31 195.36 344.91C201.95 347.6 205.77 347.56 208.81 347.25C209.353 347.199 209.897 347.337 210.35 347.64V347.64Z" fill="#263238"/>
    <path d="M205.83 345.51C205.809 345.626 205.809 345.744 205.83 345.86C206.09 346.94 207.97 347.81 209.06 348.23C209.088 348.249 209.121 348.259 209.155 348.259C209.189 348.259 209.222 348.249 209.25 348.23C209.267 348.201 209.275 348.169 209.275 348.135C209.275 348.102 209.267 348.069 209.25 348.04C209.11 347.71 207.87 344.76 206.77 344.57C206.65 344.549 206.527 344.561 206.413 344.603C206.298 344.645 206.197 344.716 206.12 344.81C205.96 345.012 205.859 345.254 205.83 345.51V345.51ZM208.83 347.75C207.32 347.12 206.35 346.39 206.2 345.75C206.171 345.611 206.179 345.467 206.223 345.332C206.267 345.197 206.345 345.076 206.45 344.98C206.486 344.928 206.537 344.888 206.595 344.865C206.654 344.842 206.718 344.837 206.78 344.85C207.45 345 208.37 346.73 208.83 347.75Z" fill="#38B6FF"/>
    <path d="M208.61 345.33C208.52 346.284 208.653 347.247 209 348.14C209.011 348.168 209.031 348.193 209.055 348.211C209.08 348.228 209.11 348.238 209.14 348.24C209.17 348.244 209.201 348.24 209.23 348.227C209.258 348.215 209.282 348.195 209.3 348.17C209.36 348.08 210.79 345.97 210.47 344.73C210.435 344.578 210.366 344.435 210.269 344.312C210.173 344.19 210.05 344.09 209.91 344.02C209.777 343.933 209.619 343.893 209.461 343.908C209.303 343.922 209.154 343.99 209.04 344.1C208.763 344.451 208.612 344.884 208.61 345.33V345.33ZM209.19 347.68C208.87 346.68 208.79 344.83 209.28 344.35C209.36 344.27 209.49 344.2 209.75 344.35C209.846 344.398 209.93 344.467 209.995 344.552C210.061 344.637 210.107 344.735 210.13 344.84C210.35 345.66 209.56 347.08 209.19 347.68V347.68Z" fill="#38B6FF"/>
    <path d="M355.55 213.45L355.68 213.99L355.77 214.41L355.92 215.2C356.01 215.72 356.08 216.2 356.14 216.73C356.25 217.73 356.31 218.73 356.33 219.73C356.361 221.739 356.211 223.748 355.88 225.73C355.219 229.728 353.793 233.562 351.68 237.02C350.622 238.73 349.41 240.34 348.06 241.83C347.39 242.57 346.67 243.25 345.96 243.92L344.85 244.92C344.45 245.24 344.02 245.54 343.58 245.84C341.627 247.161 339.396 248.013 337.06 248.33C335.684 248.498 334.287 248.361 332.97 247.93C332.292 247.682 331.65 247.346 331.06 246.93C330.764 246.724 330.483 246.496 330.22 246.25L329.83 245.85L329.35 245.28C328.873 244.745 328.623 244.045 328.652 243.329C328.682 242.613 328.989 241.936 329.509 241.442C330.029 240.948 330.72 240.676 331.437 240.683C332.154 240.69 332.84 240.976 333.35 241.48C333.26 241.36 333.35 241.39 333.35 241.36H333.47L333.74 241.29C333.91 241.238 334.075 241.168 334.23 241.08C334.552 240.901 334.86 240.697 335.15 240.47C335.991 239.801 336.768 239.054 337.47 238.24L338.11 237.51L338.84 236.75C339.31 236.22 339.77 235.7 340.18 235.15C341.019 234.077 341.762 232.933 342.4 231.73C343.649 229.335 344.481 226.744 344.86 224.07C345.049 222.719 345.132 221.354 345.11 219.99C345.11 219.31 345.11 218.63 345 217.99L344.9 216.99L344.79 216.26L344.69 215.61C344.475 214.196 344.816 212.753 345.641 211.584C346.466 210.415 347.712 209.611 349.116 209.34C350.521 209.068 351.976 209.351 353.177 210.128C354.378 210.906 355.232 212.117 355.56 213.51L355.55 213.45Z" fill="#CE7A63"/>
    <path d="M341.71 218.19C340.573 223.067 339.768 228.015 339.3 233C338.44 240.24 337.82 247.41 336.99 259.38L373.24 265.12C374.13 254.79 377.16 243.34 387.31 221.39C387.884 220.25 388.195 218.996 388.221 217.719C388.247 216.443 387.988 215.177 387.461 214.014C386.935 212.851 386.155 211.821 385.179 210.998C384.203 210.176 383.055 209.582 381.82 209.26C380.4 208.89 378.9 208.52 377.35 208.2C371.933 206.938 366.432 206.069 360.89 205.6C359.07 205.47 357.18 205.41 355.37 205.37C348.83 205.22 342.91 211.84 341.71 218.19Z" fill="#263238"/>
    <path d="M375 189.49C373.55 194.85 371.76 204.68 375.24 208.26C375.24 208.26 370.16 207.49 359.37 214.15C356.25 209.67 358.57 208.24 358.57 208.24C364.66 206.82 364.84 202.38 364.11 198.24L375 189.49Z" fill="#CE7A63"/>
    <path opacity="0.2" d="M370.57 193.05L364.13 198.21C364.312 199.2 364.409 200.204 364.42 201.21C366.73 200.88 370.06 198.38 370.48 195.99C370.695 195.025 370.725 194.027 370.57 193.05V193.05Z" fill="black"/>
    <path d="M357.22 184.24C357.33 186.99 355.67 189.24 353.53 189.37C351.39 189.5 349.53 187.29 349.44 184.54C349.35 181.79 350.99 179.54 353.14 179.41C355.29 179.28 357.12 181.49 357.22 184.24Z" fill="#38B6FF"/>
    <path d="M360 184.29C360.13 187.81 358 190.74 355.28 190.85C352.56 190.96 350.2 188.19 350.07 184.68C349.94 181.17 352.07 178.23 354.79 178.12C357.51 178.01 359.81 180.78 360 184.29Z" fill="#263238"/>
    <path opacity="0.2" d="M360 184.29C360.13 187.81 358 190.74 355.28 190.85C352.56 190.96 350.2 188.19 350.07 184.68C349.94 181.17 352.07 178.23 354.79 178.12C357.51 178.01 359.81 180.78 360 184.29Z" fill="black"/>
    <path d="M375.12 167.89C375.12 167.89 377.79 160.54 383.78 161.99C389.77 163.44 391.21 168.99 389.21 175.62C387.21 182.25 389.9 183.62 389.9 183.62C389.9 183.62 382.9 184.77 382.29 176.75C381.68 168.73 377.55 171.23 377.55 171.23L375.12 167.89Z" fill="#263238"/>
    <path d="M374.76 176.35C375.6 185.13 376.13 188.81 372.54 194.17C367.13 202.24 356.4 201.89 353.02 193.68C350.02 186.29 349.11 173.19 356.89 167.97C358.522 166.789 360.44 166.066 362.445 165.877C364.451 165.687 366.471 166.039 368.295 166.894C370.118 167.749 371.68 169.077 372.817 170.74C373.954 172.403 374.625 174.34 374.76 176.35V176.35Z" fill="#CE7A63"/>
    <path d="M364.53 180.81C364.63 181.54 364.34 182.21 363.88 182.31C363.42 182.41 362.97 181.89 362.88 181.16C362.79 180.43 363.06 179.75 363.52 179.66C363.98 179.57 364.43 180.07 364.53 180.81Z" fill="#263238"/>
    <path d="M355.51 182.42C355.61 183.15 355.32 183.82 354.86 183.92C354.4 184.02 353.95 183.5 353.86 182.77C353.77 182.04 354.05 181.36 354.51 181.27C354.97 181.18 355.41 181.68 355.51 182.42Z" fill="#263238"/>
    <path d="M354.7 181.26L352.94 181.11C352.94 181.11 354 182.31 354.7 181.26Z" fill="#263238"/>
    <path d="M358.47 183.45C358.077 185.26 357.452 187.011 356.61 188.66C357.011 188.857 357.453 188.959 357.9 188.959C358.347 188.959 358.788 188.857 359.19 188.66L358.47 183.45Z" fill="#BA4D3C"/>
    <path d="M363.62 190.48C363.242 190.634 362.85 190.751 362.45 190.83C362.424 190.836 362.396 190.836 362.37 190.831C362.343 190.825 362.318 190.814 362.296 190.798C362.275 190.782 362.257 190.761 362.243 190.737C362.23 190.714 362.222 190.687 362.22 190.66C362.211 190.604 362.223 190.545 362.255 190.497C362.286 190.449 362.334 190.415 362.39 190.4C363.292 190.216 364.141 189.831 364.873 189.274C365.605 188.716 366.203 188.001 366.62 187.18C366.64 187.126 366.681 187.082 366.733 187.058C366.786 187.034 366.846 187.031 366.9 187.05C366.951 187.076 366.99 187.121 367.009 187.175C367.028 187.229 367.024 187.289 367 187.34C366.299 188.768 365.095 189.886 363.62 190.48V190.48Z" fill="#263238"/>
    <path d="M365.22 175.93C365.169 175.957 365.113 175.972 365.055 175.972C364.997 175.972 364.941 175.957 364.89 175.93C364.451 175.641 363.946 175.467 363.422 175.424C362.898 175.38 362.371 175.468 361.89 175.68C361.841 175.705 361.788 175.72 361.733 175.723C361.678 175.727 361.623 175.719 361.571 175.7C361.52 175.681 361.473 175.652 361.433 175.614C361.393 175.576 361.361 175.531 361.34 175.48C361.296 175.373 361.294 175.254 361.332 175.145C361.371 175.036 361.449 174.946 361.55 174.89C362.155 174.619 362.819 174.503 363.48 174.551C364.142 174.6 364.781 174.813 365.34 175.17C365.434 175.235 365.499 175.334 365.521 175.446C365.544 175.558 365.522 175.674 365.46 175.77C365.4 175.849 365.316 175.905 365.22 175.93Z" fill="#263238"/>
    <path d="M351.16 178.37C351.061 178.411 350.949 178.411 350.85 178.37C350.747 178.322 350.666 178.236 350.625 178.13C350.584 178.023 350.586 177.905 350.63 177.8C350.865 177.146 351.247 176.554 351.746 176.071C352.245 175.587 352.849 175.224 353.51 175.01C353.564 174.999 353.62 174.998 353.674 175.008C353.728 175.019 353.779 175.04 353.825 175.071C353.871 175.102 353.91 175.141 353.94 175.188C353.97 175.234 353.991 175.286 354 175.34C354.019 175.455 353.995 175.573 353.932 175.67C353.869 175.768 353.772 175.84 353.66 175.87C353.139 176.047 352.666 176.34 352.274 176.726C351.883 177.112 351.584 177.582 351.4 178.1C351.38 178.159 351.348 178.213 351.307 178.259C351.266 178.305 351.216 178.343 351.16 178.37V178.37Z" fill="#263238"/>
    <path d="M363.72 179.65L362 179.5C362 179.5 363 180.69 363.72 179.65Z" fill="#263238"/>
    <path d="M365.65 169.62C366.051 171.497 366.868 173.259 368.041 174.777C369.215 176.295 370.715 177.53 372.43 178.39L373.54 185.01L374.9 189.06C374.9 189.06 381.77 187.6 380.59 176.06C379.79 168.3 376.14 166.06 373.59 165.39C372.176 165.056 370.852 164.418 369.71 163.52C368.05 162.17 364.71 160.85 358.55 163.17C349.46 166.6 352.08 174.24 352.08 174.24C353.155 172.501 354.647 171.057 356.42 170.04C358.92 168.76 363.3 168.09 365.65 169.62Z" fill="#263238"/>
    <path d="M378.69 182.89C378.083 184.659 376.799 186.116 375.12 186.94C372.94 187.94 371.55 185.87 371.9 183.44C372.21 181.25 373.72 178.09 376.02 178.12C378.32 178.15 379.48 180.65 378.69 182.89Z" fill="#CE7A63"/>
    <path d="M379.19 183.29C379.32 186.8 377.19 189.74 374.47 189.84C371.75 189.94 369.39 187.19 369.26 183.67C369.13 180.15 371.26 177.23 373.98 177.12C376.7 177.01 379.05 179.78 379.19 183.29Z" fill="#263238"/>
    <path opacity="0.2" d="M379.19 183.29C379.32 186.8 377.19 189.74 374.47 189.84C371.75 189.94 369.39 187.19 369.26 183.67C369.13 180.15 371.26 177.23 373.98 177.12C376.7 177.01 379.05 179.78 379.19 183.29Z" fill="black"/>
    <path d="M374.89 179.23C374.89 179.23 374.96 167.37 370.89 164.3L374.02 165.61C376.413 169.864 377.423 174.757 376.91 179.61L374.89 179.23Z" fill="#38B6FF"/>
    <path opacity="0.2" d="M374.89 179.23C374.89 179.23 374.96 167.37 370.89 164.3L374.02 165.61C376.413 169.864 377.423 174.757 376.91 179.61L374.89 179.23Z" fill="black"/>
    <path d="M379.53 183.55C379.64 186.3 377.99 188.55 375.84 188.68C373.69 188.81 371.84 186.6 371.75 183.85C371.66 181.1 373.3 178.85 375.45 178.72C377.6 178.59 379.43 180.8 379.53 183.55Z" fill="#38B6FF"/>
    <path d="M324.8 239.23L325.18 241.59C325.249 242.028 325.42 242.443 325.681 242.801C325.942 243.159 326.284 243.45 326.68 243.65L330.45 245.52C331.192 245.889 332.01 246.075 332.839 246.063C333.667 246.051 334.48 245.841 335.21 245.45L336.13 244.96C335.78 240.96 332.47 236.96 332.47 236.96L331.66 235.71C331.501 235.447 331.292 235.218 331.044 235.037C330.795 234.856 330.514 234.727 330.215 234.656C329.916 234.585 329.606 234.575 329.303 234.625C329 234.676 328.71 234.786 328.45 234.95L325.95 236.53C325.517 236.819 325.177 237.229 324.973 237.709C324.768 238.188 324.708 238.717 324.8 239.23Z" fill="#CE7A63"/>
    <path d="M368.85 307C354.85 316.39 323.27 310.56 294.63 304.46C290.92 309.475 286.573 313.986 281.7 317.88C268 329.15 250 338.18 238.21 343.44C230.85 346.74 225.89 348.56 225.89 348.56L218.25 339.09C218.25 339.09 234.75 326.25 252.99 312.25C265.39 302.72 278.59 292.64 287.93 285.7C288.445 285.33 289.02 285.053 289.63 284.88H289.68C290.586 284.646 291.515 284.515 292.45 284.49L294.45 284.36L296.04 284.26C305.92 283.6 327.52 282.45 327.52 282.45L337.6 259.1L374.22 261.41C374.22 261.41 381 298.86 368.85 307Z" fill="#38B6FF"/>
    <path d="M214.81 339.79L224.48 351.72L229.76 348.55L219.23 335.87L214.81 339.79Z" fill="#263238"/>
    <path opacity="0.2" d="M299.63 284.41C294.238 295.854 288.253 307.009 281.7 317.83C268 329.15 250 338.18 238.21 343.44C241.597 332.379 246.579 321.872 253 312.25C254.8 309.56 256.78 306.84 259 304.14C269.69 290.86 281.54 286.33 289.68 284.88H289.73C290.73 284.7 291.63 284.58 292.5 284.49C293.85 284.34 295.05 284.28 296.06 284.26C297.252 284.222 298.445 284.272 299.63 284.41Z" fill="black"/>
    <path d="M246.98 352.36L238.86 348.86L247.34 330.01L255.46 333.5L246.98 352.36Z" fill="#FFC3BD"/>
    <path opacity="0.2" d="M255.46 333.51L247.33 330.01L242.97 339.73L251.09 343.23L255.46 333.51Z" fill="black"/>
    <path d="M240.34 345L250.27 346C250.441 346.015 250.601 346.09 250.721 346.214C250.84 346.337 250.911 346.499 250.92 346.67L251.29 354.67C251.291 354.871 251.25 355.069 251.169 355.253C251.089 355.437 250.971 355.602 250.823 355.737C250.676 355.873 250.501 355.976 250.311 356.04C250.121 356.105 249.92 356.128 249.72 356.11C246.26 355.71 244.61 355.35 240.24 354.92C237.55 354.66 231.57 354.48 227.86 354.12C224.15 353.76 224.31 350.12 225.86 349.89C232.94 349.07 236.26 347.2 238.79 345.47C239.234 345.133 239.784 344.967 240.34 345V345Z" fill="#263238"/>
    <path d="M235.36 345.29C235.406 345.397 235.47 345.496 235.55 345.58C236.29 346.41 238.36 346.26 239.55 346.1C239.583 346.096 239.615 346.082 239.641 346.061C239.668 346.04 239.688 346.012 239.7 345.98C239.706 345.946 239.703 345.911 239.693 345.878C239.682 345.845 239.664 345.815 239.64 345.79C239.35 345.57 236.85 343.58 235.8 343.94C235.684 343.98 235.581 344.05 235.502 344.144C235.423 344.237 235.37 344.35 235.35 344.47C235.257 344.736 235.26 345.027 235.36 345.29V345.29ZM239.05 345.81C237.43 345.98 236.23 345.81 235.81 345.35C235.716 345.243 235.652 345.112 235.626 344.971C235.599 344.83 235.611 344.685 235.66 344.55C235.665 344.487 235.688 344.427 235.727 344.377C235.767 344.327 235.82 344.29 235.88 344.27C236.53 344.05 238.17 345.14 239.05 345.81Z" fill="#38B6FF"/>
    <path d="M237.7 343.8C238.087 344.676 238.669 345.452 239.4 346.07C239.426 346.085 239.455 346.093 239.485 346.093C239.515 346.093 239.544 346.085 239.57 346.07C239.597 346.057 239.62 346.037 239.638 346.013C239.655 345.988 239.666 345.96 239.67 345.93C239.67 345.82 239.92 343.29 239.05 342.36C238.946 342.241 238.817 342.146 238.671 342.084C238.526 342.022 238.368 341.993 238.21 342C238.052 341.987 237.894 342.028 237.763 342.117C237.632 342.206 237.535 342.338 237.49 342.49C237.409 342.938 237.483 343.4 237.7 343.8V343.8ZM239.34 345.58C238.59 344.86 237.62 343.27 237.82 342.58C237.82 342.47 237.93 342.35 238.22 342.34C238.327 342.334 238.434 342.352 238.533 342.394C238.632 342.435 238.72 342.499 238.79 342.58C239.38 343.25 239.38 344.87 239.34 345.58V345.58Z" fill="#38B6FF"/>
    <path opacity="0.3" d="M368.85 307C354.85 316.39 323.27 310.56 294.63 304.46C290.92 309.475 286.573 313.986 281.7 317.88C268 329.15 250 338.18 238.21 343.44C230.85 346.74 225.89 348.56 225.89 348.56L218.25 339.09C218.25 339.09 234.75 326.25 252.99 312.25C265.39 302.72 278.59 292.64 287.93 285.7C288.445 285.33 289.02 285.053 289.63 284.88H289.68C290.586 284.646 291.515 284.515 292.45 284.49L294.45 284.36L296.04 284.26C305.92 283.6 327.52 282.45 327.52 282.45L337.6 259.1L374.22 261.41C374.22 261.41 381 298.86 368.85 307Z" fill="black"/>
    <path d="M370.73 272.82C370.73 272.82 315.97 263.32 295.38 264.19C275.25 265.04 243.08 334.24 243.08 334.24L254.68 339.24C279.14 315.32 293.3 297.76 299.63 284.44C346.77 305.98 364.51 305.8 364.51 305.8L370.73 272.82Z" fill="#38B6FF"/>
    <path opacity="0.3" d="M370.73 272.82C370.73 272.82 315.97 263.32 295.38 264.19C275.25 265.04 243.08 334.24 243.08 334.24L254.68 339.24C279.14 315.32 293.3 297.76 299.63 284.44C346.77 305.98 364.51 305.8 364.51 305.8L370.73 272.82Z" fill="black"/>
    <path d="M240.47 335.95L254.69 341.77L257.79 336.44L242.46 330.39L240.47 335.95Z" fill="#263238"/>
    <path opacity="0.2" d="M299.63 284.41C299.63 284.41 301.48 280.01 304.63 279.5C307.78 278.99 334 281.18 334 281.18L299.63 284.41Z" fill="black"/>
    <path d="M340.9 244L336.9 225.28C336.801 224.875 336.573 224.512 336.25 224.247C335.927 223.982 335.527 223.829 335.11 223.81H325.57C325.387 223.802 325.205 223.837 325.038 223.912C324.871 223.988 324.725 224.103 324.611 224.247C324.498 224.39 324.421 224.559 324.385 224.739C324.35 224.919 324.359 225.105 324.41 225.28L328.41 244C328.509 244.409 328.738 244.774 329.063 245.041C329.388 245.308 329.79 245.462 330.21 245.48H339.75C339.933 245.486 340.114 245.448 340.279 245.37C340.445 245.293 340.589 245.177 340.701 245.033C340.813 244.888 340.89 244.72 340.924 244.54C340.959 244.361 340.951 244.176 340.9 244V244Z" fill="#38B6FF"/>
    <path opacity="0.2" d="M338.85 245.45H330.2C329.78 245.432 329.378 245.277 329.053 245.011C328.728 244.744 328.499 244.379 328.4 243.97L324.4 225.25C324.349 225.074 324.34 224.889 324.375 224.709C324.411 224.529 324.488 224.36 324.601 224.216C324.715 224.073 324.861 223.958 325.028 223.882C325.195 223.806 325.377 223.771 325.56 223.78H334.21C334.627 223.799 335.027 223.952 335.35 224.217C335.673 224.482 335.901 224.844 336 225.25L340 244C340.045 244.174 340.049 244.355 340.012 244.531C339.975 244.706 339.897 244.871 339.786 245.011C339.674 245.152 339.532 245.265 339.37 245.341C339.207 245.417 339.029 245.454 338.85 245.45V245.45Z" fill="black"/>
    <path d="M336.87 234.42L339.54 233.83C340.035 233.717 340.55 233.725 341.041 233.854C341.532 233.983 341.984 234.229 342.36 234.57L345.94 237.79C346.646 238.424 347.19 239.218 347.526 240.105C347.862 240.992 347.98 241.948 347.87 242.89L347.73 244.07C343.37 245.36 337.73 243.53 337.73 243.53L336.06 243.19C335.714 243.131 335.384 243.004 335.088 242.816C334.791 242.628 334.535 242.384 334.334 242.096C334.134 241.809 333.992 241.484 333.917 241.142C333.843 240.799 333.837 240.445 333.9 240.1L334.53 236.77C334.653 236.195 334.939 235.667 335.354 235.251C335.769 234.834 336.295 234.545 336.87 234.42V234.42Z" fill="#CE7A63"/>
    <path opacity="0.6" d="M363.3 228L365.5 226C365.563 225.942 365.64 225.901 365.723 225.881C365.806 225.861 365.892 225.861 365.975 225.883C366.058 225.905 366.134 225.947 366.196 226.006C366.258 226.065 366.304 226.139 366.33 226.22L367.15 228.89C367.177 228.974 367.181 229.064 367.162 229.151C367.143 229.237 367.102 229.317 367.042 229.382C366.982 229.447 366.905 229.495 366.821 229.521C366.736 229.547 366.646 229.55 366.56 229.53L363.56 228.91C363.456 228.905 363.356 228.867 363.274 228.802C363.192 228.737 363.133 228.648 363.104 228.548C363.076 228.448 363.079 228.341 363.114 228.243C363.149 228.144 363.214 228.06 363.3 228Z" fill="white"/>
    <path opacity="0.2" d="M373.57 228.45C373.57 228.45 369.62 237.1 373.57 240.07C377.52 243.04 380.74 229.35 373.57 228.45Z" fill="black"/>
    <path d="M387.86 227.91C387.53 229.33 387.22 230.52 386.86 231.79C386.5 233.06 386.09 234.27 385.68 235.5C384.833 237.947 383.873 240.364 382.8 242.75C381.715 245.147 380.503 247.483 379.17 249.75C377.795 252.09 376.251 254.326 374.55 256.44L374.42 256.6C374.244 256.823 374.046 257.027 373.83 257.21C372.598 258.224 371.103 258.866 369.52 259.06C368.395 259.201 367.254 259.164 366.14 258.95C364.487 258.621 362.881 258.087 361.36 257.36C358.778 256.136 356.314 254.676 354 253C351.78 251.4 349.68 249.71 347.66 247.94C345.64 246.17 343.72 244.37 341.85 242.38C341.598 242.117 341.401 241.806 341.27 241.465C341.14 241.125 341.078 240.762 341.088 240.398C341.098 240.033 341.18 239.674 341.33 239.342C341.48 239.009 341.694 238.71 341.96 238.46C342.409 238.041 342.983 237.782 343.594 237.722C344.205 237.662 344.819 237.806 345.34 238.13H345.4C347.52 239.47 349.7 240.87 351.88 242.13C354.06 243.39 356.23 244.7 358.42 245.83C360.485 246.956 362.635 247.919 364.85 248.71C365.71 249.029 366.607 249.235 367.52 249.32C367.85 249.32 368.07 249.32 368.03 249.26C367.741 249.283 367.468 249.399 367.25 249.59L366.52 250.37C367.734 248.516 368.846 246.596 369.85 244.62C370.85 242.62 371.79 240.51 372.65 238.37C373.51 236.23 374.31 234.05 375.04 231.84C375.42 230.74 375.78 229.63 376.11 228.52C376.44 227.41 376.79 226.25 377.06 225.29V225.12C377.458 223.729 378.382 222.547 379.637 221.826C380.893 221.106 382.379 220.903 383.782 221.261C385.184 221.619 386.391 222.51 387.147 223.744C387.903 224.978 388.148 226.459 387.83 227.87L387.86 227.91Z" fill="#CE7A63"/>
    <path d="M384.62 210.52C390.81 214.9 391.1 221.44 387.76 233.96C383.29 236.2 372.43 233.37 372.43 233.37C372.43 233.37 375.85 213.93 384.62 210.52Z" fill="#263238"/>
    <path d="M436.2 257.29H379.82C375.986 257.291 372.292 258.729 369.466 261.321C366.641 263.913 364.89 267.47 364.56 271.29L361.07 311.23H357.07V340.77H418.74C420.519 340.77 422.233 340.103 423.545 338.902C424.858 337.701 425.673 336.052 425.83 334.28L430.23 283.9C430.326 282.808 430.794 281.782 431.554 280.992C432.315 280.203 433.322 279.697 434.41 279.56L436.22 279.33C437.679 279.142 439.031 278.462 440.051 277.402C441.071 276.342 441.699 274.965 441.83 273.5L442.63 264.31C442.711 263.418 442.604 262.518 442.318 261.669C442.031 260.821 441.57 260.041 440.965 259.38C440.36 258.72 439.624 258.192 438.803 257.832C437.983 257.473 437.096 257.288 436.2 257.29V257.29Z" fill="#263238"/>
    <path opacity="0.6" d="M436.2 257.29H379.82C375.986 257.291 372.292 258.729 369.466 261.321C366.641 263.913 364.89 267.47 364.56 271.29L361.07 311.23H357.07V340.77H418.74C420.519 340.77 422.233 340.103 423.545 338.902C424.858 337.701 425.673 336.052 425.83 334.28L430.23 283.9C430.326 282.808 430.794 281.782 431.554 280.992C432.315 280.203 433.322 279.697 434.41 279.56L436.22 279.33C437.679 279.142 439.031 278.462 440.051 277.402C441.071 276.342 441.699 274.965 441.83 273.5L442.63 264.31C442.711 263.418 442.604 262.518 442.318 261.669C442.031 260.821 441.57 260.041 440.965 259.38C440.36 258.72 439.624 258.192 438.803 257.832C437.983 257.473 437.096 257.288 436.2 257.29V257.29Z" fill="white"/>
    <g opacity="0.2">
        <path opacity="0.2" d="M385.16 334.26L389.57 283.88C389.662 282.788 390.127 281.761 390.886 280.971C391.645 280.181 392.653 279.676 393.74 279.54L395.56 279.31C397.017 279.12 398.366 278.439 399.384 277.379C400.403 276.319 401.029 274.944 401.16 273.48L401.96 264.29C402.038 263.4 401.929 262.504 401.642 261.658C401.354 260.812 400.894 260.035 400.29 259.377C399.687 258.719 398.952 258.193 398.135 257.834C397.317 257.475 396.433 257.289 395.54 257.29H436.2C437.093 257.289 437.977 257.475 438.795 257.834C439.612 258.193 440.347 258.719 440.95 259.377C441.554 260.035 442.014 260.812 442.302 261.658C442.589 262.504 442.698 263.4 442.62 264.29L441.82 273.48C441.688 274.945 441.061 276.322 440.041 277.382C439.02 278.442 437.669 279.122 436.21 279.31L434.4 279.54C433.312 279.677 432.304 280.183 431.544 280.972C430.784 281.762 430.316 282.788 430.22 283.88L425.82 334.26C425.662 336.032 424.847 337.681 423.535 338.882C422.223 340.083 420.509 340.75 418.73 340.75H378.08C379.858 340.749 381.571 340.083 382.881 338.881C384.192 337.68 385.005 336.031 385.16 334.26Z" fill="black"/>
    </g>
    <path opacity="0.1" d="M395.54 257.29H379.82C375.986 257.291 372.292 258.729 369.466 261.321C366.641 263.913 364.89 267.47 364.56 271.29L361.07 311.23H357.07V340.77H378.07C379.848 340.769 381.561 340.103 382.872 338.901C384.182 337.7 384.995 336.051 385.15 334.28L389.56 283.9C389.652 282.808 390.117 281.781 390.876 280.991C391.635 280.201 392.643 279.696 393.73 279.56L395.55 279.33C397.007 279.14 398.357 278.459 399.375 277.399C400.393 276.339 401.019 274.964 401.15 273.5L401.95 264.31C402.031 263.419 401.925 262.522 401.639 261.674C401.354 260.827 400.895 260.048 400.292 259.388C399.689 258.727 398.955 258.2 398.137 257.838C397.319 257.477 396.434 257.291 395.54 257.29Z" fill="white"/>
</svg>
