<svg width="64" height="64" viewBox="0 0 64 64" fill="none"
    xmlns="http://www.w3.org/2000/svg">
    <path d="M19 49L20 61H18H16L17 49H19Z" fill="#E6F0FC"/>
    <path d="M17.9999 44L15.3999 46.6L13.9999 48L11.6699 44.11L14.9999 43L16.9999 44H17.9999Z" fill="#E6F0FC"/>
    <path d="M20.6 46.5999L22 47.9999L24.33 44.1099L27.53 45.1799C30.7986 46.2665 33.0031 49.3254 33 52.7699V60.9999H20L19 48.9999L20.6 46.5999Z" fill="#E6F0FC"/>
    <path d="M20.5999 46.6L18.9999 49H16.9999L15.3999 46.6L17.9999 44L20.5999 46.6Z" fill="#E6F0FC"/>
    <path d="M24.33 44.11L22 48L20.6 46.6L18 44H19L21 43L24.33 44.11Z" fill="#E6F0FC"/>
    <path d="M17 48.9999L16 60.9999H3V52.7699C2.99695 49.3254 5.20141 46.2665 8.47 45.1799L11.67 44.1099L14 47.9999L15.4 46.5999L17 48.9999Z" fill="#E6F0FC"/>
    <path d="M26 19V24.07C23.36 24.41 21.97 25 19 25C15.67 25 16.33 24 13 24V28H10V23C10 20.7909 11.7909 19 14 19L26 19Z" fill="#E6F0FC"/>
    <path d="M54 14V16L51.79 16.55C51.6526 17.0569 51.451 17.5442 51.19 18L52.36 19.95L50.95 21.36L49 20.19C48.5442 20.451 48.0569 20.6526 47.55 20.79L47 23H45L44.45 20.79C43.9431 20.6526 43.4558 20.451 43 20.19L41.05 21.36L39.64 19.95L40.81 18C40.549 17.5442 40.3474 17.0569 40.21 16.55L38 16V14L40.21 13.45C40.3474 12.9431 40.549 12.4558 40.81 12L39.64 10.05L41.05 8.64L43 9.81C43.4558 9.54899 43.9431 9.34736 44.45 9.21L45 7H47L47.55 9.21C48.0569 9.34736 48.5442 9.54899 49 9.81L50.95 8.64L52.36 10.05L51.19 12C51.451 12.4558 51.6526 12.9431 51.79 13.45L54 14ZM48 15C48 13.8954 47.1046 13 46 13C44.8954 13 44 13.8954 44 15C44 16.1046 44.8954 17 46 17C47.1032 16.9967 47.9967 16.1032 48 15Z" fill="#E6F0FC"/>
    <path d="M17 28H15V30H17V28Z" fill="#071A2D"/>
    <path d="M23 28H21V30H23V28Z" fill="#071A2D"/>
    <path d="M27.85 44.23L22 42.28V40.05C25.0575 38.531 26.9935 35.414 27 32V19C27 18.4477 26.5523 18 26 18H14C11.2386 18 9 20.2386 9 23V27C7.34315 27 6 28.3431 6 30C6 31.6569 7.34315 33 9 33H9.06C9.40315 36.0362 11.2633 38.6909 14 40.05V42.28L8.15 44.23C4.4741 45.4542 1.99585 48.8956 2.00001 52.77V61C2.00001 61.5523 2.44772 62 3.00001 62H33C33.5523 62 34 61.5523 34 61V52.77C34.0042 48.8956 31.5259 45.4542 27.85 44.23H27.85ZM9 31C8.44771 31 8 30.5523 8 30C8 29.4477 8.44771 29 9 29V31ZM11 23C11.0049 21.3452 12.3452 20.0049 14 20H25V23.21C24.41 23.3 23.87 23.41 23.35 23.51C21.9216 23.8277 20.4633 23.9919 19 24C18.095 24.0502 17.1902 23.8999 16.35 23.56C15.2845 23.142 14.1435 22.9512 13 23C12.4477 23 12 23.4477 12 24V27H11V23ZM15.08 60H10V51H8V60H4V52.77C3.99399 49.7541 5.92619 47.0756 8.79 46.13L11.23 45.31L13.14 48.51C13.299 48.776 13.5723 48.9533 13.88 48.99C13.9194 48.9983 13.9597 49.0016 14 49C14.2657 49.0008 14.5208 48.8965 14.71 48.71L15.24 48.17L15.97 49.26L15.08 60ZM14.2 46.39L13.17 44.67L14.92 44.08L15.98 44.61L14.2 46.39ZM11 32V29H13C13.5523 29 14 28.5523 14 28V25.04C14.5681 25.0824 15.1255 25.2175 15.65 25.44C16.7155 25.858 17.8565 26.0488 19 26C20.591 25.9923 22.1767 25.8146 23.73 25.47C24.14 25.39 24.56 25.31 25 25.23V32C25 35.866 21.866 39 18 39C14.134 39 11 35.866 11 32H11ZM17.09 60L17.92 50H18.08L18.91 60H17.09ZM18.46 48H17.54L16.69 46.73L18 45.41L19.31 46.73L18.46 48ZM20 42.38L18.76 43H17.24L16 42.38V40.77C17.3157 41.0766 18.6843 41.0766 20 40.77V42.38ZM21.08 44.08L22.83 44.67L21.8 46.39L20.02 44.61L21.08 44.08ZM32 60H28V51H26V60H20.92L20.03 49.26L20.76 48.17L21.29 48.71C21.4791 48.8965 21.7343 49.0008 22 49C22.0403 49.0016 22.0806 48.9983 22.12 48.99C22.4277 48.9533 22.701 48.776 22.86 48.51L24.77 45.31L27.21 46.13C30.0738 47.0756 32.006 49.7541 32 52.77V60Z" fill="#071A2D"/>
    <path d="M23 33H21C21 34.1046 20.1046 35 19 35C17.8954 35 17 34.1046 17 33H15C15 35.2091 16.7909 37 19 37C21.2091 37 23 35.2091 23 33Z" fill="#071A2D"/>
    <path d="M54.242 13.03L52.575 12.613C52.504 12.413 52.425 12.226 52.338 12.038L53.222 10.565C53.4581 10.1713 53.3959 9.66738 53.071 9.343L51.657 7.929C51.3325 7.60496 50.8292 7.54313 50.436 7.779L48.962 8.663C48.774 8.575 48.5827 8.49567 48.388 8.425L47.97 6.757C47.8585 6.31207 47.4587 6.00001 47 6H45C44.5413 6.00001 44.1415 6.31207 44.03 6.757L43.612 8.425C43.4173 8.49634 43.226 8.57567 43.038 8.663L41.564 7.779C41.1707 7.54313 40.6675 7.60496 40.343 7.929L38.929 9.343C38.6041 9.66738 38.5419 10.1713 38.778 10.565L39.662 12.038C39.575 12.226 39.496 12.417 39.425 12.613L37.758 13.03C37.3127 13.1411 37.0001 13.541 37 14V16C37.0001 16.459 37.3127 16.8589 37.758 16.97L39.425 17.387C39.496 17.587 39.575 17.774 39.662 17.962L38.778 19.435C38.5419 19.8287 38.6041 20.3326 38.929 20.657L40.343 22.071C40.6675 22.395 41.1707 22.4569 41.564 22.221L43.038 21.337C43.226 21.425 43.4173 21.5043 43.612 21.575L44.03 23.243C44.1415 23.6879 44.5413 24 45 24H47C47.4587 24 47.8585 23.6879 47.97 23.243L48.388 21.575C48.5827 21.5043 48.774 21.425 48.962 21.337L50.436 22.221C50.8292 22.4569 51.3325 22.395 51.657 22.071L53.071 20.657C53.3959 20.3326 53.4581 19.8287 53.222 19.435L52.338 17.962C52.425 17.774 52.504 17.583 52.575 17.387L54.242 16.97C54.6873 16.8589 54.9999 16.459 55 16V14C54.9999 13.541 54.6873 13.1411 54.242 13.03L54.242 13.03ZM53 15.219L51.548 15.583C51.1957 15.6707 50.9185 15.9424 50.824 16.293C50.7104 16.7131 50.5423 17.1165 50.324 17.493C50.1416 17.8079 50.1447 18.197 50.332 18.509L51.102 19.792L50.792 20.101L49.509 19.332C49.197 19.1447 48.8079 19.1416 48.493 19.324C48.1165 19.5422 47.7131 19.7103 47.293 19.824C46.9423 19.9181 46.6702 20.1948 46.582 20.547L46.22 22H45.78L45.417 20.547C45.3288 20.1948 45.0567 19.9181 44.706 19.824C44.2859 19.7103 43.8825 19.5422 43.506 19.324C43.1911 19.1416 42.802 19.1447 42.49 19.332L41.207 20.101L40.9 19.8L41.67 18.517C41.8573 18.205 41.8604 17.8159 41.678 17.501C41.4596 17.1245 41.2916 16.7211 41.178 16.301C41.0835 15.9504 40.8063 15.6787 40.454 15.591L39 15.219V14.781L40.452 14.417C40.8043 14.3293 41.0815 14.0575 41.176 13.707C41.2896 13.2869 41.4576 12.8834 41.676 12.507C41.8584 12.1921 41.8553 11.803 41.668 11.491L40.898 10.208L41.208 9.89899L42.491 10.668C42.803 10.8553 43.1921 10.8584 43.507 10.676C43.8835 10.4578 44.2869 10.2897 44.707 10.176C45.0577 10.0819 45.3298 9.80519 45.418 9.45299L45.78 7.99999H46.22L46.583 9.45299C46.6712 9.80519 46.9433 10.0819 47.294 10.176C47.7141 10.2897 48.1175 10.4578 48.494 10.676C48.8089 10.8584 49.198 10.8553 49.51 10.668L50.8 9.89999L51.11 10.209L50.34 11.492C50.1527 11.804 50.1496 12.1931 50.332 12.508C50.5503 12.8844 50.7184 13.2879 50.832 13.708C50.9265 14.0585 51.2037 14.3303 51.556 14.418L53 14.781L53 15.219Z" fill="#071A2D"/>
    <path d="M46 12C44.3431 12 43 13.3431 43 15C43 16.6569 44.3431 18 46 18C47.6569 18 49 16.6569 49 15C49 13.3431 47.6569 12 46 12ZM46 16C45.4477 16 45 15.5523 45 15C45 14.4477 45.4477 14 46 14C46.5523 14 47 14.4477 47 15C47 15.5523 46.5523 16 46 16Z" fill="#071A2D"/>
    <path d="M57 2H35C32.2399 2.00331 30.0033 4.23995 30 7V23C30.0033 25.7601 32.2399 27.9967 35 28H37V33C37.0001 33.4044 37.2437 33.7689 37.6173 33.9237C37.991 34.0784 38.421 33.9929 38.707 33.707L44.414 28H57C59.7601 27.9967 61.9967 25.7601 62 23V7C61.9967 4.23995 59.7601 2.00331 57 2V2ZM60 23C60 24.6569 58.6569 26 57 26H44C43.7348 26.0001 43.4805 26.1055 43.293 26.293L39 30.586V27C39 26.4477 38.5523 26 38 26H35C33.3431 26 32 24.6569 32 23V7C32 5.34315 33.3431 4 35 4H57C58.6569 4 60 5.34315 60 7V23Z" fill="#071A2D"/>
</svg>
