<svg xmlns="http://www.w3.org/2000/svg" x="0px" y="0px" width="64" height="64" viewBox="0 0 171 171" style=" fill:#000000;">
    <g fill="none" fill-rule="nonzero" stroke="none" stroke-width="1" stroke-linecap="butt" stroke-linejoin="miter" stroke-miterlimit="10" stroke-dasharray="" stroke-dashoffset="0" font-family="none" font-weight="none" font-size="none" text-anchor="none" style="mix-blend-mode: normal">
        <path d="M0,171.99728v-171.99728h171.99728v171.99728z" fill="none"></path>
        <g fill="#071a2d">
            <path d="M114.17523,149.20318c0.73173,0.18486 1.50499,-0.06103 1.99556,-0.63457c0.53205,-0.28213 1.01884,-0.64238 1.44415,-1.06875l16.76167,-16.76167c1.13117,-1.12491 1.76522,-2.65566 1.76077,-4.25095v-91.39182c-0.0035,-2.94982 -2.39393,-5.34025 -5.34375,-5.34375h-11.22722c-1.10673,0 -2.00391,0.89718 -2.00391,2.00391c0,1.10673 0.89718,2.00391 2.00391,2.00391h11.22722c0.73782,0 1.33594,0.59812 1.33594,1.33594v90.96833h-10.79304c-4.7936,0.00534 -8.67826,3.88999 -8.68359,8.68359v10.50882h-72.44655c-0.73782,0 -1.33594,-0.59812 -1.33594,-1.33594v-108.8248c0,-0.73782 0.59812,-1.33594 1.33594,-1.33594h11.22722c1.10673,0 2.00391,-0.89718 2.00391,-2.00391c0,-1.10673 -0.89718,-2.00391 -2.00391,-2.00391h-11.22722c-2.94982,0.0035 -5.34025,2.39393 -5.34375,5.34375v108.8248c0.0035,2.94982 2.39393,5.34025 5.34375,5.34375h73.15761c0.27147,-0.00204 0.5425,-0.02235 0.81125,-0.06079zM121.33652,130.07155h8.04201l-12.71779,12.71779v-8.04201c0.00276,-2.58122 2.09456,-4.67302 4.67578,-4.67578z"></path>
            <path d="M119.56641,58.50738h-47.17963c-1.10673,0 -2.00391,0.89718 -2.00391,2.00391c0,1.10673 0.89718,2.00391 2.00391,2.00391h47.17963c1.10673,0 2.00391,-0.89718 2.00391,-2.00391c0,-1.10673 -0.89718,-2.00391 -2.00391,-2.00391z"></path>
            <path d="M119.56641,76.781h-47.17963c-1.10673,0 -2.00391,0.89718 -2.00391,2.00391c0,1.10673 0.89718,2.00391 2.00391,2.00391h47.17963c1.10673,0 2.00391,-0.89718 2.00391,-2.00391c0,-1.10673 -0.89718,-2.00391 -2.00391,-2.00391z"></path>
            <path d="M119.56641,95.05429h-47.17963c-1.10673,0 -2.00391,0.89718 -2.00391,2.00391c0,1.10673 0.89718,2.00391 2.00391,2.00391h47.17963c1.10673,0 2.00391,-0.89718 2.00391,-2.00391c0,-1.10673 -0.89718,-2.00391 -2.00391,-2.00391z"></path>
            <path d="M119.56641,113.32758h-47.17963c-1.10673,0 -2.00391,0.89718 -2.00391,2.00391c0,1.10673 0.89718,2.00391 2.00391,2.00391h47.17963c1.10673,0 2.00391,-0.89718 2.00391,-2.00391c0,-1.10673 -0.89718,-2.00391 -2.00391,-2.00391z"></path>
            <path d="M54.77344,55.16754c-2.95127,0 -5.34375,2.39248 -5.34375,5.34375c0,2.95127 2.39248,5.34375 5.34375,5.34375c2.95127,0 5.34375,-2.39248 5.34375,-5.34375c-0.00331,-2.9499 -2.39385,-5.34044 -5.34375,-5.34375zM54.77344,61.84723c-0.73782,0 -1.33594,-0.59812 -1.33594,-1.33594c0,-0.73782 0.59812,-1.33594 1.33594,-1.33594c0.73782,0 1.33594,0.59812 1.33594,1.33594c0,0.73782 -0.59812,1.33594 -1.33594,1.33594z"></path>
            <path d="M54.77344,73.44116c-2.95127,0 -5.34375,2.39248 -5.34375,5.34375c0,2.95127 2.39248,5.34375 5.34375,5.34375c2.95127,0 5.34375,-2.39248 5.34375,-5.34375c-0.00331,-2.9499 -2.39385,-5.34044 -5.34375,-5.34375zM54.77344,80.12085c-0.73782,0 -1.33594,-0.59812 -1.33594,-1.33594c0,-0.73782 0.59812,-1.33594 1.33594,-1.33594c0.73782,0 1.33594,0.59812 1.33594,1.33594c0,0.73782 -0.59812,1.33594 -1.33594,1.33594z"></path>
            <path d="M54.77344,91.71445c-2.95127,0 -5.34375,2.39248 -5.34375,5.34375c0,2.95127 2.39248,5.34375 5.34375,5.34375c2.95127,0 5.34375,-2.39248 5.34375,-5.34375c-0.0035,-2.94982 -2.39393,-5.34025 -5.34375,-5.34375zM54.77344,98.39413c-0.73782,0 -1.33594,-0.59812 -1.33594,-1.33594c0,-0.73782 0.59812,-1.33594 1.33594,-1.33594c0.73782,0 1.33594,0.59812 1.33594,1.33594c0,0.73782 -0.59812,1.33594 -1.33594,1.33594z"></path>
            <path d="M54.77344,109.98773c-2.95127,0 -5.34375,2.39248 -5.34375,5.34375c0,2.95127 2.39248,5.34375 5.34375,5.34375c2.95127,0 5.34375,-2.39248 5.34375,-5.34375c-0.0035,-2.94982 -2.39393,-5.34025 -5.34375,-5.34375zM54.77344,116.66742c-0.73782,0 -1.33594,-0.59812 -1.33594,-1.33594c0,-0.73782 0.59812,-1.33594 1.33594,-1.33594c0.73782,0 1.33594,0.59812 1.33594,1.33594c0,0.73782 -0.59812,1.33594 -1.33594,1.33594z"></path>
            <path d="M142.94531,11.35547h-44.77428c-2.32081,-4.8951 -7.25364,-8.01555 -12.67103,-8.01555c-5.41739,0 -10.35022,3.12045 -12.67103,8.01555h-44.77428c-4.7936,0.00534 -8.67826,3.88999 -8.68359,8.68359v138.9375c0.00534,4.7936 3.88999,8.67826 8.68359,8.68359h114.89063c4.7936,-0.00534 8.67826,-3.88999 8.68359,-8.68359v-138.9375c-0.00534,-4.7936 -3.88999,-8.67826 -8.68359,-8.68359zM85.5,7.34766c5.53104,0.00626 10.01327,4.48849 10.01953,10.01953v6.01172c0,1.10673 0.89718,2.00391 2.00391,2.00391h20.03906v12.02344h-64.125v-12.02344h20.03906c1.10673,0 2.00391,-0.89718 2.00391,-2.00391v-6.01172c0.00626,-5.53104 4.48849,-10.01327 10.01953,-10.01953zM147.62109,158.97656c-0.00276,2.58122 -2.09456,4.67302 -4.67578,4.67578h-114.89062c-2.58122,-0.00276 -4.67302,-2.09456 -4.67578,-4.67578v-138.9375c0.00276,-2.58122 2.09456,-4.67302 4.67578,-4.67578h43.56325c-0.09598,0.66367 -0.14453,1.33333 -0.14528,2.00391v4.00781h-20.03906c-1.10673,0 -2.00391,0.89718 -2.00391,2.00391v16.03125c0,1.10673 0.89718,2.00391 2.00391,2.00391h68.13281c1.10673,0 2.00391,-0.89718 2.00391,-2.00391v-16.03125c0,-1.10673 -0.89718,-2.00391 -2.00391,-2.00391h-20.03906v-4.00781c-0.00076,-0.67057 -0.04931,-1.34024 -0.14528,-2.00391h43.56325c2.58122,0.00276 4.67302,2.09456 4.67578,4.67578z"></path>
        </g>
    </g>
</svg>