<svg xmlns="http://www.w3.org/2000/svg" x="0px" y="0px" width="64" height="64" viewBox="0 0 225 225" style=" fill:#000000;">
    <g fill="none" fill-rule="nonzero" stroke="none" stroke-width="1" stroke-linecap="butt" stroke-linejoin="miter" stroke-miterlimit="10" stroke-dasharray="" stroke-dashoffset="0" font-family="none" font-weight="none" font-size="none" text-anchor="none" style="mix-blend-mode: normal">
        <path d="M0,225.99185v-225.99185h225.99185v225.99185z" fill="none"></path>
        <g>
            <path d="M202.28365,14.0625c4.78125,0 8.65385,3.8726 8.65385,8.65385c0,4.78125 -3.8726,8.65385 -8.65385,8.65385c-4.78125,0 -8.65385,-3.8726 -8.65385,-8.65385c0,-4.78125 3.8726,-8.65385 8.65385,-8.65385z" fill="#e6f0fc"></path>
            <path d="M24.87981,156.85096c5.97548,0 10.81731,4.84183 10.81731,10.81731c0,5.97548 -4.84183,10.81731 -10.81731,10.81731c-5.97548,0 -10.81731,-4.84183 -10.81731,-10.81731c0,-5.97548 4.84183,-10.81731 10.81731,-10.81731z" fill="#e6f0fc"></path>
            <rect x="417.5" y="307.5" transform="scale(0.43269,0.43269)" width="40" height="20" fill="#e6f0fc"></rect>
            <path d="M197.95673,126.5625v6.49038h-17.30769v-6.49038c0,-4.78125 3.8726,-8.65385 8.65385,-8.65385c2.38846,0 4.55192,0.96923 6.11827,2.53558c1.56635,1.56635 2.53558,3.72981 2.53558,6.11827z" fill="#ffffff"></path>
            <path d="M197.95673,141.70673v54.08654l-8.65385,15.14423l-8.65385,-15.14423v-54.08654z" fill="#ffffff"></path>
            <rect x="107.83" y="447.5" transform="scale(0.43269,0.43269)" width="279.67" height="40" fill="#e6f0fc"></rect>
            <path d="M189.30288,40.02404v67.06731h-21.63462v-67.06731c0,-5.23558 3.71683,-9.59712 8.65385,-10.60096c0.70096,-0.14279 1.42356,-0.21635 2.16346,-0.21635c2.98558,0 5.69423,1.21154 7.65,3.16731c1.95577,1.95577 3.16731,4.66442 3.16731,7.65z" fill="#e6f0fc"></path>
            <path d="M176.32212,29.20673v0.21635c-4.93702,1.00385 -8.65385,5.36538 -8.65385,10.60096c0,6.91053 0,144.62481 0,153.60577h-121.01106v-143.7274c0,-11.4274 9.26827,-20.69567 20.7,-20.69567c9.42188,0 104.1962,0 108.9649,0z" fill="#ffffff"></path>
            <circle cx="475" cy="215" transform="scale(0.43269,0.43269)" r="7.5" fill="#071a2d"></circle>
            <circle cx="87.5" cy="280" transform="scale(0.43269,0.43269)" r="7.5" fill="#071a2d"></circle>
            <circle cx="70" cy="45" transform="scale(0.43269,0.43269)" r="7.5" fill="#071a2d"></circle>
            <circle cx="70" cy="450" transform="scale(0.43269,0.43269)" r="7.5" fill="#071a2d"></circle>
            <circle cx="45" cy="175" transform="scale(0.43269,0.43269)" r="7.5" fill="#071a2d"></circle>
            <path d="M167.66827,213.10096h-121.01106c-1.19466,0 -2.16346,-0.96837 -2.16346,-2.16346v-161.0351c0,-12.60433 10.25654,-22.85913 22.86346,-22.85913h108.9649c1.1951,0 2.16346,0.9688 2.16346,2.16346v0.21635c0,1.19466 -0.96837,2.16346 -2.16346,2.16346c-0.33837,0 -0.65899,-0.07788 -0.94413,-0.21635h-108.02077c-10.22106,0 -18.53654,8.31332 -18.53654,18.53221v158.87163h116.68413v-101.68269c0,-1.19466 0.96837,-2.16346 2.16346,-2.16346c1.1951,0 2.16346,0.9688 2.16346,2.16346v103.84615c0,1.1951 -0.96837,2.16346 -2.16346,2.16346z" fill="#071a2d"></path>
            <path d="M189.30288,109.25481h-21.63462c-1.1951,0 -2.16346,-0.9688 -2.16346,-2.16346v-67.06731c0,-6.14726 4.36803,-11.4975 10.38635,-12.72115c0.84548,-0.17221 1.71909,-0.25962 2.59442,-0.25962c3.46889,0 6.7288,1.35 9.18,3.8012c2.45077,2.45077 3.80077,5.71111 3.80077,9.17957v67.06731c0,1.19466 -0.96837,2.16346 -2.16346,2.16346zM169.83173,104.92788h17.30769v-64.90385c0,-2.31317 -0.89957,-4.48659 -2.53341,-6.12043c-1.63385,-1.63385 -3.80726,-2.53341 -6.12043,-2.53341c-0.5863,0 -1.1687,0.05798 -1.73163,0.17264c-4.01149,0.81563 -6.92221,4.38231 -6.92221,8.4812z" fill="#071a2d"></path>
            <path d="M189.30288,213.10096c-0.77625,0 -1.49322,-0.41582 -1.87832,-1.09038l-8.65385,-15.14423c-0.18692,-0.32668 -0.28514,-0.69663 -0.28514,-1.07308v-69.23077c0,-5.96466 4.85264,-10.81731 10.81731,-10.81731c2.88822,0 5.60423,1.12587 7.64784,3.16947c2.04404,2.04361 3.16947,4.75962 3.16947,7.64784v69.23077c0,0.37644 -0.09865,0.74683 -0.28514,1.07308l-8.65385,15.14423c-0.3851,0.67457 -1.10207,1.09038 -1.87832,1.09038zM182.8125,195.21865l6.49038,11.35817l6.49038,-11.35817v-68.65615c0,-1.7325 -0.67587,-3.36202 -1.90212,-4.58827c-1.22668,-1.22625 -2.8562,-1.90212 -4.58827,-1.90212c-3.57923,0 -6.49038,2.91115 -6.49038,6.49038z" fill="#071a2d"></path>
            <path d="M197.95673,135.21635h-17.30769c-1.1951,0 -2.16346,-0.96837 -2.16346,-2.16346c0,-1.1951 0.96837,-2.16346 2.16346,-2.16346h17.30769c1.1951,0 2.16346,0.96837 2.16346,2.16346c0,1.1951 -0.96837,2.16346 -2.16346,2.16346z" fill="#071a2d"></path>
            <path d="M197.95673,143.87019h-17.30769c-1.1951,0 -2.16346,-0.96837 -2.16346,-2.16346c0,-1.1951 0.96837,-2.16346 2.16346,-2.16346h17.30769c1.1951,0 2.16346,0.96837 2.16346,2.16346c0,1.1951 -0.96837,2.16346 -2.16346,2.16346z" fill="#071a2d"></path>
            <path d="M167.66827,195.79327h-121.15385c-1.19466,0 -2.16346,-0.96837 -2.16346,-2.16346c0,-1.1951 0.9688,-2.16346 2.16346,-2.16346h121.15385c1.1951,0 2.16346,0.96837 2.16346,2.16346c0,1.1951 -0.96837,2.16346 -2.16346,2.16346z" fill="#071a2d"></path>
            <path d="M152.52404,143.87019h-90.86538c-1.19466,0 -2.16346,-0.96837 -2.16346,-2.16346c0,-1.1951 0.9688,-2.16346 2.16346,-2.16346h90.86538c1.1951,0 2.16346,0.96837 2.16346,2.16346c0,1.1951 -0.96837,2.16346 -2.16346,2.16346z" fill="#071a2d"></path>
            <path d="M152.52404,133.05288h-90.86538c-1.19466,0 -2.16346,-0.96837 -2.16346,-2.16346c0,-1.1951 0.9688,-2.16346 2.16346,-2.16346h90.86538c1.1951,0 2.16346,0.96837 2.16346,2.16346c0,1.1951 -0.96837,2.16346 -2.16346,2.16346z" fill="#071a2d"></path>
            <path d="M152.52404,122.23558h-90.86538c-1.19466,0 -2.16346,-0.96837 -2.16346,-2.16346c0,-1.1951 0.9688,-2.16346 2.16346,-2.16346h90.86538c1.1951,0 2.16346,0.96837 2.16346,2.16346c0,1.1951 -0.96837,2.16346 -2.16346,2.16346z" fill="#071a2d"></path>
            <path d="M152.52404,111.41827h-90.86538c-1.19466,0 -2.16346,-0.96837 -2.16346,-2.16346c0,-1.19466 0.9688,-2.16346 2.16346,-2.16346h90.86538c1.1951,0 2.16346,0.9688 2.16346,2.16346c0,1.1951 -0.96837,2.16346 -2.16346,2.16346z" fill="#071a2d"></path>
            <path d="M152.52404,100.60096h-90.86538c-1.19466,0 -2.16346,-0.9688 -2.16346,-2.16346c0,-1.19466 0.9688,-2.16346 2.16346,-2.16346h90.86538c1.1951,0 2.16346,0.9688 2.16346,2.16346c0,1.19466 -0.96837,2.16346 -2.16346,2.16346z" fill="#071a2d"></path>
            <path d="M152.52404,89.78365h-90.86538c-1.19466,0 -2.16346,-0.9688 -2.16346,-2.16346c0,-1.19466 0.9688,-2.16346 2.16346,-2.16346h90.86538c1.1951,0 2.16346,0.9688 2.16346,2.16346c0,1.19466 -0.96837,2.16346 -2.16346,2.16346z" fill="#071a2d"></path>
            <path d="M152.52404,78.96635h-90.86538c-1.19466,0 -2.16346,-0.9688 -2.16346,-2.16346c0,-1.19466 0.9688,-2.16346 2.16346,-2.16346h90.86538c1.1951,0 2.16346,0.9688 2.16346,2.16346c0,1.19466 -0.96837,2.16346 -2.16346,2.16346z" fill="#071a2d"></path>
            <path d="M107.09135,68.14904h-45.43269c-1.19466,0 -2.16346,-0.9688 -2.16346,-2.16346c0,-1.19466 0.9688,-2.16346 2.16346,-2.16346h45.43269c1.19466,0 2.16346,0.9688 2.16346,2.16346c0,1.19466 -0.9688,2.16346 -2.16346,2.16346z" fill="#071a2d"></path>
            <path d="M202.28365,33.53365c-5.96466,0 -10.81731,-4.85264 -10.81731,-10.81731c0,-5.96466 4.85264,-10.81731 10.81731,-10.81731c5.96466,0 10.81731,4.85264 10.81731,10.81731c0,5.96466 -4.85264,10.81731 -10.81731,10.81731zM202.28365,16.22596c-3.57923,0 -6.49038,2.91159 -6.49038,6.49038c0,3.5788 2.91115,6.49038 6.49038,6.49038c3.5788,0 6.49038,-2.91159 6.49038,-6.49038c0,-3.5788 -2.91159,-6.49038 -6.49038,-6.49038z" fill="#071a2d"></path>
            <path d="M24.87981,180.64904c-7.1576,0 -12.98077,-5.82317 -12.98077,-12.98077c0,-7.1576 5.82317,-12.98077 12.98077,-12.98077c7.1576,0 12.98077,5.82317 12.98077,12.98077c0,7.1576 -5.82317,12.98077 -12.98077,12.98077zM24.87981,159.01442c-4.77173,0 -8.65385,3.88212 -8.65385,8.65385c0,4.77173 3.88212,8.65385 8.65385,8.65385c4.77173,0 8.65385,-3.88212 8.65385,-8.65385c0,-4.77173 -3.88212,-8.65385 -8.65385,-8.65385z" fill="#071a2d"></path>
        </g>
    </g>
</svg>